<?xml version="1.0" encoding="UTF-8" standalone="no"?>
<!-- Created with Inkscape (http://www.inkscape.org/) -->

<svg
   xmlns:dc="http://purl.org/dc/elements/1.1/"
   xmlns:cc="http://creativecommons.org/ns#"
   xmlns:rdf="http://www.w3.org/1999/02/22-rdf-syntax-ns#"
   xmlns:svg="http://www.w3.org/2000/svg"
   xmlns="http://www.w3.org/2000/svg"
   xmlns:sodipodi="http://sodipodi.sourceforge.net/DTD/sodipodi-0.dtd"
   xmlns:inkscape="http://www.inkscape.org/namespaces/inkscape"
   width="210mm"
   height="297mm"
   viewBox="0 0 210 297"
   version="1.1"
   id="svg8"
   inkscape:version="0.92.2 (5c3e80d, 2017-08-06)"
   sodipodi:docname="logo.svg">
  <defs
     id="defs2" />
  <sodipodi:namedview
     id="base"
     pagecolor="#ffffff"
     bordercolor="#666666"
     borderopacity="1.0"
     inkscape:pageopacity="0.0"
     inkscape:pageshadow="2"
     inkscape:zoom="0.98994949"
     inkscape:cx="270.92448"
     inkscape:cy="972.52283"
     inkscape:document-units="mm"
     inkscape:current-layer="layer1"
     showgrid="false"
     inkscape:window-width="1920"
     inkscape:window-height="1137"
     inkscape:window-x="1912"
     inkscape:window-y="-8"
     inkscape:window-maximized="1" />
  <metadata
     id="metadata5">
    <rdf:RDF>
      <cc:Work
         rdf:about="">
        <dc:format>image/svg+xml</dc:format>
        <dc:type
           rdf:resource="http://purl.org/dc/dcmitype/StillImage" />
        <dc:title></dc:title>
      </cc:Work>
    </rdf:RDF>
  </metadata>
  <g
     inkscape:label="Layer 1"
     inkscape:groupmode="layer"
     id="layer1">
    <path
       style="fill:#000000;stroke-width:0.08466667"
       d="m 57.3618,188.67033 c -1.89144,-0.18155 -4.56699,-0.59625 -4.56752,-0.70794 -2.6e-4,-0.0506 -0.23837,-0.15512 -0.52917,-0.23226 -1.0778,-0.28586 -3.49346,-1.02819 -3.53439,-1.08611 -0.0233,-0.0329 -0.15132,-0.0866 -0.28451,-0.11924 -0.26027,-0.0638 -1.00047,-0.39078 -1.07016,-0.47281 -0.0233,-0.0274 -0.31962,-0.15713 -0.65853,-0.28829 -0.3389,-0.13115 -0.66275,-0.28343 -0.71966,-0.33838 -0.0569,-0.055 -0.38923,-0.22662 -0.73848,-0.38147 -0.34925,-0.15485 -0.65405,-0.30648 -0.67733,-0.33696 -0.0793,-0.10387 -0.72129,-0.49517 -0.91128,-0.55547 -0.10416,-0.0331 -0.18939,-0.0976 -0.18939,-0.14339 0,-0.0458 -0.12422,-0.13519 -0.27605,-0.19863 -0.15183,-0.0634 -0.37271,-0.20437 -0.49084,-0.31317 -0.11813,-0.10882 -0.41178,-0.29309 -0.65255,-0.40951 -0.24076,-0.11642 -0.45845,-0.27156 -0.48374,-0.34476 -0.0253,-0.0732 -0.2075,-0.22246 -0.40491,-0.33169 -0.1974,-0.10922 -0.47321,-0.30474 -0.61291,-0.43447 -1.65844,-1.54012 -2.18297,-2.01072 -2.55942,-2.29627 -0.40734,-0.30899 -0.86306,-0.74758 -1.49925,-1.4429 -0.19698,-0.21528 -2.23656,-2.86222 -3.13162,-4.06419 -0.0966,-0.12977 -0.28048,-0.3634 -0.40854,-0.51918 -0.12806,-0.15578 -0.23283,-0.32026 -0.23283,-0.36552 0,-0.0453 -0.0889,-0.17824 -0.19761,-0.29551 -0.10868,-0.11727 -0.31939,-0.46574 -0.468238,-0.77436 -0.148849,-0.30863 -0.301861,-0.56115 -0.340027,-0.56115 -0.07682,0 -0.518758,-0.99478 -0.518372,-1.16682 1.7e-4,-0.0597 -0.05483,-0.12963 -0.122132,-0.15545 -0.06731,-0.0258 -0.227984,-0.31991 -0.35706,-0.65351 -0.129076,-0.3336 -0.269388,-0.63087 -0.311805,-0.66059 -0.04242,-0.0297 -0.05094,-0.0964 -0.01894,-0.14816 0.032,-0.0518 0.02484,-0.0941 -0.01591,-0.0941 -0.07843,0 -0.397986,-0.72942 -0.491468,-1.12183 -0.03051,-0.12806 -0.09388,-0.23283 -0.140828,-0.23283 -0.04695,0 -0.06591,-0.0744 -0.04214,-0.16528 0.02377,-0.0909 0.0093,-0.17662 -0.03223,-0.1905 -0.0415,-0.0139 -0.263343,-0.76849 -0.492989,-1.67694 -0.229647,-0.90845 -0.513354,-1.91569 -0.630459,-2.23831 -0.117105,-0.32262 -0.193766,-0.61757 -0.170359,-0.65545 0.02341,-0.0379 0.0068,-0.0689 -0.03681,-0.0689 -0.336676,0 -0.644872,-7.15463 -0.443128,-10.287 0.08938,-1.3877 0.292908,-3.08127 0.401917,-3.34433 0.02895,-0.0699 0.0443,-0.17745 0.03412,-0.23911 -0.01018,-0.0617 0.01717,-0.15692 0.06077,-0.21167 0.0436,-0.0548 0.186447,-0.59485 0.317429,-1.20022 0.130982,-0.60537 0.266935,-1.11265 0.302118,-1.1273 0.03518,-0.0146 0.04298,-0.0813 0.01733,-0.14817 -0.02565,-0.0668 -0.0045,-0.12153 0.04709,-0.12153 0.05155,0 0.09374,-0.0667 0.09377,-0.14817 5.6e-5,-0.19189 0.290505,-0.97426 0.542212,-1.4605 0.108474,-0.20955 0.241616,-0.5715 0.295869,-0.80433 0.127044,-0.54521 0.264258,-0.889 0.354825,-0.889 0.03946,0 0.05018,-0.0562 0.02384,-0.12482 -0.02634,-0.0687 0.01295,-0.18568 0.08732,-0.26005 0.07437,-0.0744 0.135224,-0.18864 0.135224,-0.25391 0,-0.1679 0.361346,-0.91486 0.479463,-0.99114 0.05415,-0.035 0.20242,-0.33563 0.329479,-0.66814 0.12706,-0.33251 0.302341,-0.67589 0.389513,-0.76306 0.08717,-0.0872 0.219269,-0.31038 0.293547,-0.49602 0.07428,-0.18564 0.168499,-0.33753 0.209389,-0.33753 0.0409,0 0.13267,-0.12382 0.20397,-0.27516 0.19572,-0.41542 0.41503,-0.77967 0.48906,-0.81225 0.0363,-0.016 0.16172,-0.21782 0.27861,-0.44848 0.11688,-0.23067 0.2683,-0.4408 0.33648,-0.46696 0.0682,-0.0262 0.18296,-0.1719 0.25507,-0.32387 0.0721,-0.15197 0.3014,-0.4758 0.50953,-0.71963 0.20813,-0.24383 0.4217,-0.52421 0.4746,-0.62305 0.0529,-0.0988 0.18538,-0.24987 0.2944,-0.33563 0.10902,-0.0858 0.19822,-0.20916 0.19822,-0.27424 0,-0.0651 0.1143,-0.20283 0.254,-0.30611 0.1397,-0.10329 0.254,-0.22665 0.254,-0.27414 0,-0.0904 0.3274,-0.44144 1.57722,-1.69126 1.19047,-1.19047 1.6001,-1.57722 1.67053,-1.57722 0.0361,0 0.19328,-0.12382 0.34931,-0.27516 0.34279,-0.3325 0.68473,-0.61204 0.99151,-0.8106 0.12553,-0.0813 0.30594,-0.23732 0.40092,-0.34683 0.095,-0.10951 0.25897,-0.24613 0.36443,-0.30361 0.10546,-0.0575 0.28872,-0.15707 0.40723,-0.22131 0.11852,-0.0642 0.22074,-0.15492 0.22716,-0.20149 0.006,-0.0466 0.25236,-0.21438 0.54652,-0.37294 0.29416,-0.15854 0.57294,-0.33697 0.61951,-0.39651 0.0466,-0.0595 0.26329,-0.20177 0.48162,-0.31608 0.21833,-0.11432 0.50996,-0.28831 0.64807,-0.38666 0.13811,-0.0983 0.27647,-0.17881 0.30745,-0.17881 0.031,0 0.22965,-0.11923 0.44146,-0.26496 0.21181,-0.14573 0.57433,-0.33413 0.8056,-0.41866 0.23127,-0.0845 0.48393,-0.22461 0.56148,-0.31129 0.0775,-0.0867 0.53676,-0.28448 1.02048,-0.43955 0.48372,-0.15507 1.03617,-0.37213 1.22767,-0.48236 0.19149,-0.11022 0.50057,-0.24181 0.68683,-0.29241 0.18627,-0.0506 0.45297,-0.14408 0.59267,-0.20776 0.1397,-0.0637 0.80645,-0.25285 1.48167,-0.42041 0.67521,-0.16754 1.58961,-0.41534 2.032,-0.55064 1.16537,-0.35645 1.85966,-0.50574 3.00566,-0.64631 1.34319,-0.16477 6.11482,-0.24585 7.45067,-0.12662 1.84967,0.16509 3.47093,0.37204 3.49955,0.44671 0.0155,0.0405 0.15205,0.0736 0.3034,0.0736 0.15134,0 0.30166,0.0265 0.33406,0.0589 0.0324,0.0324 0.10542,0.0677 0.16227,0.0784 0.85022,0.16015 1.89076,0.40307 1.92372,0.4491 0.0233,0.0325 0.26301,0.10746 0.53273,0.16658 0.26971,0.0591 0.59356,0.16129 0.71967,0.22707 0.12609,0.0658 0.29594,0.11985 0.37743,0.12013 0.0815,0 0.14817,0.0356 0.14817,0.0785 0,0.0429 0.12382,0.10332 0.27517,0.13432 0.2848,0.0584 2.25529,0.86445 2.37472,0.97146 0.0642,0.0575 -0.0883,0.50445 -0.20271,0.59428 -0.0297,0.0233 -0.17789,0.32587 -0.32941,0.6724 -0.15151,0.34654 -0.32804,0.68264 -0.39229,0.74689 -0.0642,0.0642 -0.11681,0.14612 -0.11681,0.18194 0,0.0358 -0.2781,0.54167 -0.618,1.12411 -0.3623,0.62083 -0.72089,1.37082 -0.86668,1.81265 -0.13677,0.41453 -0.25482,0.76566 -0.26234,0.78031 -0.0429,0.0834 -0.62365,-0.10633 -0.62365,-0.20377 0,-0.0638 -0.10478,-0.13988 -0.23283,-0.1691 -0.61506,-0.14038 -1.23712,-0.34226 -2.01023,-0.65239 -1.44616,-0.58013 -4.26805,-1.05609 -7.4255,-1.25243 -1.8617,-0.11576 -3.24671,-0.0232 -4.42844,0.29584 -0.4191,0.11315 -0.97155,0.23251 -1.22767,0.26523 -0.25611,0.0327 -0.48471,0.0837 -0.508,0.11325 -0.0233,0.0296 -0.46529,0.13858 -0.98225,0.24224 -0.51695,0.10367 -1.05035,0.24608 -1.18533,0.31647 -0.13498,0.0704 -0.29688,0.12823 -0.35978,0.12851 -0.30422,0.001 -2.00603,0.56369 -2.71103,0.89576 -0.76028,0.35811 -2.05368,1.11189 -3.22175,1.87759 -0.3019,0.19791 -0.58117,0.35984 -0.62058,0.35984 -0.0394,0 -0.20898,0.13335 -0.3768,0.29633 -0.16781,0.16298 -0.34957,0.29633 -0.40389,0.29633 -0.0543,0 -0.24851,0.12431 -0.43151,0.27624 -0.18301,0.15193 -0.61849,0.49261 -0.96774,0.75707 -0.86134,0.65221 -1.65596,1.47345 -3.50598,3.62336 -1.27333,1.47974 -1.66614,1.9994 -2.09939,2.77736 -0.29313,0.52636 -0.7148,1.26931 -0.93704,1.651 -0.63424,1.08928 -1.04555,1.99091 -1.24357,2.72597 -0.10036,0.37254 -0.19447,0.71544 -0.20913,0.762 -0.0147,0.0466 -0.0352,0.12277 -0.0455,0.16934 -0.0104,0.0466 -0.0491,0.10371 -0.0861,0.127 -0.037,0.0233 -0.17116,0.46143 -0.29824,0.97366 -0.12708,0.51224 -0.26932,0.97896 -0.3161,1.03717 -0.0468,0.0582 -0.0603,0.10583 -0.0302,0.10583 0.0302,0 -0.004,0.11447 -0.0767,0.25438 -0.0724,0.13991 -0.16627,0.51138 -0.20871,0.8255 -0.0424,0.31412 -0.12272,0.91402 -0.17842,1.33312 -0.0557,0.4191 -0.13742,0.80789 -0.18162,0.86397 -0.0464,0.0589 -0.0553,0.33596 -0.021,0.65617 0.0383,0.35772 0.0289,0.5542 -0.0267,0.5542 -0.14257,0 -0.20148,1.97861 -0.0983,3.302 0.0526,0.67521 0.10865,1.44671 0.12446,1.71441 0.25476,4.31424 2.16015,9.20581 5.05904,12.98771 0.78024,1.0179 2.01592,2.42657 2.72286,3.10407 2.21399,2.12175 2.36411,2.25981 2.45724,2.25981 0.0749,0 0.70567,0.43733 0.97699,0.67732 0.11641,0.10298 0.28786,0.2215 0.381,0.26336 0.0931,0.0419 0.39793,0.2488 0.67733,0.45986 0.46443,0.35083 0.89946,0.59019 1.62373,0.89341 0.14798,0.062 0.25353,0.13778 0.23454,0.16849 -0.019,0.0307 0.14569,0.12019 0.36594,0.19881 0.22025,0.0786 0.52558,0.19781 0.6785,0.26485 0.15292,0.067 0.33389,0.1219 0.40216,0.1219 0.0683,0 0.12413,0.0381 0.12413,0.0847 0,0.0466 0.0571,0.0847 0.127,0.0847 0.0699,0 0.127,0.0374 0.127,0.0831 0,0.0457 0.10478,0.10699 0.23283,0.13625 0.12806,0.0292 0.63812,0.23881 1.13346,0.46569 1.02261,0.46838 2.02752,0.74484 3.79838,1.04496 0.67521,0.11444 1.68486,0.29206 2.24366,0.39472 1.32785,0.24395 3.18024,0.25797 5.207,0.0394 0.81492,-0.0879 1.50072,-0.18701 1.524,-0.22029 0.0233,-0.0333 0.19474,-0.0816 0.381,-0.10732 0.87835,-0.12136 2.79455,-0.49823 2.8342,-0.55743 0.0245,-0.0365 0.2826,-0.11849 0.57364,-0.18218 0.29104,-0.0637 0.52916,-0.13995 0.52916,-0.1695 0,-0.0296 0.20955,-0.10063 0.46567,-0.15795 0.25612,-0.0573 0.46567,-0.13223 0.46567,-0.16649 0,-0.0342 0.26934,-0.13213 0.59854,-0.21751 0.32919,-0.0854 0.65033,-0.20702 0.71361,-0.27032 0.0633,-0.0633 0.17496,-0.11508 0.24814,-0.11508 0.0732,0 0.13304,-0.0329 0.13304,-0.0731 0,-0.0402 0.3429,-0.19574 0.762,-0.34565 0.4191,-0.14992 0.762,-0.30835 0.762,-0.35207 0,-0.0437 0.25718,-0.20141 0.5715,-0.35041 1.11515,-0.52864 2.80729,-1.64613 3.8687,-2.55492 0.63862,-0.5468 2.4178,-2.27703 2.4178,-2.35129 0,-0.0245 0.40095,-0.45956 0.89099,-0.96675 0.80582,-0.83402 1.99179,-2.44262 2.44029,-3.30991 0.0749,-0.14477 0.1892,-0.31631 0.2541,-0.38121 0.0649,-0.0649 0.18559,-0.24948 0.26822,-0.41018 0.0826,-0.16071 0.29188,-0.50175 0.46505,-0.75786 0.54118,-0.80042 0.85021,-1.50781 1.44213,-3.30113 0.31525,-0.9551 0.6699,-1.98889 0.7881,-2.2973 0.11821,-0.30843 0.27227,-0.95613 0.34237,-1.43934 0.0701,-0.48321 0.15094,-0.97382 0.17965,-1.09023 0.35602,-1.44407 0.37453,-7.72691 0.0249,-8.4394 -0.0498,-0.10141 -0.0718,-0.28239 -0.0489,-0.40216 0.0229,-0.11977 0.0156,-0.21778 -0.0163,-0.21778 -0.0319,0 -0.1825,-0.63817 -0.33473,-1.41816 -0.2418,-1.23885 -0.50226,-2.15501 -0.69207,-2.43417 -0.0317,-0.0466 -0.084,-0.20849 -0.1164,-0.35983 -0.0324,-0.15134 -0.0984,-0.27517 -0.14665,-0.27517 -0.0483,0 -0.0679,-0.0762 -0.0435,-0.16933 0.0244,-0.0931 0.0128,-0.16934 -0.0257,-0.16934 -0.0385,0 -0.0962,-0.12382 -0.12828,-0.27516 -0.0565,-0.26681 -0.36396,-0.90903 -0.47627,-0.99484 -0.0305,-0.0233 -0.0636,-0.0804 -0.0736,-0.127 -0.01,-0.0466 -0.0518,-0.17287 -0.0927,-0.28067 -0.041,-0.10781 -0.0745,-0.20656 -0.0745,-0.21943 0,-0.0129 0.16193,-0.0719 0.35984,-0.13111 0.48786,-0.14599 1.25922,-0.53918 1.93951,-0.98864 0.31001,-0.20482 0.74816,-0.45344 0.97366,-0.55246 0.2255,-0.099 0.42904,-0.20709 0.45233,-0.24012 0.0233,-0.033 0.30903,-0.18955 0.635,-0.34781 0.32596,-0.15827 0.61171,-0.31062 0.635,-0.33858 0.0915,-0.10988 0.39747,-0.22857 0.7319,-0.28395 l 0.35091,-0.0581 0.23303,0.70444 c 0.12816,0.38744 0.41794,1.14251 0.64393,1.67793 0.22599,0.53543 0.41089,1.0212 0.41089,1.0795 0,0.0583 0.0381,0.106 0.0847,0.106 0.0466,0 0.0847,0.0952 0.0847,0.21167 0,0.11642 0.0422,0.21167 0.0937,0.21167 0.0515,0 0.0727,0.0547 0.0471,0.12153 -0.0256,0.0668 -0.0191,0.13352 0.0146,0.14816 0.0642,0.0279 0.52189,2.03887 0.52189,2.29299 0,0.0807 0.0381,0.14665 0.0847,0.14665 0.0466,0 0.0847,0.093 0.0847,0.20667 0,0.11367 0.0317,0.22627 0.0705,0.25024 0.0388,0.024 0.11772,0.43578 0.17544,0.91517 0.11975,0.99459 0.32825,2.64316 0.43683,3.45392 0.0903,0.67452 0.10404,5.24933 0.0157,5.24933 -0.0349,0 -0.0677,0.20003 -0.0729,0.4445 -0.0249,1.18403 -0.39048,3.43408 -0.66439,4.08965 -0.0693,0.16594 -0.14946,0.49951 -0.17806,0.74128 -0.0286,0.24177 -0.111,0.72532 -0.1831,1.07457 -0.0721,0.34925 -0.1493,0.73978 -0.17154,0.86784 -0.0222,0.12806 -0.0765,0.23283 -0.12049,0.23283 -0.044,0 -0.056,0.039 -0.0265,0.0866 0.055,0.0889 -0.13062,0.59068 -0.21847,0.59068 -0.0269,0 -0.10166,0.25279 -0.16614,0.56176 -0.0645,0.30897 -0.1647,0.60924 -0.22273,0.66726 -0.058,0.058 -0.0798,0.13115 -0.0485,0.16251 0.0314,0.0314 0.02,0.0835 -0.0252,0.11591 -0.0452,0.0324 -0.19493,0.39227 -0.3327,0.79973 -0.13777,0.40746 -0.28289,0.74083 -0.3225,0.74083 -0.0396,0 -0.0458,0.0424 -0.0138,0.0941 0.032,0.0518 0.0231,0.11845 -0.0198,0.14816 -0.0429,0.0297 -0.19026,0.28264 -0.32749,0.56204 -0.13723,0.2794 -0.27171,0.52705 -0.29887,0.55033 -0.0271,0.0233 -0.0736,0.1081 -0.10325,0.18848 -0.18252,0.49495 -2.3966,3.79404 -3.56692,5.31485 -1.71733,2.23167 -4.04011,4.64358 -5.3195,5.52362 -0.22073,0.15183 -0.4017,0.31923 -0.40217,0.37201 -8.5e-4,0.0528 -0.0675,0.11841 -0.149,0.14585 -0.27993,0.0943 -0.71702,0.38195 -0.83395,0.5489 -0.0644,0.0919 -0.28885,0.25029 -0.49882,0.35194 -0.20995,0.10163 -0.38173,0.21949 -0.38173,0.2619 0,0.0424 -0.0513,0.0771 -0.11388,0.0771 -0.0626,0 -0.18154,0.0748 -0.26424,0.16615 -0.0827,0.0914 -0.2791,0.20862 -0.43645,0.26056 -0.15736,0.0519 -0.2861,0.13092 -0.2861,0.17553 0,0.0446 -0.16193,0.15178 -0.35983,0.23816 -0.19791,0.0864 -0.43604,0.22898 -0.52917,0.3169 -0.0931,0.0879 -0.41221,0.2645 -0.70906,0.39243 -0.29684,0.12792 -0.63536,0.30781 -0.75225,0.39976 -0.11689,0.0919 -0.24732,0.16717 -0.28984,0.16717 -0.0425,0 -0.71365,0.26393 -1.49141,0.5865 -3.28252,1.3614 -5.66141,1.99583 -8.94944,2.38672 -1.64468,0.19552 -6.19226,0.28853 -7.58258,0.15508 z m 96.56725,-0.0466 c -0.32596,-0.062 -1.20955,-0.18746 -1.96351,-0.27873 -0.84951,-0.10284 -1.5125,-0.2286 -1.74329,-0.33069 -0.20484,-0.0906 -0.80716,-0.25003 -1.33849,-0.35426 -0.53132,-0.10423 -1.08034,-0.23892 -1.22004,-0.29931 -0.1397,-0.0604 -0.61595,-0.23535 -1.05834,-0.3888 -0.44238,-0.15344 -0.81703,-0.30934 -0.83255,-0.34643 -0.0155,-0.0371 -0.0886,-0.0675 -0.1623,-0.0675 -0.0737,0 -0.36585,-0.12672 -0.64912,-0.28161 -0.28326,-0.1549 -0.88643,-0.41208 -1.34036,-0.5715 -0.45394,-0.15944 -0.82542,-0.33253 -0.8255,-0.38465 0,-0.0521 -0.21924,-0.19566 -0.487,-0.31898 -0.26776,-0.12331 -0.87085,-0.46167 -1.3402,-0.7519 -0.46936,-0.29022 -1.13224,-0.69914 -1.47307,-0.90869 -0.34082,-0.20955 -0.75532,-0.50482 -0.9211,-0.65617 -0.16577,-0.15134 -0.34935,-0.27516 -0.40794,-0.27516 -0.0586,0 -0.23215,-0.12383 -0.38567,-0.27517 -0.15352,-0.15134 -0.44888,-0.38947 -0.65635,-0.52917 -0.20747,-0.1397 -0.48713,-0.37782 -0.62146,-0.52916 -0.13434,-0.15134 -0.2758,-0.27517 -0.31436,-0.27517 -0.0386,0 -0.29768,-0.21907 -0.5758,-0.48683 -1.72344,-1.65918 -2.49522,-2.47215 -3.39595,-3.57717 -0.28468,-0.34925 -0.5898,-0.72072 -0.67803,-0.8255 -0.0882,-0.10477 -0.13578,-0.1905 -0.10565,-0.1905 0.0301,0 -0.0299,-0.0593 -0.13341,-0.1318 -0.1035,-0.0725 -0.18818,-0.18276 -0.18818,-0.24504 0,-0.0623 -0.12118,-0.24111 -0.26929,-0.39737 -0.14811,-0.15627 -0.35714,-0.44708 -0.4645,-0.64625 -0.10737,-0.19916 -0.27641,-0.44681 -0.37566,-0.55033 -0.0993,-0.10352 -0.23205,-0.30824 -0.29511,-0.45494 -0.0631,-0.1467 -0.16562,-0.31815 -0.22792,-0.381 -0.10212,-0.10303 -0.23834,-0.33956 -0.51643,-0.89678 -0.0521,-0.10441 -0.12558,-0.19013 -0.16325,-0.1905 -0.0377,0 -0.045,-0.0388 -0.0162,-0.0853 0.0288,-0.0466 0.0161,-0.0847 -0.0281,-0.0847 -0.0443,0 -0.14438,-0.15973 -0.2225,-0.35495 -0.0781,-0.19522 -0.21447,-0.4567 -0.30302,-0.58106 -0.0885,-0.12435 -0.13673,-0.25038 -0.10706,-0.28005 0.0297,-0.0297 0.0158,-0.0539 -0.0309,-0.0539 -0.0467,0 -0.19389,-0.28575 -0.32717,-0.635 -0.13329,-0.34925 -0.27698,-0.635 -0.31933,-0.635 -0.0423,0 -0.056,-0.0547 -0.0304,-0.12153 0.0256,-0.0668 0.0111,-0.13352 -0.0323,-0.14817 -0.0434,-0.0146 -0.17776,-0.36762 -0.29853,-0.78438 -0.12076,-0.41677 -0.28312,-0.80968 -0.36079,-0.87315 -0.10849,-0.0887 -0.11565,-0.12596 -0.0309,-0.16097 0.0869,-0.0359 0.0834,-0.0662 -0.0167,-0.14285 -0.12205,-0.0935 -0.47462,-1.27824 -0.47462,-1.59489 0,-0.0844 -0.0422,-0.15339 -0.0937,-0.15339 -0.0515,0 -0.0718,-0.0571 -0.045,-0.127 0.0268,-0.0699 0.0161,-0.127 -0.0237,-0.127 -0.0398,0 -0.098,-0.17056 -0.12923,-0.37903 -0.0313,-0.20847 -0.088,-0.39826 -0.12603,-0.42178 -0.038,-0.0235 -0.1167,-0.34825 -0.17479,-0.72164 -0.0581,-0.37339 -0.14321,-0.67889 -0.18919,-0.67889 -0.046,0 -0.068,-0.13335 -0.049,-0.29633 0.019,-0.16298 0.01,-0.29633 -0.0203,-0.29633 -0.0302,0 -0.12033,-0.56198 -0.20034,-1.24884 -0.08,-0.68685 -0.19056,-1.40123 -0.24564,-1.5875 -0.13829,-0.46765 -0.14026,-6.80391 -0.002,-7.28133 0.0538,-0.18627 0.1612,-0.89112 0.23858,-1.56633 0.0774,-0.67522 0.16946,-1.23813 0.20464,-1.2509 0.0352,-0.0128 0.0467,-0.14083 0.0256,-0.28455 -0.0211,-0.14372 -0.002,-0.28566 0.0431,-0.31543 0.0448,-0.0298 0.12788,-0.33987 0.1846,-0.68912 0.0567,-0.34925 0.13929,-0.6712 0.18351,-0.71544 0.0442,-0.0442 0.0804,-0.14502 0.0804,-0.22396 0,-0.0789 0.11477,-0.41326 0.25506,-0.74292 0.14028,-0.32966 0.34642,-0.93372 0.45809,-1.34237 0.34305,-1.25544 0.79343,-2.66913 0.86763,-2.72342 0.0388,-0.0284 0.12623,-0.15959 0.19436,-0.29161 0.0681,-0.13203 0.23003,-0.29496 0.35977,-0.36205 0.22506,-0.11638 0.27871,-0.0999 1.16716,0.35947 0.51219,0.26481 0.93126,0.51345 0.93126,0.55254 0,0.0391 0.0667,0.0712 0.14817,0.0714 0.0815,0 0.28151,0.0826 0.4445,0.18314 0.50943,0.31427 2.0536,1.08655 2.17257,1.08655 0.0624,0 0.11343,0.0323 0.11343,0.0718 0,0.0395 0.14802,0.13855 0.32894,0.22014 0.18091,0.0816 0.37117,0.24104 0.4228,0.35436 0.0816,0.17903 0.0447,0.29168 -0.28132,0.85937 -0.42007,0.73145 -0.90388,2.12025 -1.05856,3.03861 -0.0624,0.37074 -0.14921,0.62529 -0.22274,0.65351 -0.0663,0.0254 -0.12093,0.13314 -0.12151,0.23938 -8.4e-4,0.10624 -0.0929,0.52514 -0.20515,0.9309 -0.34653,1.25252 -0.42471,2.1874 -0.42682,5.10425 -0.001,1.49014 0.0278,2.93794 0.0642,3.21734 0.0364,0.2794 0.10103,0.96634 0.14364,1.52653 0.095,1.24934 0.18331,1.65664 0.54887,2.5316 0.15699,0.37576 0.3499,0.95943 0.42867,1.29703 0.0788,0.33761 0.18165,0.61384 0.22864,0.61384 0.047,0 0.0677,0.0678 0.046,0.15066 -0.0217,0.0829 0.009,0.19623 0.069,0.2519 0.0596,0.0557 0.19448,0.38793 0.29973,0.73834 0.10525,0.3504 0.22442,0.6371 0.26482,0.6371 0.0404,0 0.0499,0.0381 0.0211,0.0847 -0.0288,0.0466 -0.012,0.0847 0.0373,0.0847 0.0493,0 0.0897,0.0405 0.0897,0.0899 0,0.13492 0.44153,1.04883 0.5224,1.08131 0.0386,0.0155 0.0704,0.0727 0.0706,0.127 8.5e-4,0.20941 1.11877,2.22686 1.30922,2.36232 0.0481,0.0342 0.0607,0.0628 0.028,0.0635 -0.0327,8.5e-4 0.034,0.10211 0.14816,0.22532 0.1142,0.12322 0.20763,0.27269 0.20763,0.33216 0,0.0595 0.10478,0.21583 0.23283,0.34747 0.12806,0.13164 0.34703,0.41079 0.4866,0.62034 0.13957,0.20955 0.27576,0.40005 0.30265,0.42334 0.0269,0.0233 0.30329,0.39069 0.61422,0.81647 0.49322,0.6754 0.85556,1.04115 2.38537,2.40784 0.1397,0.1248 0.38735,0.35434 0.55033,0.51009 0.16298,0.15574 0.42968,0.37507 0.59267,0.48739 0.16298,0.11232 0.37253,0.27303 0.46566,0.35715 0.76747,0.69312 1.94539,1.57792 2.32834,1.74893 0.25611,0.11436 0.48736,0.24299 0.5139,0.28583 0.0265,0.0428 0.31228,0.19052 0.635,0.32819 0.32271,0.13767 0.5793,0.28326 0.57016,0.32352 -0.0161,0.0712 0.51626,0.30959 1.20194,0.53807 0.18626,0.0621 0.41103,0.17814 0.49948,0.25793 0.0884,0.0798 0.44088,0.22822 0.78317,0.32983 0.34229,0.10162 0.62235,0.21731 0.62235,0.25709 0,0.0398 0.0489,0.0723 0.10879,0.0723 0.0598,0 0.43131,0.13015 0.8255,0.28923 0.48061,0.19395 1.14333,0.36261 2.01179,0.51197 0.71231,0.12251 1.53146,0.29413 1.82034,0.38139 0.80711,0.2438 2.99858,0.37474 5.26472,0.31458 2.85661,-0.0758 4.49354,-0.30404 5.97086,-0.83237 0.39581,-0.14156 0.82444,-0.27717 0.9525,-0.30136 0.12806,-0.0242 0.23283,-0.0747 0.23283,-0.11231 0,-0.0376 0.12383,-0.0932 0.27517,-0.12364 0.66926,-0.13452 2.3981,-0.77736 3.40783,-1.26714 2.88349,-1.39869 6.73521,-4.47639 8.64327,-6.90637 0.2754,-0.35073 0.74838,-1.01748 1.05106,-1.48167 0.30269,-0.46418 0.57915,-0.85675 0.61436,-0.87237 0.0352,-0.0156 0.0425,-0.0633 0.0162,-0.10583 -0.0263,-0.0426 -0.008,-0.0774 0.0407,-0.0774 0.0487,0 0.14411,-0.12382 0.21204,-0.27517 0.14225,-0.31691 0.37845,-0.71045 0.54235,-0.90365 0.20797,-0.24516 0.95797,-1.48334 1.13223,-1.86918 0.0946,-0.20955 0.41701,-1.1049 0.71639,-1.98967 0.29938,-0.88476 0.67294,-1.93251 0.83013,-2.32833 0.26818,-0.67529 0.40497,-1.36809 0.72714,-3.683 0.14051,-1.0096 0.19136,-4.61016 0.0843,-5.969 -0.17241,-2.18812 -0.59348,-4.27657 -1.10959,-5.50333 -0.12733,-0.30269 -0.2578,-0.67416 -0.28991,-0.8255 -0.0321,-0.15134 -0.0979,-0.27517 -0.14621,-0.27517 -0.0483,0 -0.0679,-0.0762 -0.0435,-0.16933 0.0244,-0.0931 0.0139,-0.16934 -0.0233,-0.16934 -0.0372,0 -0.0935,-0.10477 -0.12528,-0.23283 -0.11297,-0.45567 -0.82658,-2.18904 -1.12411,-2.7305 -1.38044,-2.51208 -3.44727,-5.21087 -5.57906,-7.28495 -1.5734,-1.53081 -2.79098,-2.43274 -4.34881,-3.22142 -0.39581,-0.20038 -0.73871,-0.38821 -0.762,-0.41739 -0.0233,-0.0292 -0.22018,-0.12561 -0.43755,-0.2143 -0.21737,-0.0887 -0.37896,-0.18755 -0.35909,-0.21971 0.0199,-0.0322 -0.0785,-0.0836 -0.21862,-0.1144 -0.14011,-0.0308 -0.25474,-0.088 -0.25474,-0.12709 0,-0.0391 -0.18892,-0.13388 -0.41982,-0.21058 -0.23092,-0.0767 -0.55073,-0.22827 -0.71073,-0.33685 -0.25944,-0.17606 -1.31676,-0.52362 -2.06561,-0.67901 -0.15134,-0.0314 -0.27517,-0.0922 -0.27517,-0.13503 0,-0.0429 -0.0686,-0.0779 -0.1524,-0.0779 -0.0838,0 -0.18859,-0.0335 -0.23283,-0.0745 -0.13528,-0.12524 -2.89479,-0.76385 -4.10453,-0.94989 -1.67541,-0.25764 -4.78406,-0.31862 -6.19151,-0.12144 -0.57479,0.0805 -1.10221,0.16874 -1.17206,0.19604 -0.0699,0.0273 -0.56515,0.11398 -1.10067,0.19261 -1.19991,0.1762 -4.08732,0.91342 -4.80896,1.22783 -0.35687,0.15549 -0.5188,0.27012 -0.48949,0.3465 0.0301,0.0784 -0.0284,0.11451 -0.18637,0.11531 -0.1266,8.4e-4 -0.30693,0.0218 -0.40072,0.047 -0.14971,0.0402 -0.18889,-0.0253 -0.32056,-0.53646 -0.18185,-0.70593 -0.51995,-1.43708 -1.02705,-2.22096 -0.20877,-0.32272 -0.46211,-0.77862 -0.56297,-1.01309 -0.10087,-0.23447 -0.22125,-0.42631 -0.26752,-0.42631 -0.0463,0 -0.0642,-0.0762 -0.0398,-0.16933 0.0244,-0.0931 0.0174,-0.16934 -0.0155,-0.16934 -0.0739,0 -0.73277,-1.33821 -0.68121,-1.38354 0.0204,-0.018 0.41818,-0.15721 0.88385,-0.30939 0.46566,-0.15218 1.40511,-0.50028 2.08765,-0.77355 0.68254,-0.27326 1.30166,-0.49685 1.37583,-0.49685 0.0742,0 0.13485,-0.0339 0.13485,-0.0752 0,-0.0414 0.14288,-0.10032 0.3175,-0.13096 0.48891,-0.0858 2.15941,-0.48419 2.3495,-0.56034 0.0931,-0.0373 0.83541,-0.14942 1.64949,-0.24913 1.85782,-0.22755 5.68285,-0.31701 7.70618,-0.18023 1.71442,0.11589 3.5885,0.34586 3.62655,0.44503 0.0155,0.0404 0.15615,0.0735 0.31251,0.0735 0.15635,0 0.30679,0.0364 0.33432,0.081 0.0275,0.0445 0.10646,0.0593 0.17541,0.0329 0.069,-0.0265 0.1725,-0.009 0.23012,0.0382 0.0576,0.0475 0.45718,0.15097 0.88792,0.22993 0.43074,0.079 0.78317,0.16906 0.78317,0.2002 0,0.0311 0.21901,0.10753 0.4867,0.16977 0.26769,0.0622 0.65822,0.1997 0.86784,0.30547 0.20962,0.10577 0.74262,0.2908 1.18445,0.41117 0.44182,0.12036 0.84187,0.2712 0.889,0.33518 0.0471,0.064 0.33332,0.20123 0.63601,0.30498 0.68346,0.23427 1.35157,0.59742 3.22211,1.75139 0.80687,0.49777 1.70708,1.00444 2.00047,1.12593 0.2934,0.12149 0.53374,0.26691 0.5341,0.32316 0,0.0563 0.18163,0.20803 0.40282,0.33731 0.22119,0.12928 0.49128,0.34043 0.60019,0.46924 0.10892,0.1288 0.23782,0.23419 0.28646,0.23419 0.0486,0 0.22623,0.12808 0.39464,0.28463 2.19146,2.03705 2.81321,2.63315 3.60821,3.45943 0.96481,1.00278 1.50122,1.61355 1.74946,1.99196 0.0793,0.12097 0.20396,0.25335 0.27691,0.29417 0.0729,0.0408 0.13281,0.11995 0.13303,0.17585 0,0.0559 0.12405,0.23916 0.27517,0.40725 0.27947,0.31085 0.42467,0.52646 0.6352,0.94321 0.0647,0.12806 0.14688,0.23283 0.18264,0.23283 0.0357,0 0.17186,0.20003 0.30245,0.4445 0.1306,0.24448 0.28578,0.50165 0.34484,0.5715 0.15538,0.18376 1.22263,2.10823 1.22263,2.20467 0,0.0447 0.0404,0.0813 0.0897,0.0813 0.0493,0 0.0661,0.0381 0.0373,0.0847 -0.0288,0.0466 -0.0153,0.0847 0.0299,0.0847 0.0452,0 0.18417,0.2667 0.30873,0.59267 0.12456,0.32597 0.26349,0.59267 0.30873,0.59267 0.0452,0 0.0587,0.0381 0.0299,0.0847 -0.0288,0.0466 -0.0206,0.0847 0.0181,0.0847 0.0387,0 0.16205,0.27623 0.27397,0.61383 0.11194,0.33761 0.25835,0.72526 0.32535,0.86144 0.067,0.13617 0.305,0.89817 0.52886,1.69333 0.22387,0.79516 0.52307,1.74657 0.66488,2.11426 0.14182,0.3677 0.23775,0.70108 0.21317,0.74084 -0.0246,0.0398 -0.009,0.0723 0.0338,0.0723 0.083,0 0.10945,0.14283 0.31349,1.69333 0.0705,0.53552 0.18731,1.24948 0.25963,1.58658 0.0723,0.33709 0.10971,0.64817 0.0831,0.69127 -0.0266,0.0431 -8.5e-4,0.0943 0.0579,0.11381 0.13596,0.0453 0.15736,6.84828 0.0217,6.89331 -0.0476,0.0158 -0.072,0.2318 -0.0557,0.49391 0.0161,0.25775 -0.007,0.46579 -0.0514,0.46579 -0.0442,0 -0.10484,0.25718 -0.13479,0.5715 -0.0518,0.54405 -0.14703,0.95471 -0.8586,3.70417 -0.16872,0.65193 -0.31696,1.26153 -0.32941,1.35466 -0.0125,0.0931 -0.045,0.22649 -0.0722,0.29634 -0.0273,0.0699 -0.15416,0.47942 -0.28196,0.91016 -0.12778,0.43075 -0.26669,0.78317 -0.30866,0.78317 -0.042,0 -0.0528,0.0381 -0.024,0.0847 0.0288,0.0466 0.012,0.0847 -0.0373,0.0847 -0.0493,0 -0.0904,0.0476 -0.0912,0.10584 -8.5e-4,0.0582 -0.13103,0.42016 -0.28928,0.80433 -0.15826,0.38418 -0.26233,0.69966 -0.23129,0.70107 0.0311,0.001 -0.0102,0.0414 -0.0917,0.0889 -0.0815,0.0475 -0.14816,0.12118 -0.14816,0.16382 0,0.0426 -0.10825,0.2482 -0.24055,0.45681 -0.13229,0.20862 -0.36879,0.67667 -0.52554,1.04011 -0.15675,0.36344 -0.30569,0.67986 -0.33096,0.70314 -0.0253,0.0233 -0.176,0.29951 -0.33494,0.61384 -0.15895,0.31432 -0.3164,0.5715 -0.3499,0.5715 -0.0335,0 -0.16237,0.20739 -0.28638,0.46086 -0.12402,0.25348 -0.33804,0.58135 -0.47561,0.72862 -0.13757,0.14727 -0.25012,0.31569 -0.25012,0.37426 0,0.0586 -0.0866,0.19742 -0.19253,0.30854 -0.10589,0.11113 -0.30458,0.36831 -0.44152,0.57152 -0.13696,0.20322 -0.29797,0.38826 -0.35781,0.41123 -0.0599,0.023 -0.10881,0.0882 -0.10881,0.14494 0,0.0567 -0.0952,0.19266 -0.21167,0.30203 -0.11641,0.10936 -0.21166,0.22857 -0.21166,0.26491 0,0.0363 -0.0857,0.16074 -0.1905,0.27647 -0.10478,0.11573 -0.3429,0.38478 -0.52917,0.59788 -0.49194,0.56283 -2.74821,2.83155 -3.16127,3.17874 -0.19392,0.16298 -0.50195,0.43921 -0.68452,0.61383 -0.18256,0.17463 -0.36349,0.31791 -0.40207,0.31841 -0.0386,8.4e-4 -0.25064,0.16737 -0.47126,0.37085 -0.2206,0.20347 -0.53186,0.432 -0.69169,0.50783 -0.15982,0.0758 -0.30316,0.1713 -0.31855,0.21213 -0.0326,0.0865 -1.67609,1.19428 -1.77178,1.19428 -0.0354,0 -0.11478,0.0502 -0.17631,0.11149 -0.13834,0.13785 -1.42692,0.90202 -1.93702,1.14871 -0.2069,0.10006 -0.51422,0.26704 -0.68292,0.37104 -0.16869,0.104 -0.53064,0.26383 -0.80433,0.35518 -0.27369,0.0913 -0.51666,0.18747 -0.53995,0.21362 -0.0872,0.0979 -0.50524,0.33996 -0.58718,0.33996 -0.0468,0 -0.28771,0.0927 -0.53531,0.20592 -0.2476,0.11325 -0.62972,0.25112 -0.84917,0.30638 -0.21945,0.0553 -0.399,0.12918 -0.399,0.16426 0,0.0351 -0.1524,0.0882 -0.33867,0.11795 -0.18627,0.0298 -0.33867,0.0875 -0.33867,0.12821 0,0.0407 -0.10477,0.0925 -0.23283,0.11496 -0.60658,0.10657 -1.94006,0.41749 -2.055,0.47916 -0.36981,0.19841 -3.23698,0.68449 -4.03749,0.68449 -0.15327,0 -0.27868,0.0381 -0.27868,0.0847 0,0.13537 -6.84028,0.0894 -7.57766,-0.051 z m -95.0708,-10.37128 c -1.52211,-0.16055 -4.73599,-0.91175 -6.09476,-1.42457 -1.0899,-0.41135 -2.29743,-0.97071 -2.37841,-1.10173 -0.0343,-0.0556 0.16042,0.0114 0.43278,0.14873 1.3439,0.67771 4.14389,1.15274 7.39552,1.25467 3.10962,0.0975 5.57096,-0.3612 9.22466,-1.71902 1.75758,-0.65317 3.27326,-1.3612 4.44552,-2.07666 1.44391,-0.88125 3.4484,-2.45931 4.53227,-3.56809 0.53375,-0.54601 1.18622,-1.44296 1.18622,-1.63071 0,-0.0529 -0.45867,-0.25631 -1.01928,-0.45193 -0.56061,-0.19561 -1.17973,-0.42759 -1.37583,-0.51551 l -0.35656,-0.15986 -0.508,0.56372 c -1.66829,1.85127 -3.42253,3.18769 -5.588,4.25706 -2.99113,1.47709 -6.72119,2.21838 -9.85557,1.95864 -0.67967,-0.0563 -1.58288,-0.1754 -2.00713,-0.26462 -0.90586,-0.1905 -2.87177,-0.75909 -3.71596,-1.07474 -0.78587,-0.29385 -2.017,-0.9261 -2.20255,-1.13113 -0.11339,-0.1253 -0.0409,-0.10636 0.30743,0.0804 1.57002,0.84159 4.39037,1.40037 7.01745,1.3903 1.60898,-0.006 2.02874,-0.0697 5.16467,-0.78181 1.71165,-0.38869 2.63539,-0.679 3.9327,-1.23596 2.06055,-0.88462 3.35482,-1.67684 4.45903,-2.72937 0.61363,-0.5849 1.51712,-1.65629 1.51259,-1.79366 -9.3e-4,-0.028 -0.19783,-0.16518 -0.43756,-0.30488 -0.23973,-0.1397 -0.7217,-0.457 -1.07102,-0.70512 -0.76184,-0.5411 -0.66902,-0.56721 -1.88444,0.5301 -1.33943,1.20925 -1.73185,1.52001 -2.40797,1.90686 -1.4271,0.81653 -3.07688,1.3718 -4.95,1.66605 -1.32472,0.20811 -3.65036,0.18873 -4.93011,-0.0411 -1.61058,-0.28923 -4.29383,-1.24385 -4.62287,-1.64469 -0.0649,-0.0791 0.13239,-0.013 0.46566,0.1559 1.10375,0.55945 3.06523,0.90235 5.19265,0.90776 1.42075,0.004 2.07727,-0.0761 3.75842,-0.45604 2.20441,-0.49827 4.35914,-1.37717 5.87343,-2.39573 0.63798,-0.42913 1.57766,-1.35974 1.79768,-1.78034 l 0.12653,-0.24188 -1.4812,-1.43127 c -1.87165,-1.80857 -3.27418,-2.96799 -4.46696,-3.69269 -0.24518,-0.14895 -0.47701,-0.27083 -0.51519,-0.27083 -0.0382,0 -0.3894,0.19435 -0.7805,0.43189 -0.77191,0.46885 -1.43491,0.65875 -2.13998,0.61298 -0.58737,-0.0381 -0.98382,-0.16033 -1.7956,-0.55349 l -0.71518,-0.34637 -0.69856,0.31322 c -0.90262,0.40472 -1.66155,0.85133 -2.81522,1.65668 -5.19303,3.62514 -8.90179,5.92965 -11.85333,7.36534 -1.65534,0.80518 -2.7679,1.04853 -3.24999,0.71087 -0.2256,-0.15802 -0.51307,-0.73727 -0.51582,-1.03939 -10e-4,-0.11217 0.22674,-0.55683 0.50614,-0.98813 0.2794,-0.4313 0.508,-0.8466 0.508,-0.92289 0,-0.0763 -0.15078,-0.45078 -0.33506,-0.8322 -0.94268,-1.95119 -1.78946,-5.53178 -1.94428,-8.2214 -0.32062,-5.56991 1.52212,-11.23594 5.11032,-15.71311 0.77215,-0.96345 2.74835,-2.98287 3.5284,-3.60559 0.69688,-0.55632 1.91513,-1.38974 2.03144,-1.38974 0.0478,0 -0.1953,0.22429 -0.54026,0.49841 -2.08423,1.65626 -3.58534,3.56955 -5.04123,6.42548 -1.09336,2.14477 -1.4011,2.98719 -2.18492,5.98101 -1.46123,5.58119 -1.48063,7.86569 -0.10861,12.79143 0.40867,1.46719 0.77943,2.413 0.94588,2.413 0.0436,0 0.36447,-0.2552 0.71297,-0.5671 0.73168,-0.65485 0.71975,-0.56372 0.23598,-1.80357 -0.90548,-2.3206 -1.34102,-5.73848 -1.06273,-8.33966 0.4826,-4.51092 2.84192,-9.23038 6.0181,-12.03828 1.25791,-1.11206 3.38525,-2.65139 3.66418,-2.65139 0.0417,0 -0.24181,0.2348 -0.63002,0.52178 -1.84711,1.36546 -3.77486,3.72983 -5.0043,6.13774 -2.40789,4.71596 -3.12266,9.68859 -2.03659,14.16848 0.23704,0.97777 0.67565,2.25804 0.79989,2.33482 0.0435,0.0269 0.37333,-0.13937 0.73285,-0.36954 0.35951,-0.23015 0.85746,-0.5214 1.10655,-0.64721 0.33705,-0.17025 0.44151,-0.26521 0.40843,-0.37125 -0.0245,-0.0784 -0.13896,-0.4118 -0.25446,-0.74096 -0.69176,-1.97154 -0.91505,-4.94712 -0.53058,-7.0703 0.42991,-2.37408 1.90733,-5.44012 3.53517,-7.33641 0.84619,-0.98574 2.62142,-2.43937 3.54288,-2.90106 0.45357,-0.22726 0.46231,-0.23759 -0.33867,0.40018 -2.27101,1.80828 -3.70784,4.01856 -4.81166,7.40181 -1.02711,3.14807 -1.17839,5.08799 -0.60972,7.81825 0.16823,0.80769 0.57165,1.98967 0.67909,1.98967 0.0353,0 0.47147,-0.13345 0.96937,-0.29655 0.49791,-0.1631 1.36954,-0.40824 1.93694,-0.54476 1.90823,-0.45909 5.1084,-1.64952 5.99546,-2.23025 l 0.40197,-0.26315 -0.0478,-0.68215 c -0.028,-0.39895 -0.006,-0.88317 0.0531,-1.16639 0.23786,-1.14176 1.02436,-2.16494 2.05373,-2.67169 l 0.56298,-0.27716 0.0346,-0.65411 c 0.0818,-1.5448 -0.0255,-4.71766 -0.24404,-7.21579 -0.16839,-1.92513 -0.26762,-4.86682 -0.2342,-6.94267 0.0353,-2.19346 0.18733,-4.79661 0.30161,-5.16466 0.36874,-1.1876 0.54019,-1.36677 1.30792,-1.36677 0.58244,0 0.71307,0.10719 1.17062,0.96058 0.18219,0.33982 0.36565,0.64101 0.40768,0.66932 0.042,0.0283 0.36868,0.0745 0.72589,0.10273 1.36171,0.10748 3.4693,0.56131 4.92514,1.06053 1.66117,0.56965 2.31306,0.87696 4.47148,2.10797 1.10563,0.63056 1.01173,0.64602 1.66805,-0.2747 0.32088,-0.45013 1.37089,-2.278 1.70228,-2.96333 0.0676,-0.1397 0.21592,-0.4064 0.32971,-0.59267 0.1138,-0.18626 0.27288,-0.47201 0.35351,-0.635 0.0806,-0.16298 0.19083,-0.35348 0.24487,-0.42333 0.054,-0.0699 0.3163,-0.5461 0.58277,-1.05833 0.26648,-0.51224 0.52369,-0.97896 0.57161,-1.03717 0.0479,-0.0582 0.0539,-0.10642 0.0132,-0.10713 -0.0406,-8.4e-4 -0.025,-0.0323 0.0346,-0.0701 0.0931,-0.0591 1.71867,-3.26878 2.36491,-4.66958 0.11822,-0.25629 0.44277,-0.94223 0.72119,-1.52432 0.27844,-0.58208 0.5651,-1.21073 0.63705,-1.397 0.18606,-0.4817 0.2546,-0.5278 0.36671,-0.24661 0.27031,0.67796 0.44644,1.14375 0.62438,1.65125 0.37597,1.07232 2.69621,6.39896 3.51873,8.07803 1.11301,2.27209 2.41279,4.46599 2.96317,5.00151 0.42658,0.41506 0.76036,0.86751 0.76036,1.03071 0,0.0471 -0.12383,0.13515 -0.27517,0.19575 -0.15134,0.0606 -0.66465,0.34144 -1.1407,0.6241 -0.47604,0.28266 -1.03667,0.60918 -1.24586,0.7256 -0.42066,0.23411 -1.52755,0.87932 -1.96085,1.143 -0.15305,0.0931 -0.49955,0.29964 -0.77001,0.45891 -0.27046,0.15926 -0.64415,0.39108 -0.83041,0.51515 -0.78165,0.52065 -2.07515,1.35229 -2.667,1.71471 -0.34925,0.21387 -0.76727,0.50743 -0.92892,0.65234 -0.24898,0.22318 -0.27825,0.28567 -0.19143,0.40852 0.35172,0.49766 1.12344,1.87124 1.51971,2.70491 0.5805,1.22124 1.08983,2.75999 1.5792,4.77098 0.42372,1.74118 0.56478,2.56207 0.55443,3.22637 -0.006,0.38559 -0.0312,0.31114 -0.17708,-0.52417 -0.35892,-2.05469 -1.22905,-4.11401 -2.95138,-6.98506 -0.95513,-1.59214 -1.5859,-2.41427 -1.85028,-2.41162 -0.0751,8.4e-4 -0.57474,0.34723 -1.11025,0.76995 -0.53552,0.42274 -1.04035,0.80446 -1.12184,0.84828 -0.20836,0.11206 -0.18566,0.26367 0.10364,0.69234 0.13849,0.20521 0.3247,0.54049 0.4138,0.74508 0.0891,0.20459 0.2942,0.65772 0.45578,1.00697 0.60878,1.31583 1.07015,2.9854 1.32193,4.78367 0.16494,1.17802 0.30166,2.73239 0.23413,2.66166 -0.0194,-0.0203 -0.11786,-0.45609 -0.21874,-0.96833 -0.41495,-2.10708 -0.74527,-3.14215 -1.48605,-4.65666 -0.69905,-1.42924 -1.81529,-3.25967 -1.9878,-3.25967 -0.0495,0 -0.22575,0.12383 -0.39163,0.27517 -0.16587,0.15134 -0.36488,0.31041 -0.44224,0.35348 -0.21411,0.11923 -1.2256,0.93471 -1.35905,1.0957 -0.10296,0.12419 -0.0694,0.24543 0.2674,0.96567 0.79889,1.70847 1.27893,3.54272 1.36779,5.22631 l 0.0447,0.84667 -0.16185,-0.889 c -0.089,-0.48895 -0.27985,-1.2319 -0.42408,-1.651 -0.29284,-0.85095 -1.42122,-3.17479 -1.71651,-3.53507 l -0.19104,-0.23307 -0.7058,0.54734 c -1.44936,1.124 -2.63034,2.14879 -3.78153,3.28143 -0.65193,0.64143 -1.19052,1.16641 -1.19685,1.16663 -0.006,0 -0.21588,-0.34844 -0.46566,-0.77481 -0.55263,-0.94331 -0.92039,-1.33057 -1.82999,-1.92703 -0.38418,-0.25192 -0.6985,-0.47106 -0.6985,-0.48698 0,-0.0159 0.33709,-0.44671 0.74908,-0.95731 1.285,-1.59253 3.65503,-5.02368 3.65284,-5.28828 -0.001,-0.11684 -1.71733,-1.13673 -2.64287,-1.57046 -0.63749,-0.29873 -1.55073,-0.57678 -1.63074,-0.49649 -0.0161,0.0162 -0.13106,0.48663 -0.25539,1.04543 -0.12433,0.5588 -0.39045,1.64465 -0.59137,2.413 -0.65536,2.50611 -0.97488,4.26402 -0.97488,5.36352 v 0.97201 l 0.37475,0.20945 c 0.64304,0.3594 1.6206,1.14005 1.85974,1.48512 0.40579,0.58555 0.57495,1.16631 0.62277,2.13813 l 0.0442,0.89723 0.89879,0.55751 c 1.35389,0.83979 2.75732,1.58899 6.52912,3.48547 1.88595,0.94827 3.90525,1.99938 4.48734,2.33581 0.58208,0.33642 1.22978,0.7087 1.43933,0.82727 1.44502,0.81767 3.36865,2.21625 4.14107,3.01079 0.35056,0.36059 0.37247,0.41074 0.35801,0.81931 -0.0348,0.98253 -0.42124,1.23056 -1.79671,1.1531 -0.49277,-0.0278 -0.95715,-0.0739 -1.03195,-0.10264 -0.0802,-0.0308 -0.18759,0.0116 -0.26165,0.10303 -0.0691,0.0854 -0.43951,0.55528 -0.8231,1.04423 -0.38359,0.48895 -1.15807,1.34695 -1.72106,1.90667 -3.7855,3.76352 -8.56492,6.05028 -13.79281,6.59929 -1.30941,0.13751 -3.37902,0.1546 -4.49294,0.0371 z m 10.47847,-35.78458 c 0.20837,-0.31433 0.51367,-0.762 0.67843,-0.99484 0.2822,-0.39877 0.38858,-0.71966 0.2386,-0.71966 -0.0368,0 -0.3702,-0.19225 -0.74083,-0.4272 -1.44182,-0.91407 -4.37222,-2.1429 -5.28507,-2.21625 l -0.2932,-0.0236 0.0142,1.27 c 0.008,0.6985 0.0159,1.29394 0.018,1.3232 0.002,0.0293 0.25961,0.11745 0.5722,0.19597 1.13261,0.28451 3.47837,1.42697 4.01373,1.95481 0.11088,0.10933 0.24738,0.20108 0.30333,0.2039 0.0559,0.003 0.27222,-0.25206 0.4806,-0.56638 z m 2.37312,-3.38667 c 0.44872,-0.5647 0.92872,-1.42515 0.85845,-1.53885 -0.0266,-0.0431 -0.64798,-0.41439 -1.38082,-0.82519 -1.56538,-0.87747 -2.85826,-1.41538 -4.52615,-1.8831 -1.19484,-0.33507 -3.25123,-0.74496 -3.33203,-0.66415 -0.0566,0.0566 0.36337,2.10724 0.44751,2.185 0.0368,0.034 0.38202,0.12449 0.76714,0.20107 1.59379,0.31693 2.83858,0.83264 4.9956,2.06966 1.31698,0.75528 1.64595,0.93416 1.72682,0.93901 0.0311,0.002 0.23072,-0.21569 0.44348,-0.48345 z m 84.16655,39.21431 c -0.81959,-0.0802 -1.69371,-0.23725 -2.8347,-0.50928 -4.00053,-0.9538 -7.25629,-2.4601 -9.79443,-4.53144 -1.44711,-1.18097 -3.30307,-3.13037 -4.03905,-4.2424 l -0.26516,-0.40065 -0.98791,-0.002 c -0.54334,-8.5e-4 -1.0474,-0.0244 -1.12012,-0.0523 -0.37408,-0.14355 -0.64695,-1.05753 -0.43696,-1.4636 0.16687,-0.32272 1.49864,-1.48911 2.41799,-2.11773 1.89665,-1.29688 4.28253,-2.62704 8.636,-4.81471 4.64211,-2.33272 5.82405,-2.9596 6.38482,-3.38641 l 0.41582,-0.31648 0.009,-0.84667 c 0.008,-0.76141 0.0376,-0.91325 0.29269,-1.50789 0.41306,-0.96295 0.78264,-1.3856 1.60638,-1.83711 1.07746,-0.59056 0.98844,-0.46004 0.96214,-1.41052 -0.034,-1.22867 -0.3648,-3.0582 -1.06905,-5.91248 -0.34469,-1.397 -0.65119,-2.68288 -0.68112,-2.8575 -0.0299,-0.17463 -0.0865,-0.3175 -0.12582,-0.3175 -0.4051,0 -3.37124,1.26505 -4.1413,1.76626 -0.13543,0.0881 -0.40279,-0.30846 3.15054,4.67343 0.83188,1.16631 1.49863,2.13301 1.48167,2.14824 -0.017,0.0152 -0.22536,0.1254 -0.46312,0.24479 -0.56334,0.28291 -1.60364,1.33529 -2.01462,2.03801 -0.5066,0.86625 -0.45341,0.86825 -1.34469,-0.0504 -0.42922,-0.44242 -1.14234,-1.08048 -1.58472,-1.41792 -1.1357,-0.86631 -3.50285,-2.8599 -3.66476,-3.08644 -0.0426,-0.0596 -0.21823,0.0734 -0.48917,0.3703 -0.82169,0.90038 -1.82971,3.25726 -2.20523,5.15606 -0.0979,0.49502 -0.1973,0.91908 -0.22089,0.94237 -0.0682,0.0673 0.0605,-1.32457 0.1993,-2.15541 0.25287,-1.51338 0.55252,-2.43902 1.27248,-3.93093 l 0.54693,-1.13335 -0.32041,-0.26365 c -0.17623,-0.14502 -0.53105,-0.44912 -0.78851,-0.67579 -0.25744,-0.22667 -0.61513,-0.50601 -0.79487,-0.62077 l -0.3268,-0.20863 -0.25259,0.23976 c -1.47588,1.40094 -2.87063,4.63292 -3.59282,8.32543 -0.2111,1.07936 -0.24894,0.63261 -0.0802,-0.94628 0.12963,-1.2125 0.56196,-3.2659 0.90598,-4.30305 0.10039,-0.30268 0.57741,-1.32259 1.06002,-2.26646 0.48262,-0.94386 0.87749,-1.78548 0.87749,-1.87024 0,-0.0848 -0.0857,-0.19446 -0.1905,-0.24376 -0.10478,-0.0493 -0.4572,-0.31577 -0.78317,-0.59215 -0.58233,-0.49375 -1.24579,-0.95428 -1.37415,-0.95384 -0.12555,8.5e-4 -1.21817,1.36578 -1.74598,2.18177 -0.94147,1.45555 -1.72744,2.83881 -1.98341,3.49068 -0.42669,1.08669 -1.0218,2.96418 -1.24792,3.937 -0.26012,1.11912 -0.29876,1.252 -0.34937,1.20139 -0.1013,-0.1013 0.27849,-2.46194 0.61555,-3.82606 0.51515,-2.08489 0.68583,-2.58684 1.45706,-4.28537 0.73745,-1.62413 0.81824,-1.77786 1.49395,-2.8429 0.257,-0.40508 0.46727,-0.76705 0.46727,-0.80438 0,-0.0669 -2.07921,-1.45647 -3.81,-2.5462 -0.48895,-0.30785 -1.1558,-0.72987 -1.48189,-0.93782 -0.32608,-0.20795 -1.43098,-0.80702 -2.45533,-1.33127 -1.02435,-0.52424 -1.87564,-0.96338 -1.89177,-0.97583 -0.0573,-0.0443 0.49795,-0.7866 0.71772,-0.95948 0.1229,-0.0967 0.18973,-0.17702 0.14853,-0.17857 -0.0412,-0.002 0.009,-0.0727 0.11097,-0.158 0.10224,-0.0853 0.25464,-0.27271 0.33867,-0.41634 0.3841,-0.65659 0.8266,-1.34285 0.96691,-1.49955 0.18825,-0.21026 1.55561,-3.00396 1.54245,-3.15145 -0.005,-0.0582 0.0267,-0.10584 0.0708,-0.10584 0.0442,0 0.0587,-0.0348 0.0324,-0.0774 -0.0263,-0.0426 -0.0142,-0.0902 0.027,-0.10584 0.16433,-0.0623 1.13898,-2.21481 1.8722,-4.13473 0.27962,-0.73218 0.5879,-1.41836 1.14083,-2.53939 0.30643,-0.62126 0.656,-1.4466 0.77681,-1.8341 0.12082,-0.3875 0.25225,-0.68441 0.29208,-0.65979 0.12934,0.0799 0.84456,1.45604 1.52484,2.93385 0.74603,1.62063 2.62152,5.23433 3.55033,6.84077 0.33655,0.58208 0.66979,1.17263 0.74055,1.31233 0.0708,0.1397 0.17528,0.31115 0.23227,0.381 0.057,0.0699 0.20784,0.3175 0.33519,0.55033 0.12736,0.23284 0.36718,0.67099 0.53294,0.97367 0.16576,0.30268 0.53014,0.90276 0.80973,1.3335 0.52457,0.80817 0.69148,0.92127 0.98106,0.66476 0.32065,-0.28405 2.22958,-1.2417 3.36406,-1.68764 1.76389,-0.69335 4.37924,-1.31186 6.33693,-1.49866 0.5588,-0.0533 1.02187,-0.10309 1.02904,-0.11061 0.007,-0.008 0.16158,-0.29683 0.34314,-0.64289 0.41569,-0.79231 0.62327,-0.95465 1.21483,-0.95006 0.76633,0.006 1.01344,0.33273 1.29741,1.71572 0.3186,1.55168 0.39294,6.98251 0.14067,10.27755 -0.37494,4.89751 -0.48204,7.40604 -0.37185,8.70962 l 0.0549,0.64951 0.51434,0.27343 c 0.79046,0.42023 1.49827,1.13027 1.81782,1.82354 0.24804,0.53814 0.27125,0.66518 0.29836,1.63338 l 0.0294,1.04985 0.50218,0.34274 c 0.78107,0.53307 1.94468,0.99937 4.01278,1.60806 1.04592,0.30783 2.33981,0.69023 2.87533,0.84977 1.56687,0.4668 1.44039,0.48091 1.72543,-0.19252 0.72815,-1.72031 0.83248,-4.5101 0.26379,-7.05305 -0.29902,-1.33711 -1.00766,-3.37769 -1.60638,-4.62575 -0.9578,-1.99661 -1.8714,-3.17381 -3.55784,-4.58443 -0.74333,-0.62176 -1.11978,-1.03964 -0.54312,-0.6029 0.15901,0.12043 0.74632,0.54466 1.30512,0.94273 0.95034,0.677 2.04971,1.6956 2.67447,2.47802 0.51015,0.63887 1.33009,1.94785 1.75017,2.794 0.96833,1.95042 1.39955,3.62762 1.51292,5.88433 0.0707,1.40718 -0.0701,2.61669 -0.49283,4.23295 -0.18883,0.722 -0.35919,1.38892 -0.3786,1.48205 -0.0288,0.13813 0.0763,0.22393 0.56997,0.46567 0.33288,0.16298 0.83843,0.43865 1.12343,0.61261 0.40613,0.24788 0.53921,0.29365 0.61535,0.21167 0.0534,-0.0575 0.23757,-0.60428 0.40919,-1.21497 1.16781,-4.15542 1.07387,-6.89792 -0.3875,-11.3123 -1.11419,-3.36569 -1.83193,-4.74296 -3.77521,-7.2443 -0.3188,-0.41035 -0.97271,-1.07027 -1.57522,-1.58969 -0.56657,-0.48845 -1.20159,-1.04113 -1.41114,-1.22817 l -0.381,-0.34008 0.381,0.22737 c 0.20955,0.12505 0.9525,0.62984 1.651,1.12175 2.53,1.78173 4.42463,4.02282 5.84398,6.91266 1.26772,2.58109 1.83619,4.80134 1.95775,7.64628 0.10137,2.3723 -0.17269,4.14633 -1.06353,6.88454 -0.19023,0.58472 -0.34587,1.09818 -0.34587,1.14102 0,0.0778 1.3014,1.21961 1.39007,1.21961 0.0984,0 0.54772,-1.00747 0.79304,-1.778 0.65005,-2.04177 0.97867,-4.16696 0.98189,-6.35 0.002,-1.39375 -0.0279,-1.73892 -0.27199,-3.13267 -0.15087,-0.86148 -0.38507,-1.98543 -0.52045,-2.49767 -0.13539,-0.51223 -0.34426,-1.31233 -0.46417,-1.778 -0.29252,-1.13597 -0.7542,-2.53423 -1.16015,-3.51366 -0.69841,-1.68508 -1.97933,-3.914 -2.99237,-5.207 -0.53628,-0.6845 -2.53184,-2.69071 -3.10368,-3.12025 -0.17058,-0.12813 -0.33253,-0.29132 -0.35991,-0.36264 -0.0392,-0.10215 -0.007,-0.0967 0.14967,0.0256 0.10968,0.0854 0.82409,0.62849 1.58757,1.20686 1.5632,1.1842 2.61643,2.16616 3.4581,3.22408 3.15167,3.96144 4.82055,8.00079 5.38702,13.03867 0.38036,3.38274 -0.17058,7.39245 -1.40435,10.22085 -0.22789,0.52242 -0.45656,1.10666 -0.50817,1.29831 -0.0922,0.34246 -0.0864,0.35862 0.33598,0.93755 0.59057,0.80942 0.93523,1.44108 0.93523,1.71401 0,0.28197 -0.25612,0.7994 -0.50833,1.02695 -0.59193,0.53402 -2.74367,-0.26688 -5.98398,-2.22732 -1.63721,-0.99054 -2.5243,-1.55856 -6.46169,-4.13751 -2.55491,-1.67345 -3.92104,-2.51135 -5.35153,-3.28231 l -0.73721,-0.3973 -0.74814,0.29932 c -1.14665,0.45877 -1.73969,0.58671 -2.48396,0.53588 -0.7211,-0.0493 -1.41504,-0.32686 -1.91556,-0.76632 l -0.2968,-0.26059 -0.43732,0.22896 c -0.53537,0.28031 -1.71806,1.16136 -3.01547,2.2464 -1.10223,0.9218 -3.03256,2.82301 -3.20397,3.15562 -0.10883,0.2112 -0.0945,0.23853 0.33867,0.64796 2.13001,2.01307 4.37935,3.12675 7.64896,3.78712 1.56543,0.31617 3.06184,0.42133 4.2553,0.29905 1.2873,-0.13189 3.06623,-0.5806 4.19935,-1.05924 0.17966,-0.0759 0.34359,-0.12104 0.36429,-0.10034 0.10924,0.10924 -1.28219,0.77437 -2.51127,1.20044 -1.78721,0.61955 -3.65473,0.85686 -5.6373,0.71636 -2.17131,-0.15389 -3.61582,-0.51313 -5.3497,-1.33044 -0.96593,-0.45532 -3.0366,-1.88283 -3.70267,-2.55261 -0.32596,-0.32777 -0.64283,-0.5972 -0.70415,-0.59872 -0.0613,-0.002 -0.23276,0.0886 -0.381,0.20019 -0.14823,0.11162 -0.60517,0.40019 -1.01541,0.64127 -0.41025,0.24108 -0.76436,0.48646 -0.78694,0.54528 -0.0721,0.18781 2.21486,2.29808 3.25544,3.00396 2.36439,1.60389 6.3192,2.9205 9.96139,3.31628 2.6927,0.2926 6.02501,-0.26581 8.88272,-1.4885 0.11644,-0.0498 0.14446,-0.0409 0.0995,0.0318 -0.1708,0.27636 -2.64026,1.32378 -4.13613,1.75433 -1.81475,0.52235 -2.88098,0.66044 -5.14246,0.66603 -2.09896,0.005 -2.78379,-0.0609 -4.47449,-0.43162 -1.75549,-0.38495 -3.72165,-1.1637 -5.21984,-2.06746 -1.33685,-0.80641 -3.32904,-2.44521 -4.28017,-3.52088 -0.30115,-0.34058 -0.50523,-0.50508 -0.58817,-0.47408 -0.0699,0.0261 -0.69271,0.23887 -1.38415,0.47281 -0.69143,0.23392 -1.27671,0.47629 -1.30061,0.53859 -0.0718,0.18715 1.9364,2.41165 2.92025,3.23473 0.69334,0.58005 2.42545,1.73925 3.44751,2.30723 1.38083,0.76735 3.04018,1.43763 4.67109,1.88682 0.41118,0.11325 1.27524,0.35936 1.92016,0.5469 2.76398,0.80378 5.66731,1.15854 7.75052,0.94703 1.57658,-0.16007 4.02896,-0.69039 5.51732,-1.1931 0.8539,-0.2884 0.95599,-0.3059 0.68743,-0.11779 -0.52144,0.36523 -3.33499,1.43573 -4.62918,1.76131 -1.91777,0.48245 -3.23219,0.65082 -5.334,0.68328 -1.02447,0.0158 -2.01507,0.0139 -2.20134,-0.004 z m -5.24731,-35.85072 c 0.39038,-0.36674 2.12353,-1.15257 3.36347,-1.52504 l 1.24883,-0.37514 v -1.29262 -1.29262 l -0.23283,0.002 c -0.7169,0.006 -2.50195,0.56101 -3.6751,1.14341 -1.01895,0.50584 -2.52489,1.348 -2.52584,1.41252 -8.5e-4,0.033 0.23723,0.37699 0.52828,0.76434 0.29104,0.38734 0.6045,0.84608 0.69658,1.01941 0.18943,0.35658 0.3333,0.39128 0.59661,0.14391 z m -2.01098,-3.6317 c 0.35986,-0.18239 0.99718,-0.5256 1.41628,-0.76266 1.10225,-0.62351 2.07963,-0.97514 3.84917,-1.38479 l 1.56316,-0.36187 0.1851,-0.92903 c 0.1018,-0.51097 0.21208,-0.99571 0.24506,-1.07721 0.0671,-0.16591 0.0577,-0.16815 -0.63549,-0.15123 -1.2404,0.0303 -3.05452,0.44803 -4.62888,1.06587 -1.31139,0.51464 -4.00712,1.89482 -4.00712,2.0516 0,0.13847 1.19435,1.87284 1.29305,1.87771 0.036,0.002 0.35981,-0.146 0.71967,-0.32839 z m -51.71205,-2.68454 c -4.11414,-0.55562 -6.3124,-2.34022 -8.66676,-7.03586 -0.81649,-1.62845 -3.43912,-7.63246 -4.54735,-10.41031 -0.22842,-0.57255 -0.62174,-1.50818 -0.87403,-2.07917 -0.70312,-1.59129 -2.33719,-5.92713 -2.33719,-6.20149 0,-0.11052 0.24114,-0.12835 1.73566,-0.12835 1.56017,0 1.73567,-0.0142 1.73567,-0.14044 0,-0.17169 -2.589,-15.282301 -2.71394,-15.839791 -0.15012,-0.66988 -0.75739,-4.25742 -0.75739,-4.47441 v -0.20403 h 1.524 c 1.30021,0 1.524,-0.0187 1.524,-0.12737 0,-0.13523 -1.41839,-9.888435 -1.47402,-10.135782 -0.0293,-0.130266 0.004,-0.126869 0.3161,0.03247 0.83215,0.424532 14.50038,7.880478 14.56981,7.947763 0.0862,0.08349 1.99875,11.445489 1.92038,11.408289 -0.0275,-0.013 -1.47869,-0.73395 -3.22494,-1.60202 -2.87597,-1.42967 -5.44651,-2.67058 -7.08549,-3.42044 l -0.60849,-0.27841 -0.33718,0.56755 c -0.44024,0.74105 -0.79522,1.54935 -0.71264,1.62273 0.036,0.032 1.41802,1.08008 3.07113,2.3291 1.65312,1.24902 3.47085,2.626451 4.03942,3.060971 l 1.03373,0.79002 0.0296,11.44974 c 0.0287,11.1172 0.0348,11.48538 0.20805,12.67739 0.4068,2.79832 0.91705,4.59822 1.78609,6.30044 0.48121,0.94257 1.11669,1.79682 2.14681,2.88589 0.44045,0.46567 0.82562,0.91335 0.85592,0.99484 0.0509,0.13684 -0.0337,0.1475 -1.10642,0.13945 -0.63883,-0.005 -1.56156,-0.0627 -2.05051,-0.12877 z m 22.098,0.0423 c 0,-0.067 0.2324,-0.34923 0.51645,-0.62717 0.63106,-0.6175 1.65127,-1.94268 2.17011,-2.81879 1.17417,-1.98274 1.92186,-4.7946 2.22151,-8.35456 0.0517,-0.61436 0.0859,-5.25002 0.0864,-11.72634 l 8.5e-4,-10.71035 2.26483,-1.70495 c 5.39953,-4.064701 6.11717,-4.610371 6.11717,-4.651211 0,-0.0567 -0.59796,-1.24956 -0.85601,-1.70762 -0.11128,-0.19752 -0.24682,-0.35945 -0.3012,-0.35984 -0.0544,0 -0.28298,0.0916 -0.508,0.20435 -0.22502,0.11278 -0.77107,0.3732 -1.21346,0.57871 -1.89893,0.88217 -3.10217,1.46469 -6.096,2.95126 -1.74625,0.86709 -3.18376,1.56964 -3.19447,1.56123 -0.0325,-0.0256 1.91142,-11.492073 1.95582,-11.536472 0.0681,-0.06811 14.9107,-8.138164 14.93166,-8.118481 0.018,0.01691 -1.3526,9.581936 -1.45999,10.188873 l -0.0487,0.27517 h 1.53456 1.53457 l -0.048,0.23283 c -0.0264,0.12806 -0.7919,4.67149 -1.70117,10.0965 -0.90927,5.425021 -1.6748,9.968451 -1.70118,10.096501 l -0.0479,0.23284 h 1.74239 c 1.45303,0 1.74239,0.0201 1.74239,0.12086 0,0.43243 -4.59269,11.728 -6.5631,16.14174 -2.33965,5.24081 -3.93405,7.39726 -6.34834,8.58623 -1.44319,0.71072 -2.94698,1.02911 -5.27072,1.11594 -1.23945,0.0463 -1.4605,0.0361 -1.4605,-0.0673 z M 96.82844,122.77223 c 0.0194,-0.0175 1.45548,-1.00811 3.19128,-2.20134 l 3.15601,-2.16952 h 6.27237 6.27237 l 2.63662,1.79729 c 1.45014,0.98852 2.90059,1.97912 3.22321,2.20134 l 0.58657,0.40403 h -12.68685 c -6.97777,0 -12.67098,-0.0143 -12.65158,-0.0318 z m 24.60978,-1.66989 -1.24883,-0.84817 v -7.73824 -7.73825 l 1.24883,-0.93204 1.24883,-0.93204 0.0219,4.78707 c 0.012,2.63289 0.012,6.91619 0,9.51845 l -0.0219,4.7314 z m -25.12484,-8.74759 c 0,-5.24262 0.0202,-9.53205 0.045,-9.53205 0.0247,0 0.61529,0.42627 1.31234,0.94727 l 1.26736,0.94727 -0.003,7.7099 -0.003,7.70989 -1.2432,0.84667 c -0.68377,0.46567 -1.27301,0.85937 -1.30944,0.87489 -0.0364,0.0155 -0.0662,-4.2612 -0.0662,-9.50384 z m 21.29367,6.13096 -1.35466,-0.93056 h -6.8034 -6.80338 l -1.22685,0.85271 c -0.67476,0.469 -1.24249,0.83707 -1.26162,0.81794 -0.0191,-0.0191 -0.025,-3.08948 -0.0131,-6.82301 l 0.0217,-6.78823 0.92431,0.67863 c 0.50838,0.37324 0.95605,0.67863 0.99484,0.67863 0.0848,0 0.0901,-1.664 0.0143,-4.51581 l -0.0559,-2.10282 -0.95992,-0.477811 -0.95991,-0.47783 V 74.609686 49.821815 h 9.44033 9.44033 V 74.62567 99.429519 l -0.91773,0.46943 -0.91771,0.469431 -0.0558,2.34922 c -0.071,2.98983 -0.0709,4.25422 0,4.25422 0.031,0 0.45478,-0.28747 0.94163,-0.63882 0.48685,-0.35135 0.89983,-0.62417 0.91773,-0.60627 0.0179,0.0179 0.0228,3.10547 0.0109,6.86126 l -0.0217,6.82873 -1.35467,-0.93056 z m -20.71069,-37.930343 -1.99844,-11.938 h 2.02007 2.02006 v 11.938 c 0,6.5659 -0.01,11.938002 -0.0216,11.938002 -0.0119,0 -0.92092,-5.372102 -2.02006,-11.938002 z m 23.30188,-0.02117 -0.009,-11.916833 h 2.0153 2.01531 l -1.59284,9.503833 c -0.87606,5.227108 -1.77897,10.589683 -2.00645,11.916832 l -0.4136,2.413 z m -31.02251,0.914154 c -4.04213,-2.203525 -7.36308,-4.020264 -7.37989,-4.037198 -0.0168,-0.01693 -0.13219,-0.735639 -0.25639,-1.597123 -0.12419,-0.861483 -0.24658,-1.671337 -0.27196,-1.799675 l -0.0461,-0.233343 6.75956,0.02168 6.75956,0.02168 0.95055,5.672666 c 0.5228,3.119967 0.95291,5.739342 0.95579,5.820834 0.003,0.08149 -0.0233,0.145626 -0.0583,0.142528 -0.0349,-0.0031 -3.3707,-1.808517 -7.41282,-4.012041 z m 33.30391,3.824326 c 0.002,-0.103209 0.43147,-2.721297 0.95362,-5.81798 l 0.94936,-5.630333 6.75105,-0.02167 c 3.71307,-0.01192 6.75,0.0071 6.74872,0.04233 -0.013,0.356252 -0.51035,3.446401 -0.56296,3.497512 -0.0383,0.03726 -3.27011,1.807581 -7.18171,3.934057 -3.9116,2.126475 -7.23583,3.937733 -7.38717,4.025024 l -0.27516,0.158699 0.004,-0.187638 z M 58.25572,82.960186 c -0.18627,-0.01716 -0.87197,-0.07312 -1.52378,-0.124357 -0.6518,-0.05123 -1.2233,-0.123852 -1.27,-0.161376 -0.0467,-0.03752 -0.33254,-0.0961 -0.63522,-0.130172 -0.30269,-0.03407 -0.56939,-0.08799 -0.59267,-0.119833 -0.0233,-0.03184 -0.51561,-0.14336 -1.09407,-0.247825 -0.57845,-0.104465 -1.09213,-0.214905 -1.14151,-0.245421 -0.0494,-0.03052 -0.16062,-0.0607 -0.24721,-0.06708 -0.0866,-0.0064 -0.18251,-0.05139 -0.21316,-0.100031 -0.0306,-0.04864 -0.30337,-0.150644 -0.60605,-0.226679 -1.17168,-0.29433 -4.67715,-1.893787 -6.68867,-3.051867 -1.67213,-0.962693 -3.84033,-2.400202 -4.11565,-2.728667 -0.0517,-0.06167 -0.23005,-0.204468 -0.39637,-0.317332 -0.63217,-0.429002 -2.14176,-1.871596 -2.75338,-2.631175 -0.26247,-0.325967 -0.76395,-0.879612 -1.11441,-1.230324 -0.8341,-0.834716 -1.10285,-1.136252 -1.10285,-1.237391 0,-0.04562 -0.1169,-0.194841 -0.25977,-0.331612 -0.14287,-0.13677 -0.37941,-0.458223 -0.52563,-0.71434 -0.14623,-0.256117 -0.43891,-0.688807 -0.65041,-0.961533 -0.38409,-0.495302 -0.7198,-1.000017 -0.82464,-1.2398 -0.0305,-0.06985 -0.082,-0.14605 -0.11429,-0.169334 -0.0323,-0.02328 -0.1767,-0.276861 -0.32086,-0.563505 -0.144157,-0.286645 -0.293113,-0.534295 -0.331015,-0.550334 -0.0379,-0.01604 -0.195561,-0.314911 -0.350354,-0.664161 -0.154794,-0.34925 -0.307529,-0.65405 -0.339412,-0.677333 -0.07794,-0.05692 -0.516956,-1.054559 -0.516956,-1.174754 0,-0.05239 -0.04035,-0.09525 -0.08966,-0.09525 -0.04931,0 -0.06612,-0.0381 -0.03734,-0.08467 0.02878,-0.04657 0.01198,-0.08467 -0.03734,-0.08467 -0.04931,0 -0.08966,-0.06892 -0.08966,-0.153151 0,-0.08423 -0.05594,-0.227108 -0.124308,-0.3175 -0.06837,-0.09039 -0.125518,-0.222968 -0.127,-0.294614 -0.0015,-0.07165 -0.07766,-0.277305 -0.169283,-0.457022 -0.09163,-0.179717 -0.148537,-0.355969 -0.126473,-0.391671 0.02207,-0.0357 0.0085,-0.07769 -0.03003,-0.09331 -0.07535,-0.0305 -0.464688,-1.222689 -0.603747,-1.848731 -0.04655,-0.20955 -0.162464,-0.6477 -0.257595,-0.973667 -0.382356,-1.310137 -0.849501,-3.903968 -0.931715,-5.173365 -0.105081,-1.622454 -0.105081,-5.554342 1e-6,-7.187968 0.09539,-1.483045 0.318159,-3.206352 0.41915,-3.24256 0.0387,-0.01387 0.04989,-0.103499 0.02487,-0.199167 -0.02502,-0.09567 -0.0032,-0.200097 0.04857,-0.232068 0.05173,-0.03197 0.190554,-0.532896 0.3085,-1.113166 0.117945,-0.580272 0.246997,-1.065894 0.286782,-1.07916 0.03978,-0.01327 0.05438,-0.118041 0.03244,-0.232833 -0.02194,-0.114792 -0.0045,-0.208713 0.03874,-0.208713 0.04325,0 0.189192,-0.36195 0.324312,-0.804333 0.135118,-0.442384 0.277871,-0.804334 0.317227,-0.804334 0.03936,0 0.05046,-0.03413 0.02467,-0.07585 -0.02578,-0.04172 0.0098,-0.184596 0.07915,-0.3175 0.06932,-0.132905 0.126264,-0.270111 0.126551,-0.304904 0.0011,-0.130483 1.447404,-3.123391 1.911149,-3.954771 0.664796,-1.191818 1.532926,-2.539354 2.224846,-3.453486 0.26337,-0.347953 0.53988,-0.724691 0.61446,-0.837196 0.0746,-0.112505 0.19742,-0.270269 0.27297,-0.350587 0.0756,-0.08032 0.2616,-0.298435 0.41344,-0.484702 1.07298,-1.316311 3.48076,-3.740531 4.23369,-4.262592 0.1065,-0.07384 0.3233,-0.259396 0.48179,-0.412335 0.15848,-0.15294 0.32543,-0.278073 0.371,-0.278073 0.0456,0 0.20861,-0.13335 0.36233,-0.296333 0.15371,-0.162983 0.3169,-0.296333 0.36264,-0.296333 0.0457,0 0.17212,-0.07611 0.28085,-0.169141 0.31976,-0.273579 0.77896,-0.589309 0.93852,-0.645291 0.0815,-0.02859 0.14817,-0.08778 0.14817,-0.131537 0,-0.04375 0.17465,-0.156808 0.3881,-0.25123 0.21346,-0.09442 0.46149,-0.245057 0.55117,-0.334741 0.16407,-0.164067 0.72235,-0.47486 2.36273,-1.315334 0.48895,-0.250521 0.93336,-0.491876 0.98759,-0.536344 0.0542,-0.04447 0.19709,-0.105576 0.3175,-0.135795 0.1204,-0.03022 0.21891,-0.08478 0.21891,-0.121254 0,-0.03647 0.10478,-0.09126 0.23283,-0.121745 0.42011,-0.100022 1.37584,-0.484249 1.37584,-0.55312 0,-0.03707 0.0857,-0.08573 0.1905,-0.10813 0.56451,-0.120712 1.97442,-0.522441 2.01083,-0.572952 0.0233,-0.0323 0.64186,-0.198365 1.37462,-0.369028 0.73276,-0.170663 1.43057,-0.347661 1.55068,-0.393327 0.12012,-0.04567 0.31168,-0.08303 0.42569,-0.08303 0.11402,0 0.27347,-0.03823 0.35433,-0.08494 0.13265,-0.07665 0.58524,-0.139741 3.11035,-0.433603 0.94959,-0.110512 3.86199,-0.03962 5.63033,0.137058 2.28508,0.2283 5.04489,0.734798 6.731,1.235317 1.1173,0.331667 2.20142,0.692577 2.413,0.8033 0.11642,0.06092 0.46884,0.192347 0.78317,0.292056 0.31432,0.09971 0.5715,0.216281 0.5715,0.259051 0,0.04277 0.0667,0.07791 0.14816,0.07808 0.0815,1.7e-4 0.26338,0.07058 0.4042,0.156452 0.14082,0.08587 0.40752,0.206032 0.59267,0.267016 0.18515,0.06098 0.37473,0.156572 0.4213,0.212417 0.0466,0.05585 0.25392,0.166771 0.4608,0.246502 0.20686,0.07973 0.43546,0.211298 0.508,0.292371 0.0725,0.08107 0.38904,0.258376 0.70337,0.394006 0.31432,0.13563 0.5715,0.288769 0.5715,0.340308 0,0.05154 0.25716,0.222936 0.57148,0.380881 0.31432,0.157945 0.67499,0.393048 0.80148,0.522451 0.1265,0.129404 0.28443,0.23528 0.35096,0.23528 0.0665,0 0.21069,0.09459 0.32035,0.210203 0.10967,0.115613 0.23749,0.211881 0.28406,0.213931 0.0466,0.002 0.24985,0.155108 0.45176,0.340129 0.20189,0.185022 0.39239,0.337699 0.42333,0.339282 0.0309,0.0016 0.26579,0.192294 0.52191,0.423802 0.25612,0.231507 0.52655,0.440491 0.60096,0.464409 0.0744,0.02392 0.25719,0.195157 0.40617,0.380532 0.14897,0.185375 0.30988,0.337045 0.35757,0.337045 0.18997,0 3.3701,3.406446 3.77646,4.04523 0.0806,0.12674 0.16799,0.249487 0.19414,0.27277 0.15265,0.135931 1.79132,2.482758 1.86033,2.664289 0.0457,0.120294 0.13943,0.24031 0.20821,0.266703 0.0688,0.02639 0.15111,0.13019 0.18297,0.230663 0.0319,0.100473 0.14545,0.321367 0.25242,0.490877 0.10697,0.169509 0.17124,0.331434 0.14285,0.359833 -0.0284,0.0284 -0.01,0.05164 0.041,0.05164 0.0509,0 0.19576,0.219075 0.32182,0.486833 0.12606,0.267759 0.25789,0.505884 0.29297,0.529167 0.0351,0.02328 0.167,0.289983 0.29318,0.592667 0.12618,0.302683 0.29621,0.664633 0.37784,0.804333 0.0816,0.1397 0.27276,0.61595 0.42475,1.058333 0.15199,0.442384 0.34298,0.956734 0.42441,1.143 0.0814,0.186267 0.17407,0.481542 0.20584,0.656167 0.0318,0.174625 0.0942,0.3175 0.13862,0.3175 0.0445,0 0.0808,0.09525 0.0808,0.211667 0,0.116416 0.0422,0.211666 0.0937,0.211666 0.0515,0 0.0718,0.05715 0.045,0.127 -0.0268,0.06985 -0.0178,0.127 0.0201,0.127 0.0379,0 0.15396,0.466725 0.25799,1.037167 0.10404,0.570442 0.29919,1.387603 0.43368,1.815913 0.1634,0.520426 0.2906,1.208509 0.38345,2.074333 0.0764,0.712574 0.17692,1.376731 0.22335,1.475906 0.0464,0.09918 0.0709,0.375424 0.0544,0.613886 -0.0165,0.238462 0.003,0.433543 0.044,0.433514 0.10624,-7.5e-5 0.0245,6.092171 -0.0827,6.165011 -0.0469,0.03187 -0.13331,0.553237 -0.19201,1.158604 -0.0587,0.605366 -0.14308,1.291166 -0.1875,1.524 -0.17093,0.896109 -0.27607,1.312333 -0.33149,1.312333 -0.0317,0 -0.10666,0.276225 -0.16663,0.613833 -0.16507,0.929214 -0.32115,1.49309 -0.56762,2.050768 -0.1229,0.278081 -0.3115,0.811481 -0.4191,1.185334 -0.35265,1.225262 -0.71258,2.198805 -0.83911,2.269612 -0.0683,0.03824 -0.12424,0.120409 -0.12424,0.182589 0,0.06218 -0.0978,0.17712 -0.21728,0.255419 -0.20654,0.13533 -0.23478,0.133262 -0.5715,-0.04186 -0.19482,-0.101321 -0.37327,-0.208628 -0.39656,-0.23846 -0.0745,-0.09547 -1.34919,-0.762125 -3.048,-1.594107 -1.45696,-0.713538 -1.93883,-1.018119 -1.94545,-1.229667 -0.001,-0.03311 0.0712,-0.128361 0.16046,-0.211666 0.0893,-0.08331 0.25819,-0.342438 0.37534,-0.575849 0.23513,-0.468433 0.90066,-2.45271 0.90127,-2.687117 0,-0.08149 0.0407,-0.148166 0.09,-0.148166 0.0493,0 0.0671,-0.03655 0.0395,-0.08122 -0.0276,-0.04467 -0.0143,-0.149447 0.0297,-0.232833 0.23515,-0.446286 0.71225,-2.655082 0.85572,-3.961611 0.18978,-1.728331 0.0682,-6.53958 -0.18137,-7.174912 -0.0502,-0.127735 -0.0712,-0.30871 -0.0468,-0.402167 0.0244,-0.09346 0.0148,-0.169921 -0.0214,-0.169921 -0.0362,0 -0.0919,-0.200025 -0.12377,-0.4445 -0.16987,-1.303226 -0.8185,-3.707829 -1.41028,-5.228167 -0.55511,-1.426178 -1.64482,-3.289436 -2.95103,-5.045865 -0.2804,-0.377043 -0.56164,-0.785422 -0.62498,-0.907509 -0.0633,-0.122086 -0.21791,-0.327947 -0.34348,-0.457467 -0.12558,-0.129521 -0.57634,-0.635542 -1.00168,-1.124492 -1.55379,-1.786147 -3.29856,-3.358243 -4.98737,-4.493798 -0.75575,-0.508163 -2.97836,-1.684096 -3.18655,-1.685934 -0.0582,-5.08e-4 -0.10584,-0.03903 -0.10584,-0.0856 0,-0.04657 -0.0451,-0.08467 -0.10027,-0.08467 -0.0551,0 -0.25516,-0.07243 -0.4445,-0.160956 -1.54853,-0.72407 -2.00622,-0.898287 -3.05137,-1.161486 -0.65164,-0.164104 -1.22428,-0.33113 -1.27252,-0.371168 -0.12825,-0.106436 -1.37833,-0.326603 -2.49734,-0.439834 -0.53551,-0.05419 -0.99271,-0.123706 -1.016,-0.154483 -0.0233,-0.03078 -0.56716,-0.105948 -1.20861,-0.167048 -1.32592,-0.126297 -3.6495,-0.0726 -5.01439,0.115873 -1.36258,0.188158 -3.21025,0.56849 -3.302,0.679698 -0.0774,0.09378 -0.41264,0.183015 -1.97982,0.526937 -0.29727,0.06524 -0.75447,0.229264 -1.016,0.364506 -0.26153,0.135242 -0.61838,0.290114 -0.79301,0.34416 -0.17462,0.05405 -0.3175,0.12865 -0.3175,0.165784 0,0.03713 -0.10971,0.08946 -0.24379,0.116276 -0.13409,0.02682 -0.29639,0.101353 -0.36068,0.165636 -0.0643,0.06428 -0.21861,0.142411 -0.34295,0.173618 -0.12434,0.03121 -0.27636,0.106744 -0.33782,0.167859 -0.0615,0.06111 -0.31012,0.182285 -0.55256,0.269268 -0.24244,0.08698 -0.52997,0.240828 -0.63894,0.341877 -0.10898,0.101048 -0.45354,0.305617 -0.7657,0.454595 -0.31216,0.14898 -0.56756,0.304229 -0.56756,0.344999 0,0.04077 -0.20526,0.191569 -0.45614,0.335107 -2.21999,1.270149 -4.46064,3.489325 -6.75891,6.694115 -1.13979,1.589382 -2.17719,3.373954 -2.43629,4.191 -0.0591,0.186267 -0.14519,0.386292 -0.19139,0.4445 -0.0462,0.05821 -0.0508,0.106417 -0.0101,0.10713 0.0406,6.77e-4 0.0329,0.02929 -0.0172,0.0635 -0.0501,0.03421 -0.21468,0.452729 -0.36582,0.930037 -0.15113,0.477308 -0.30549,0.867833 -0.34301,0.867833 -0.0375,0 -0.14689,0.295275 -0.24305,0.656167 -0.0962,0.360892 -0.31024,1.094317 -0.47572,1.629833 -0.42931,1.389328 -0.56094,2.178479 -0.56138,3.3655 -2.6e-4,0.570442 -0.0314,1.037167 -0.0692,1.037167 -0.0764,0 -0.20726,1.821523 -0.21588,3.005667 -0.004,0.523067 0.0438,0.915826 0.15167,1.252582 0.0865,0.269821 0.1407,0.603196 0.1205,0.740833 -0.0202,0.137639 -0.011,0.250251 0.0204,0.250251 0.0314,0 0.081,0.390742 0.11027,0.868316 0.0362,0.591597 0.13346,1.135876 0.30519,1.707893 0.13864,0.461768 0.23459,0.867871 0.21322,0.902453 -0.0214,0.03458 -0.007,0.07565 0.0327,0.09127 0.0394,0.01562 0.17803,0.485598 0.30818,1.044398 0.13014,0.5588 0.3223,1.1684 0.42701,1.354666 0.10472,0.186267 0.25917,0.567267 0.34323,0.846667 0.0841,0.2794 0.19332,0.535992 0.24279,0.570204 0.0552,0.0382 0.0573,0.0632 0.005,0.0648 -0.0466,0.0014 -0.0408,0.03058 0.0129,0.0648 0.11246,0.07168 0.53741,0.999536 0.53741,1.173406 0,0.06405 0.0404,0.116465 0.0897,0.116465 0.0493,0 0.0661,0.0381 0.0373,0.08467 -0.0288,0.04657 -0.0199,0.08467 0.0197,0.08467 0.0396,0 0.13169,0.123825 0.20461,0.275167 0.62025,1.287201 1.56083,2.828135 2.37216,3.886252 0.57877,0.754817 3.09105,3.334005 3.713,3.811885 0.16199,0.124467 0.48503,0.400095 0.71786,0.612506 0.23284,0.21241 0.47096,0.386798 0.52917,0.387528 0.0582,7.62e-4 0.10583,0.03297 0.10583,0.07164 0,0.03867 0.18098,0.199068 0.40217,0.356434 0.22119,0.157367 0.41592,0.319394 0.43274,0.360059 0.0168,0.04067 0.18826,0.142796 0.381,0.226957 0.19273,0.08416 0.42663,0.225081 0.51976,0.313156 0.21755,0.205732 0.68103,0.478496 1.05833,0.622835 0.16299,0.06235 0.3876,0.20196 0.49915,0.310242 0.11155,0.108283 0.30205,0.225106 0.42334,0.259606 0.12128,0.0345 0.58246,0.2808 1.02485,0.547331 1.04139,0.627425 2.20866,1.060321 4.14866,1.538578 1.87228,0.461558 3.53692,0.688456 6.07518,0.828065 2.99276,0.164608 5.46405,-0.0553 7.25982,-0.646018 0.46567,-0.15318 1.14195,-0.347512 1.50284,-0.431849 0.36089,-0.08434 0.65616,-0.180232 0.65616,-0.213102 0,-0.03287 0.13335,-0.08478 0.29634,-0.115355 0.16298,-0.03058 0.29633,-0.08721 0.29633,-0.125855 0,-0.03864 0.2352,-0.122441 0.52267,-0.186217 0.28747,-0.06378 0.56774,-0.161027 0.62284,-0.216115 0.0551,-0.05509 0.23402,-0.125275 0.39763,-0.155968 0.27503,-0.0516 0.30198,-0.03769 0.35721,0.184381 0.12373,0.497515 0.51411,1.36778 0.96057,2.141404 0.2541,0.440302 0.53214,0.964177 0.61786,1.164166 0.0857,0.19999 0.19027,0.363617 0.2323,0.363617 0.042,0 0.19867,0.32385 0.34806,0.719667 0.14939,0.395817 0.29849,0.719667 0.33134,0.719667 0.0921,0 0.273,0.536043 0.20198,0.598503 -0.0345,0.03038 -0.42474,0.198945 -0.86713,0.374584 -0.44238,0.17564 -1.10913,0.443912 -1.48166,0.596159 -0.37254,0.152249 -0.97261,0.344668 -1.3335,0.427598 -0.36089,0.08293 -0.65617,0.178963 -0.65617,0.213404 0,0.09762 -0.46235,0.220118 -1.56633,0.415004 -0.5588,0.09865 -1.20136,0.234119 -1.42789,0.301051 -0.22654,0.06693 -0.52182,0.121697 -0.65617,0.121697 -0.13435,0 -0.24428,0.03099 -0.24428,0.06886 0,0.146341 -2.27635,0.292978 -4.86833,0.313606 -1.49013,0.01186 -2.86173,0.0075 -3.048,-0.0096 z m 96.75283,-0.435507 c -0.29104,-0.01653 -0.52917,-0.06088 -0.52917,-0.09854 0,-0.03766 -0.34358,-0.09442 -0.76353,-0.126118 -0.97487,-0.07359 -1.51153,-0.169386 -2.66547,-0.475789 -0.51223,-0.136013 -1.42226,-0.343564 -2.02228,-0.461224 -0.60002,-0.117661 -1.13342,-0.265604 -1.18533,-0.328763 -0.0519,-0.06316 -0.47539,-0.220403 -0.94105,-0.349431 -0.72841,-0.201828 -1.99023,-0.745182 -2.29799,-0.989539 -0.11117,-0.08826 0.14275,-0.8491 0.3538,-1.060155 0.0681,-0.06812 0.12385,-0.17071 0.12385,-0.227984 0,-0.05727 0.21335,-0.464127 0.4741,-0.904119 0.8236,-1.389745 1.38382,-2.619685 1.31887,-2.895486 -0.008,-0.03493 0.0138,-0.0635 0.049,-0.0635 0.0352,0 0.1108,-0.105731 0.16801,-0.234958 0.0572,-0.129227 0.21525,-0.300677 0.35123,-0.381 0.29786,-0.175952 0.30559,-0.176457 0.45241,-0.02963 0.1848,0.184799 1.39221,0.686982 2.22402,0.925012 1.00952,0.288884 2.28535,0.544118 3.3361,0.667399 0.59961,0.07035 0.8549,0.133581 0.8549,0.211741 0,0.07466 0.11876,0.111439 0.35987,0.111439 0.19792,0 0.62655,0.05649 0.9525,0.125531 0.78913,0.16715 2.61316,0.163632 4.64634,-0.009 1.17016,-0.09933 1.63773,-0.169747 1.68667,-0.254 0.0372,-0.06411 0.17217,-0.116568 0.29984,-0.116568 0.597,0 2.89692,-0.447334 3.48478,-0.677789 0.34925,-0.136914 0.81598,-0.295974 1.03717,-0.353467 0.22119,-0.05749 0.40217,-0.131701 0.40217,-0.16491 0,-0.03321 0.1234,-0.08748 0.27422,-0.120609 0.56429,-0.123938 2.92692,-1.131548 3.62044,-1.544038 0.68303,-0.406246 2.07796,-1.373772 2.38733,-1.655856 0.079,-0.07205 0.25663,-0.189407 0.39469,-0.260803 0.13807,-0.0714 0.32655,-0.225822 0.41886,-0.343169 0.0923,-0.117348 0.19346,-0.213359 0.22479,-0.213359 0.1213,0 0.63833,-0.449276 0.63833,-0.554676 0,-0.06119 0.0703,-0.133573 0.15633,-0.160862 0.086,-0.02729 0.38125,-0.277443 0.65617,-0.5559 0.27491,-0.278458 0.54746,-0.506348 0.60567,-0.506424 0.0582,-7.6e-5 0.10583,-0.03263 0.10583,-0.07233 0,-0.03971 0.30482,-0.392133 0.67737,-0.783166 1.89762,-1.991748 2.68239,-3.017784 3.63215,-4.748784 0.39116,-0.712903 0.82215,-1.458891 0.95776,-1.657751 0.388,-0.568951 0.71379,-1.335619 1.01566,-2.390103 0.1533,-0.535516 0.30516,-0.985653 0.33747,-1.000303 0.0323,-0.01465 0.0363,-0.08517 0.009,-0.156712 -0.0274,-0.07154 -0.008,-0.155827 0.0427,-0.187302 0.0509,-0.03148 0.17168,-0.418155 0.26834,-0.859288 0.0967,-0.441134 0.24989,-0.992561 0.34052,-1.225395 0.48726,-1.251711 0.84707,-6.756603 0.59214,-9.059333 -0.10221,-0.923237 -0.41668,-2.501235 -0.52654,-2.642125 -0.0438,-0.05617 -0.0571,-0.138639 -0.0295,-0.183268 0.0276,-0.04463 0.0164,-0.09392 -0.0249,-0.109542 -0.0413,-0.01562 -0.17603,-0.504648 -0.29947,-1.086732 -0.12345,-0.582083 -0.35553,-1.401233 -0.51572,-1.820333 -0.16019,-0.4191 -0.46007,-1.203338 -0.6664,-1.742751 -0.46039,-1.203663 -0.79916,-1.88308 -1.33493,-2.677259 -0.22634,-0.335505 -0.41152,-0.647937 -0.41152,-0.694293 0,-0.04636 -0.053,-0.114751 -0.11784,-0.15199 -0.0648,-0.03724 -0.22149,-0.258207 -0.34816,-0.49104 -0.12667,-0.232834 -0.27366,-0.461434 -0.32666,-0.508 -0.053,-0.04657 -0.20993,-0.256117 -0.34875,-0.465667 -0.13882,-0.20955 -0.3771,-0.513397 -0.5295,-0.675215 -0.15241,-0.161818 -0.29749,-0.358435 -0.3224,-0.436926 -0.0249,-0.07849 -0.13905,-0.204147 -0.25366,-0.279236 -0.11459,-0.07509 -0.20836,-0.181775 -0.20836,-0.23708 0,-0.0553 -0.17018,-0.2735 -0.37817,-0.484881 -0.208,-0.211381 -0.65567,-0.673081 -0.99484,-1.026 -0.94224,-0.98045 -2.48703,-2.408957 -3.24132,-2.997328 -1.71358,-1.336642 -4.54801,-2.755921 -7.53534,-3.773156 -3.59902,-1.225527 -10.31178,-1.512062 -13.90867,-0.593694 -0.36488,0.09316 -0.91935,0.265717 -1.23214,0.383452 -0.3128,0.117735 -0.64405,0.214064 -0.73612,0.214064 -0.0953,0 -0.1674,0.05695 -0.1674,0.132322 0,0.07664 -0.0623,0.124514 -0.14817,0.113766 -0.0815,-0.01021 -0.24925,0.02315 -0.3728,0.07413 -0.12355,0.05098 -0.46645,0.135635 -0.762,0.188124 -0.33759,0.05996 -0.74196,0.215125 -1.0877,0.417387 -0.30268,0.177074 -0.69321,0.372728 -0.86783,0.434786 -0.17463,0.06206 -0.3175,0.139149 -0.3175,0.171313 0,0.03216 -0.0926,0.08172 -0.20575,0.110118 -0.11316,0.0284 -0.25701,0.09921 -0.31968,0.157346 -0.0626,0.05814 -0.30344,0.200256 -0.53508,0.315817 -0.74585,0.372095 -2.0154,1.114962 -2.54658,1.490107 -0.64083,0.452585 -2.05524,1.666875 -2.25977,1.940049 -0.0835,0.111553 -0.28355,0.28421 -0.4445,0.383683 -0.16095,0.09947 -0.29264,0.234904 -0.29264,0.300955 0,0.06605 -0.0376,0.120095 -0.0836,0.120095 -0.15111,0 -1.76962,1.635563 -2.09204,2.114072 -0.17353,0.257544 -0.45412,0.639711 -0.62354,0.849261 -0.16941,0.20955 -0.41852,0.551397 -0.55359,0.75966 -0.13507,0.208262 -0.31226,0.446387 -0.39375,0.529167 -0.0815,0.08278 -0.14817,0.193293 -0.14817,0.245588 0,0.0523 -0.1697,0.332888 -0.3771,0.62354 -0.2074,0.290652 -0.44014,0.686016 -0.51719,0.878586 -0.0771,0.192569 -0.18041,0.350126 -0.22968,0.350126 -0.0493,0 -0.0665,0.02311 -0.0382,0.05136 0.0282,0.02824 0.0144,0.09492 -0.0308,0.148167 -0.1834,0.21622 -0.77769,1.231854 -1.0227,1.747811 -0.70257,1.479544 -1.93476,6.180394 -2.10497,8.03053 -0.15204,1.652576 -0.067,4.861828 0.17313,6.532137 0.10375,0.721783 0.22701,1.336649 0.27392,1.366368 0.0469,0.02972 0.0611,0.09314 0.0316,0.140935 -0.0295,0.0478 -0.0246,0.09968 0.0109,0.115299 0.0356,0.01562 0.18859,0.643452 0.3401,1.395185 0.16918,0.839388 0.35319,1.509125 0.47687,1.735666 0.11077,0.202885 0.25091,0.568905 0.31144,0.81338 0.0605,0.244475 0.14501,0.4445 0.18775,0.4445 0.0428,0 0.0567,0.05469 0.0311,0.12153 -0.0257,0.06684 -0.0172,0.133517 0.0187,0.148167 0.0509,0.02075 0.6872,1.219523 0.6872,1.294611 0,0.0097 -0.16192,0.06601 -0.35983,0.125237 -0.5425,0.162345 -2.20757,1.08019 -2.7305,1.505145 -0.0466,0.03784 -0.33232,0.177031 -0.635,0.309309 -0.30268,0.132277 -0.58976,0.289406 -0.63794,0.349174 -0.21977,0.272606 -1.93909,0.814902 -1.78303,0.562389 0.0332,-0.05366 0.0279,-0.09756 -0.0118,-0.09756 -0.0397,0 -0.11945,-0.177019 -0.17732,-0.393377 -0.0579,-0.216357 -0.31342,-0.901547 -0.56789,-1.522644 -0.25447,-0.621097 -0.46268,-1.206077 -0.46268,-1.299956 0,-0.09854 -0.0561,-0.170689 -0.1327,-0.170689 -0.0932,0 -0.11706,-0.04933 -0.0802,-0.165475 0.0289,-0.09101 -0.004,-0.252935 -0.0723,-0.359833 -0.0686,-0.106897 -0.19017,-0.527734 -0.27007,-0.935192 -0.0799,-0.407459 -0.1826,-0.740834 -0.22822,-0.740834 -0.0456,0 -0.065,-0.09392 -0.0431,-0.208712 0.0219,-0.114793 0.0118,-0.219568 -0.0226,-0.232834 -0.0344,-0.01327 -0.12633,-0.48132 -0.20436,-1.04012 -0.078,-0.5588 -0.21643,-1.294875 -0.30757,-1.635723 -0.0911,-0.340849 -0.14579,-0.651919 -0.12147,-0.691269 0.0243,-0.03935 0.007,-0.08432 -0.0385,-0.09994 -0.048,-0.01648 -0.12473,-1.038893 -0.18284,-2.436588 -0.0996,-2.396392 -0.014,-5.586913 0.18409,-6.86281 0.18234,-1.174118 0.38151,-2.251147 0.43057,-2.328333 0.0296,-0.04657 0.0808,-0.284692 0.11378,-0.529167 0.033,-0.244475 0.0892,-0.4445 0.12494,-0.4445 0.0357,0 0.0468,-0.09525 0.0245,-0.211666 -0.0223,-0.116417 -0.001,-0.211667 0.0466,-0.211667 0.0479,0 0.1127,-0.161925 0.144,-0.359833 0.0922,-0.582877 0.26061,-1.097605 0.54087,-1.652789 0.14459,-0.286445 0.38041,-0.931862 0.52404,-1.43426 0.38953,-1.362516 0.46458,-1.564268 0.86633,-2.328831 0.31847,-0.606082 0.41496,-0.824593 0.57139,-1.293954 0.0155,-0.04657 0.0605,-0.122766 0.1,-0.169333 0.2702,-0.318861 1.14252,-1.590094 1.62675,-2.370667 1.21296,-1.955272 1.36428,-2.186018 1.54801,-2.360488 0.10397,-0.09873 0.18969,-0.220009 0.1905,-0.269505 8.4e-4,-0.0495 0.11576,-0.199499 0.25546,-0.33334 0.1397,-0.133841 0.254,-0.271389 0.254,-0.305661 0,-0.03427 0.10478,-0.174822 0.23283,-0.312333 0.12806,-0.137511 0.42334,-0.466583 0.65617,-0.731273 0.23283,-0.264689 0.49468,-0.545635 0.58188,-0.624326 0.0872,-0.07869 0.20151,-0.192027 0.254,-0.251859 0.28391,-0.32357 1.52433,-1.49284 2.17498,-2.050215 0.24462,-0.20955 0.53575,-0.466725 0.64696,-0.5715 0.11122,-0.104775 0.22945,-0.1905 0.26273,-0.1905 0.0333,0 0.16324,-0.09525 0.28879,-0.211666 0.12555,-0.116417 0.25851,-0.212325 0.29547,-0.21313 0.037,-7.62e-4 0.15691,-0.09605 0.26658,-0.211667 0.10966,-0.115611 0.24915,-0.210203 0.30997,-0.210203 0.0608,0 0.20111,-0.107571 0.31173,-0.239047 0.11063,-0.131475 0.38383,-0.330283 0.60711,-0.441794 0.22328,-0.111512 0.48858,-0.28385 0.58955,-0.382972 0.10098,-0.09912 0.39275,-0.284335 0.6484,-0.411583 0.25566,-0.127248 0.48426,-0.256915 0.508,-0.288148 0.0699,-0.09189 0.35515,-0.258368 0.76115,-0.444193 0.20862,-0.09548 0.39912,-0.202551 0.42333,-0.237934 0.0242,-0.03538 0.31074,-0.19213 0.6367,-0.348329 0.32597,-0.156199 0.61377,-0.31503 0.63956,-0.352957 0.0258,-0.03793 0.29556,-0.155916 0.59949,-0.262197 0.30393,-0.106283 0.64478,-0.253593 0.75745,-0.327358 0.11266,-0.07376 0.78524,-0.312063 1.49462,-0.529551 0.70938,-0.217489 1.46031,-0.468531 1.66873,-0.557871 0.20843,-0.08934 0.51385,-0.187745 0.67872,-0.218675 0.16488,-0.03093 0.29977,-0.08577 0.29977,-0.121867 0,-0.0361 0.17056,-0.09121 0.37903,-0.122469 0.20846,-0.03126 0.39875,-0.08876 0.42286,-0.127775 0.0241,-0.03901 0.37743,-0.119703 0.78514,-0.179308 0.40771,-0.0596 0.76035,-0.134476 0.78363,-0.166382 0.0556,-0.07623 1.06023,-0.212866 2.83634,-0.385783 2.31459,-0.225343 6.25922,-0.07387 9.18633,0.352765 1.13923,0.166043 2.95583,0.523657 3.175,0.625026 0.0931,0.04307 0.43604,0.136044 0.762,0.206601 0.66218,0.14333 1.32395,0.361349 1.39355,0.459101 0.0252,0.03537 0.45954,0.189062 0.96524,0.341531 0.50571,0.152469 0.98892,0.341933 1.07383,0.421033 0.0849,0.0791 0.33789,0.196466 0.56221,0.260814 0.56351,0.161656 1.83005,0.838876 2.99017,1.598853 0.53552,0.350809 1.48273,0.957976 2.1049,1.349262 0.62218,0.391286 1.17463,0.745866 1.22767,0.787958 0.87443,0.693957 1.66277,1.371249 1.66277,1.428543 0,0.04007 0.64634,0.668868 1.43632,1.397332 1.47011,1.355639 2.81992,2.811517 3.48266,3.756341 0.68748,0.980093 0.75992,1.077011 0.86848,1.162033 0.0594,0.04657 0.21988,0.293228 0.35649,0.548138 0.13661,0.254908 0.31347,0.529552 0.39303,0.61032 0.0796,0.08077 0.22755,0.310355 0.32887,0.510196 0.10132,0.19984 0.21067,0.382396 0.24299,0.405679 0.0529,0.03812 0.18148,0.269308 0.45874,0.82484 0.0521,0.104411 0.12558,0.190136 0.16324,0.1905 0.0377,3.38e-4 0.045,0.03876 0.0162,0.08533 -0.0288,0.04657 -0.0166,0.08467 0.0271,0.08467 0.0437,0 0.12783,0.123825 0.18703,0.275167 0.21798,0.557219 0.37198,0.869391 0.45883,0.930037 0.0555,0.03874 0.0571,0.06318 0.004,0.0648 -0.0466,0.0014 -0.0347,0.0343 0.0264,0.07304 0.0611,0.03875 0.21856,0.371539 0.34991,0.739537 0.59033,1.65387 0.97201,2.645762 1.15697,3.006688 0.17026,0.332266 0.27735,0.70478 0.49628,1.7264 0.0199,0.09313 0.0982,0.531283 0.17378,0.973667 0.0756,0.442383 0.21629,1.032933 0.31263,1.312333 0.0963,0.2794 0.18104,0.56582 0.18825,0.636488 0.007,0.07067 0.0398,0.171679 0.0724,0.224466 0.24181,0.391258 0.41063,6.780476 0.23625,8.941282 -0.15984,1.980755 -0.67927,5.056231 -0.93837,5.556004 -0.1734,0.334492 -0.42021,1.027815 -0.54562,1.53276 -0.33533,1.350122 -0.70647,2.455333 -0.82453,2.455333 -0.0437,0 -0.0575,0.03547 -0.0307,0.07882 0.0268,0.04335 0.0144,0.100009 -0.0275,0.125912 -0.0419,0.0259 -0.18249,0.352386 -0.31237,0.725518 -0.1299,0.373131 -0.26992,0.67842 -0.31118,0.67842 -0.0413,0 -0.0515,0.0381 -0.0227,0.08467 0.0288,0.04657 0.0164,0.08467 -0.0274,0.08467 -0.0919,0 -0.52291,0.874176 -0.52291,1.060648 0,0.06858 -0.0404,0.124686 -0.0897,0.124686 -0.0493,0 -0.0661,0.0381 -0.0373,0.08467 0.0288,0.04657 0.0183,0.08467 -0.0233,0.08467 -0.0416,0 -0.18522,0.20955 -0.31921,0.465667 -0.134,0.256116 -0.27369,0.465666 -0.31042,0.465666 -0.0367,0 -0.0668,0.03753 -0.0668,0.08339 0,0.09835 -0.49678,0.925998 -0.65108,1.084722 -0.0587,0.06038 -0.16672,0.23621 -0.24005,0.390732 -0.0733,0.154523 -0.19966,0.352771 -0.28077,0.440551 -0.0811,0.08778 -0.27761,0.349411 -0.43669,0.581403 -0.91912,1.340405 -4.04283,4.668171 -5.75741,6.133522 -0.39582,0.338281 -0.83397,0.718726 -0.97367,0.845432 -0.1397,0.126706 -0.38735,0.322088 -0.55033,0.434183 -0.32228,0.221651 -0.34453,0.238614 -0.71967,0.548621 -0.1397,0.115444 -0.29606,0.209946 -0.34747,0.210003 -0.0514,5.6e-5 -0.19624,0.09535 -0.32186,0.21177 -0.12561,0.116416 -0.27511,0.211666 -0.33221,0.211666 -0.0571,0 -0.16676,0.06668 -0.24368,0.148167 -0.21393,0.226641 -0.32227,0.297217 -0.87144,0.567728 -0.2794,0.137626 -0.53381,0.291223 -0.56536,0.341327 -0.0315,0.0501 -0.29823,0.201529 -0.59266,0.3365 -0.29442,0.134971 -1.03062,0.486201 -1.63598,0.780511 -0.60537,0.29431 -1.1483,0.535107 -1.2065,0.535104 -0.0582,-2e-6 -0.10584,0.03386 -0.10584,0.07524 0,0.04138 -0.13057,0.09974 -0.29017,0.12968 -0.15959,0.02994 -0.30247,0.08399 -0.3175,0.120112 -0.015,0.03612 -0.40833,0.174691 -0.87399,0.307933 -0.46567,0.133242 -0.88818,0.291902 -0.93891,0.352579 -0.0845,0.100996 -2.24811,0.623118 -2.58219,0.623118 -0.0791,0 -0.16736,0.06147 -0.1962,0.136606 -0.0332,0.08662 -0.11398,0.120508 -0.22064,0.09261 -0.0925,-0.02419 -0.1868,-0.01392 -0.20951,0.02282 -0.0455,0.0736 -0.79987,0.19334 -2.41421,0.3832 -0.58208,0.06846 -1.32503,0.161127 -1.651,0.205931 -0.55079,0.07571 -4.92245,0.09534 -6.11717,0.02747 z M 79.88805,79.893874 C 78.9855,78.055827 78.34033,76.834971 77.19508,74.798033 76.77343,74.048079 76.50821,73.567 76.40154,73.3587 c -0.0596,-0.116417 -0.13831,-0.233324 -0.17489,-0.259794 -0.0366,-0.02647 -0.13531,-0.17887 -0.2194,-0.338666 -1.08229,-2.05679 -1.9718,-3.457553 -2.19899,-3.462922 -0.0609,-0.0014 -0.25145,0.107967 -0.42334,0.243125 -0.3837,0.301697 -1.71406,1.06556 -2.51387,1.443407 -2.28454,1.079263 -5.14414,1.893716 -7.59768,2.163925 l -0.48568,0.05349 -0.35716,0.720785 c -0.42163,0.850878 -0.70889,1.129985 -1.16301,1.129985 -0.55331,0 -0.81156,-0.142468 -1.04396,-0.575933 -0.58586,-1.092692 -0.70127,-2.392318 -0.68947,-7.763733 0.006,-2.758141 0.0496,-4.359305 0.15756,-5.799667 0.0821,-1.094317 0.16781,-2.865967 0.19055,-3.937 0.0459,-2.161911 -0.0397,-3.149516 -0.2883,-3.325594 -0.0841,-0.05954 -0.3624,-0.24518 -0.61852,-0.412527 -1.41665,-0.925639 -2.03428,-2.131132 -1.90209,-3.712546 l 0.0495,-0.592666 -0.28022,-0.172531 c -0.97988,-0.603299 -3.16522,-1.403154 -5.77777,-2.114718 -0.93452,-0.254528 -2.06107,-0.572154 -2.50346,-0.705834 -0.44238,-0.13368 -0.82889,-0.219774 -0.8589,-0.19132 -0.13107,0.124249 -0.48794,1.303951 -0.61754,2.041403 -0.19159,1.090204 -0.2643,3.161455 -0.14265,4.064 0.32481,2.409888 1.64698,5.942717 2.97156,7.939963 0.66946,1.00942 1.82889,2.220099 2.76128,2.883326 0.40366,0.287124 0.69719,0.522044 0.65229,0.522044 -0.0931,0 -1.60829,-1.028224 -2.31862,-1.573381 -1.31329,-1.007912 -2.90025,-3.064855 -3.84216,-4.980022 -1.02006,-2.074085 -1.43297,-3.887255 -1.43832,-6.31593 -0.003,-1.477544 -0.002,-1.486832 0.41837,-3.337844 0.29093,-1.280758 0.39149,-1.866224 0.32439,-1.88859 -0.0535,-0.01783 -0.56211,-0.298748 -1.1303,-0.624268 -0.56818,-0.325521 -1.04295,-0.580555 -1.05504,-0.566744 -0.0121,0.01381 -0.11757,0.215612 -0.23439,0.448446 -0.33004,0.657761 -0.46943,1.226207 -0.7051,2.875545 -0.1781,1.246371 -0.22068,1.885125 -0.23161,3.474455 -0.0126,1.826859 7.6e-4,2.012983 0.21578,3.008487 0.52545,2.432922 2.01068,6.039115 3.30326,8.020418 1.15862,1.775977 2.0579,2.779969 3.81154,4.255358 0.8588,0.722533 1.08698,0.970283 0.46566,0.505597 -0.1979,-0.148018 -0.87418,-0.633867 -1.50283,-1.079667 -1.81234,-1.285203 -2.17985,-1.61076 -3.38923,-3.002343 -1.429,-1.64429 -2.64281,-3.819476 -3.46992,-6.218164 -0.78374,-2.272929 -0.97206,-3.463117 -0.9691,-6.124686 0.002,-2.188611 0.0437,-2.488864 0.59934,-4.360334 0.1659,-0.5588 0.40824,-1.420836 0.53851,-1.915635 l 0.23687,-0.899635 -0.5156,-0.455031 c -0.72087,-0.636198 -0.90712,-0.777336 -0.95828,-0.726179 -0.12035,0.120353 -0.88673,2.605645 -1.07743,3.49403 -0.54217,2.525608 -0.60509,3.030997 -0.60017,4.82045 0.006,2.121231 0.12097,2.810655 1.0994,6.582459 0.73682,2.840417 1.01805,3.638815 1.89911,5.391485 1.2804,2.547045 2.46768,4.169772 4.46254,6.099216 0.78336,0.75767 1.34654,1.325514 1.25151,1.261877 -0.80878,-0.541593 -3.18734,-2.458328 -3.76783,-3.036267 -1.37984,-1.373772 -3.3112,-4.158636 -4.3161,-6.223436 -0.92261,-1.895712 -1.65906,-4.112778 -2.15378,-6.483857 -0.50805,-2.434993 -0.43971,-5.694433 0.17737,-8.45981 0.23622,-1.058571 0.99896,-3.49017 1.39819,-4.457349 l 0.24973,-0.605016 -0.50147,-0.7637 c -0.54373,-0.828053 -0.66085,-1.192753 -0.51624,-1.607574 0.10524,-0.301889 0.69678,-0.779028 0.96581,-0.779028 0.51528,0 1.81345,0.461435 3.10257,1.10281 1.64587,0.818872 6.41443,3.655203 9.1752,5.457385 0.51223,0.334378 1.70654,1.114491 2.65401,1.733585 1.05817,0.691431 2.02789,1.255189 2.51394,1.461509 l 0.79127,0.335884 0.32239,-0.258001 c 0.54704,-0.437785 1.25919,-0.703311 2.01572,-0.751571 0.88942,-0.05674 1.59301,0.123353 2.40173,0.614747 0.34304,0.208442 0.66278,0.378986 0.71051,0.378986 0.30723,0 1.93449,-1.232528 3.87276,-2.933334 1.33251,-1.169245 1.73379,-1.56871 2.25063,-2.240374 l 0.37805,-0.491315 -0.61584,-0.589042 c -1.46171,-1.398097 -3.13695,-2.485925 -4.78164,-3.104987 -1.51596,-0.570605 -3.74746,-0.961404 -5.78253,-1.012684 -1.98649,-0.05006 -3.48046,0.18897 -5.30174,0.848247 -0.44795,0.162152 -0.83849,0.293296 -0.86786,0.291432 -0.24154,-0.01533 2.73448,-1.305074 3.52001,-1.525494 3.05952,-0.858503 6.85135,-0.572898 9.88859,0.744816 0.87561,0.379886 3.3825,2.090279 4.16563,2.842113 0.51614,0.495518 0.74418,0.663212 0.82261,0.604927 0.0597,-0.04435 0.53337,-0.360627 1.05263,-0.702835 0.51927,-0.342207 0.94413,-0.670339 0.94413,-0.729181 0,-0.244164 -2.42695,-2.459991 -3.49732,-3.193085 -2.05601,-1.40815 -5.8901,-2.718641 -9.23785,-3.157492 -1.2645,-0.165761 -3.3768,-0.166788 -4.48363,-0.0022 -1.21145,0.180167 -2.98978,0.637385 -4.03253,1.036784 -1.30929,0.501488 -1.26152,0.488075 -1.016,0.285277 0.55048,-0.454698 3.04001,-1.463912 4.62247,-1.873874 1.57127,-0.407062 2.68938,-0.54191 4.47919,-0.540211 2.34902,0.0022 4.20364,0.296688 6.38336,1.013485 1.98412,0.652477 3.26292,1.329851 5.07824,2.689926 1.12216,0.840746 1.5603,1.239686 2.64764,2.410762 l 0.56257,0.605892 0.84513,-0.374712 c 0.46482,-0.206092 1.04987,-0.434871 1.3001,-0.508396 0.77649,-0.228162 0.77812,-0.192764 -0.0527,-1.146777 -0.81939,-0.940846 -2.63368,-2.686135 -3.35465,-3.227047 -1.18759,-0.891005 -3.14531,-1.946699 -4.90066,-2.642663 -2.13735,-0.847419 -6.25517,-1.914644 -8.37978,-2.171806 -1.43203,-0.173331 -3.86342,-0.07915 -5.50556,0.213271 -0.79046,0.140759 -2.94035,0.729418 -3.5803,0.980319 -0.7622,0.298832 -0.75061,0.09895 0.014,-0.240933 1.64036,-0.729207 3.66612,-1.36057 5.64066,-1.75801 4.72209,-0.95047 10.37874,-0.07991 14.92222,2.296524 2.53558,1.32622 5.4047,3.672547 6.81879,5.576323 0.27671,0.372533 0.64935,0.836383 0.82807,1.030777 l 0.32497,0.353444 1.13747,-0.01478 c 1.02934,-0.01337 1.15567,0.0013 1.32877,0.154556 0.28488,0.252176 0.52146,0.836287 0.45298,1.118446 -0.22962,0.946239 -2.12214,2.345781 -6.81579,5.040345 -1.77706,1.020189 -2.28674,1.293968 -4.71746,2.534033 -3.17309,1.618794 -4.48125,2.33295 -5.39002,2.942536 l -0.84666,0.567929 -0.053,0.883355 c -0.0542,0.904193 -0.24971,1.563356 -0.66084,2.228586 -0.28203,0.45633 -0.96954,1.043564 -1.56628,1.337831 l -0.55622,0.274283 v 0.686757 c 0,1.216054 0.38809,3.402109 0.98391,5.542232 0.12316,0.442384 0.36376,1.375834 0.53465,2.074334 0.27813,1.136773 0.33055,1.272878 0.4997,1.297442 0.22946,0.03332 1.17038,-0.31419 2.08807,-0.771197 0.68975,-0.343495 2.24367,-1.321578 2.24367,-1.412237 0,-0.02744 -0.14288,-0.243489 -0.3175,-0.480099 -0.17463,-0.23661 -0.508,-0.701205 -0.74084,-1.032433 -0.53808,-0.765481 -1.26031,-1.771841 -1.47016,-2.048556 -0.35081,-0.462578 -2.12817,-2.960696 -2.12817,-2.991185 0,-0.01783 0.25316,-0.180309 0.56258,-0.361072 0.78533,-0.458786 1.61545,-1.306113 2.004,-2.04552 0.17489,-0.332818 0.35157,-0.625877 0.39261,-0.651243 0.041,-0.02536 0.46834,0.346992 0.94955,0.827461 0.7597,0.758538 1.83219,1.673218 2.86194,2.440861 0.16444,0.122587 0.67999,0.568904 1.14565,0.991816 0.46567,0.422913 0.89099,0.77029 0.94517,0.771949 0.0542,0.0017 0.30445,-0.387508 0.55616,-0.864816 0.74692,-1.416351 1.21535,-2.632499 1.46797,-3.811157 0.12739,-0.594362 0.24849,-1.063781 0.26911,-1.043155 0.0796,0.0796 -0.16643,1.878283 -0.36366,2.658572 -0.11398,0.450948 -0.44088,1.460769 -0.72645,2.244045 -0.28826,0.790657 -0.48609,1.453537 -0.44476,1.490229 0.36696,0.325698 2.24116,1.869299 2.26965,1.869299 0.13923,0 1.10048,-1.520934 1.60767,-2.543711 0.75546,-1.523444 1.22375,-2.922785 1.58545,-4.737622 0.45647,-2.29037 0.41545,-1.152022 -0.0685,1.900561 -0.23437,1.478386 -0.46682,2.225293 -1.17244,3.767428 -0.48977,1.070394 -0.97238,2.246431 -0.97238,2.369544 0,0.08048 2.15129,1.703428 2.38617,1.800144 0.10708,0.04409 0.25717,-0.08223 0.60363,-0.508 1.54144,-1.894279 2.96786,-4.783404 3.66177,-7.416667 0.54085,-2.052454 0.54828,-2.071772 0.5083,-1.320344 -0.043,0.807864 -0.2713,1.913424 -0.81102,3.927238 -0.60179,2.245375 -1.03694,3.332985 -1.95174,4.87819 -0.60677,1.024896 -0.75829,1.419407 -0.58462,1.522164 0.25563,0.15126 1.20842,0.816602 1.59095,1.110987 0.77792,0.598643 3.37701,2.237288 4.37556,2.758652 l 1.016,0.530474 -4.2545,0.0022 c -2.33997,0.0012 -4.2545,0.01453 -4.2545,0.02966 0,0.01513 0.20699,1.529607 0.45996,3.3655 0.25299,1.835891 0.57978,4.252385 0.72621,5.369985 0.14644,1.1176 0.29883,2.1082 0.33865,2.201333 0.0703,0.164501 0.61305,3.867409 0.57068,3.893682 -0.0116,0.0072 -0.49742,-0.95676 -1.0795,-2.142175 z M 65.49472,70.890669 c 1.49447,-0.321871 2.84065,-0.827844 4.71105,-1.770691 1.79192,-0.903278 2.57028,-1.376154 2.57028,-1.561514 0,-0.05438 -0.1524,-0.311689 -0.33867,-0.571807 -0.18626,-0.260119 -0.33866,-0.497642 -0.33866,-0.527831 0,-0.03019 -0.0476,-0.10704 -0.10584,-0.170782 -0.0582,-0.06374 -0.19951,-0.245534 -0.31401,-0.40398 l -0.20818,-0.288085 -0.72315,0.468947 c -1.66707,1.081049 -3.89529,2.078632 -5.88054,2.632744 -0.50823,0.141854 -0.93174,0.267542 -0.94114,0.279306 -0.0279,0.03491 -0.37848,1.974795 -0.37848,2.094142 0,0.140047 0.80606,0.06535 1.94734,-0.180449 z m 0.36074,-4.054555 c 1.71963,-0.570255 3.91177,-1.725717 4.53059,-2.388051 L 70.5784,64.242201 70.01858,63.40295 c -0.64773,-0.971012 -0.78339,-1.135583 -0.93613,-1.135583 -0.0613,0 -0.38871,0.186977 -0.72771,0.415504 -1.00525,0.677667 -2.16984,1.25438 -3.24632,1.607598 l -1.0107,0.331634 -0.0234,1.330242 -0.0234,1.330242 0.40436,-0.05814 c 0.22241,-0.03198 0.85245,-0.206726 1.40011,-0.388336 z m 72.62785,14.692919 c -0.0168,-0.183289 0.45143,-3.389281 0.50084,-3.429 0.029,-0.02328 0.15894,-0.842433 0.28885,-1.820333 0.1299,-0.9779 0.46123,-3.413556 0.73628,-5.41257 0.27506,-1.999013 0.5001,-3.646838 0.5001,-3.661833 0,-0.01499 -0.48907,-0.02726 -1.08683,-0.02726 -0.59775,0 -2.40705,-0.02521 -4.02066,-0.05602 -2.31775,-0.04426 -2.91558,-0.07804 -2.84684,-0.160865 0.0786,-0.09474 1.50761,-0.953914 2.70736,-1.627801 0.25742,-0.144588 0.89884,-0.569732 1.42538,-0.944765 0.52653,-0.375032 0.97396,-0.681877 0.99428,-0.681877 0.0859,0 0.77453,-0.475591 1.02815,-0.71011 0.30234,-0.279576 0.34609,-0.480292 0.14165,-0.649962 -0.2066,-0.171466 -1.01007,-1.578947 -1.55629,-2.726242 -1.0367,-2.177527 -1.83471,-5.037485 -2.10816,-7.555353 -0.12212,-1.124506 0.007,-0.905756 0.36536,0.621046 0.5427,2.309478 1.32174,4.19836 2.52261,6.11646 0.66577,1.063392 2.09579,3.033359 2.20561,3.038385 0.126,0.0058 1.47082,-0.919905 1.90971,-1.314511 0.23944,-0.215273 0.43534,-0.460181 0.43534,-0.544239 0,-0.08406 -0.14984,-0.399478 -0.33298,-0.700931 -0.18314,-0.301453 -0.38812,-0.676822 -0.4555,-0.834153 -0.0674,-0.157331 -0.24516,-0.548014 -0.39507,-0.868183 -0.31046,-0.663136 -0.68734,-1.719756 -0.87955,-2.465874 -0.36889,-1.432036 -0.86888,-4.868333 -0.70836,-4.868333 0.0258,0 0.0913,0.276225 0.14568,0.613833 0.14892,0.924754 0.54061,2.384021 0.89324,3.327811 0.76753,2.054255 2.46353,4.948356 2.89984,4.948356 0.12639,0 2.21937,-1.745216 2.21937,-1.850609 0,-0.03457 -0.0358,-0.09905 -0.0794,-0.143291 -0.15405,-0.155958 -0.75147,-1.446367 -1.01408,-2.190394 -0.52689,-1.492796 -0.85537,-3.137709 -0.84671,-4.240039 0.004,-0.496542 0.009,-0.486039 0.20606,0.465666 0.25625,1.234763 0.77952,2.764686 1.3186,3.855368 0.43322,0.876488 0.96906,1.63678 1.15859,1.643905 0.10433,0.0039 1.70694,-1.338333 3.27865,-2.746027 1.52303,-1.364084 2.76193,-2.432413 2.78629,-2.402671 0.0137,0.01673 0.12695,0.256571 0.25166,0.53297 0.27606,0.611868 1.35434,1.713604 2.14789,2.194622 0.51939,0.314837 0.63607,0.487159 0.42101,0.621793 -0.26216,0.164124 -1.04728,1.201119 -2.00571,2.649147 -0.56987,0.860992 -1.29277,1.889692 -1.60642,2.286 -0.67711,0.855535 -0.89329,1.211066 -0.83141,1.367289 0.10956,0.276569 3.15364,1.70058 3.89136,1.82037 0.34979,0.0568 0.31075,0.124532 0.49477,-0.858432 0.0523,-0.2794 0.20444,-0.889 0.33807,-1.354667 0.77076,-2.685852 1.18935,-5.413142 1.10576,-7.204431 -0.006,-0.129811 -0.097,-0.203689 -0.34064,-0.276682 -0.49417,-0.148055 -1.21879,-0.673979 -1.61047,-1.168869 -0.61317,-0.774729 -0.93582,-1.730645 -0.93582,-2.772536 v -0.534517 l -0.99483,-0.598226 c -1.73681,-1.044404 -1.78729,-1.070324 -8.82651,-4.532426 -0.81491,-0.400802 -1.67216,-0.838957 -1.905,-0.973679 -1.64235,-0.950299 -1.93238,-1.115634 -1.95698,-1.115634 -0.0588,0 -1.96516,-1.220629 -2.48112,-1.58865 -0.2989,-0.213187 -0.84183,-0.676525 -1.2065,-1.02964 -0.63842,-0.61817 -0.66306,-0.656494 -0.66306,-1.031348 0,-0.44055 0.25327,-0.895026 0.59521,-1.068047 0.13215,-0.06687 0.58308,-0.106334 1.22512,-0.107219 l 1.016,-0.0014 0.24382,-0.385928 c 0.47092,-0.745388 1.6227,-2.120794 2.55851,-3.055264 3.44616,-3.441209 7.82287,-5.705824 12.48823,-6.461699 3.36483,-0.545164 6.87007,-0.346699 9.72844,0.55082 0.88775,0.278748 2.97993,1.066664 2.93956,1.107037 -0.0163,0.01627 -0.4081,-0.06327 -0.87074,-0.176755 -1.78793,-0.43858 -3.1244,-0.582911 -5.41315,-0.584588 -1.95602,-0.0014 -2.2002,0.0154 -3.21733,0.221743 -2.04152,0.414168 -3.63452,0.83504 -6.05367,1.599383 -1.92605,0.608546 -4.23045,1.817834 -5.9951,3.146066 -0.97514,0.733977 -2.90463,2.442341 -3.33645,2.95408 -0.44213,0.523972 -0.99816,1.341185 -0.99696,1.465278 8.5e-4,0.04719 0.18144,0.149356 0.40217,0.227038 0.22074,0.07768 0.83202,0.296757 1.35842,0.486833 0.52639,0.190076 0.9868,0.345593 1.02312,0.345593 0.0363,0 0.48033,-0.460726 0.98668,-1.023834 1.63191,-1.814834 3.11337,-2.944173 5.32943,-4.062698 4.38758,-2.214571 9.28108,-2.67091 13.83884,-1.290528 1.2076,0.365739 4.38961,1.797028 4.16303,1.872558 -0.0474,0.01581 -0.2499,-0.06611 -0.44989,-0.18204 -0.87988,-0.510062 -3.08365,-1.096494 -4.9957,-1.329378 -1.15363,-0.140508 -3.33306,-0.06165 -4.57922,0.165681 -5.50486,1.004247 -7.73365,1.959403 -11.05709,4.73857 -1.15618,0.966821 -1.98296,1.958333 -1.633,1.958333 0.0383,0 0.52864,0.300211 1.08968,0.667135 l 1.02008,0.667135 0.41314,-0.346977 c 0.22723,-0.190838 0.7751,-0.686979 1.21748,-1.102537 0.9597,-0.9015 1.42371,-1.253195 2.33524,-1.769979 1.58227,-0.897056 3.36342,-1.471845 5.30627,-1.712375 1.71503,-0.212325 3.26005,-0.142528 4.96744,0.224405 1.30301,0.280031 3.75338,1.205316 4.03964,1.525411 0.14197,0.158758 0.11381,0.154246 -0.28173,-0.04513 -0.83833,-0.422563 -2.68061,-0.827881 -4.53139,-0.996949 -2.60848,-0.238282 -5.42679,0.351423 -8.15246,1.705823 -1.42116,0.706179 -2.48763,1.454866 -3.58679,2.518008 l -0.81588,0.78915 1.31233,1.272137 c 2.76073,2.676164 3.72344,3.480648 4.85578,4.057711 l 0.66478,0.338783 0.29084,-0.255368 c 0.68614,-0.602437 1.88263,-0.984984 2.80474,-0.896748 0.69957,0.06694 1.0931,0.210104 1.74497,0.634818 l 0.5395,0.351502 0.41647,-0.164155 c 0.69459,-0.27378 1.41283,-0.735629 5.19292,-3.339168 4.61163,-3.176257 8.12426,-5.325262 10.33392,-6.322206 1.39133,-0.627733 2.13049,-0.768271 2.56013,-0.486762 0.25099,0.164458 0.56795,0.718627 0.56795,0.993 0,0.219208 -0.26251,0.741439 -0.68925,1.371187 -0.17971,0.265203 -0.32675,0.524649 -0.32675,0.576546 0,0.0519 0.14789,0.406412 0.32864,0.787812 0.69844,1.473793 1.39498,3.836689 1.71439,5.815788 0.22228,1.37723 0.30905,4.501021 0.16277,5.859122 -0.33088,3.071865 -1.60112,6.915561 -3.16044,9.563406 -1.14038,1.936446 -2.30336,3.348261 -4.18891,5.085181 -1.44682,1.332771 -2.39797,2.101921 -3.01297,2.436435 -0.26507,0.144174 -0.069,-0.07754 0.79052,-0.894038 1.59113,-1.511445 1.89483,-1.834583 2.54111,-2.703773 1.6207,-2.179689 3.08219,-5.141777 3.75969,-7.62 1.42583,-5.215493 1.54421,-5.888874 1.45115,-8.255 -0.0753,-1.913465 -0.18185,-2.815902 -0.56012,-4.741333 -0.37934,-1.930868 -0.56742,-2.570375 -0.95487,-3.246591 l -0.28357,-0.494923 -0.69069,0.617593 c -0.37989,0.339676 -0.6907,0.652918 -0.6907,0.696093 0,0.04317 0.133,0.410916 0.29556,0.817204 0.91667,2.29116 1.3823,5.623395 1.1529,8.250678 -0.30769,3.524107 -1.96875,7.639447 -4.18881,10.377946 -0.75863,0.935783 -1.82664,1.974133 -2.97465,2.892003 -1.04883,0.838582 -2.27831,1.682018 -2.44503,1.677322 -0.1052,-0.003 -0.005,-0.09315 1.13057,-1.013325 1.1721,-0.950121 2.15562,-2.028583 3.0142,-3.305174 0.93425,-1.389102 1.41471,-2.260988 2.07241,-3.760827 2.02155,-4.609973 2.45133,-8.339107 1.43289,-12.432816 -0.23039,-0.926046 -0.76943,-2.514516 -0.85329,-2.514516 -0.0851,0 -0.96575,0.510933 -1.69686,0.984444 l -0.56244,0.364275 0.24538,0.711893 c 0.76988,2.233544 0.9408,5.289097 0.42064,7.51989 -0.52919,2.269567 -1.84465,4.941882 -3.3088,6.721729 -0.60661,0.73741 -1.83514,1.833045 -2.76998,2.470337 -1.22977,0.838349 -1.46779,0.915147 -0.59552,0.192139 1.77994,-1.475351 2.90854,-2.910762 3.86207,-4.91197 0.64792,-1.3598 1.38337,-3.592779 1.71433,-5.205071 0.23935,-1.166009 0.25689,-1.363592 0.21412,-2.413 -0.0791,-1.940539 -0.63571,-4.487402 -0.98073,-4.487291 -0.0726,2.4e-5 -0.33959,0.07896 -0.59335,0.175407 -0.25376,0.09645 -1.09196,0.345959 -1.86267,0.554465 -2.63841,0.713795 -5.07855,1.620588 -6.22727,2.314146 l -0.508,0.306714 0.0299,0.765145 c 0.0667,1.709448 -0.61713,3.006155 -1.95907,3.714865 l -0.63959,0.337783 -0.0588,0.86303 c -0.0667,0.97856 0.0708,4.561544 0.25278,6.589403 0.0669,0.745067 0.14577,1.735667 0.1753,2.201333 0.0295,0.465667 0.085,1.322917 0.1233,1.905 0.2214,3.366504 -0.0156,8.281405 -0.44059,9.137327 -0.36639,0.737891 -1.24562,0.981699 -1.74377,0.483546 -0.11722,-0.11721 -0.39007,-0.548066 -0.60636,-0.95746 l -0.39326,-0.744352 -0.96822,-0.0977 c -1.24869,-0.125999 -3.95832,-0.728838 -4.98989,-1.110147 -0.44238,-0.163524 -1.75247,-0.776723 -2.9113,-1.362666 l -2.10698,-1.065349 -0.1642,0.2079 c -0.1636,0.207115 -0.95252,1.451727 -1.6345,2.578567 -0.19728,0.325967 -0.55925,0.973667 -0.80439,1.439333 -0.24513,0.465667 -0.49212,0.903817 -0.54887,0.973667 -0.0567,0.06985 -0.20215,0.33655 -0.32313,0.592667 -0.29395,0.622323 -0.6334,1.224833 -0.96995,1.721659 -0.15234,0.224892 -0.35785,0.567695 -0.45668,0.761784 -0.0988,0.19409 -0.40759,0.71484 -0.68613,1.157223 -0.54946,0.872668 -1.1103,1.912074 -1.39338,2.582334 -0.0983,0.232833 -0.18228,0.385233 -0.18656,0.338666 z M 155.86275,70.5012 c -0.0325,-0.128058 -0.14019,-0.610532 -0.2392,-1.072163 l -0.18001,-0.83933 -1.26525,-0.329055 c -2.39628,-0.62321 -3.1493,-0.928022 -5.06756,-2.051276 -0.60115,-0.352005 -1.10241,-0.640009 -1.11392,-0.640009 -0.0736,0 -1.22189,1.816877 -1.22105,1.931953 0.002,0.241828 2.31253,1.49339 3.91149,2.118555 1.64757,0.644169 3.55202,1.092483 4.70392,1.107321 l 0.53077,0.0068 -0.0592,-0.232834 z m -0.5875,-3.725333 c -0.005,-0.05821 -0.0142,-0.631482 -0.0212,-1.273941 l -0.0127,-1.168107 -1.23476,-0.41348 c -0.90582,-0.303332 -1.55033,-0.590143 -2.41935,-1.076634 -0.65152,-0.364734 -1.21766,-0.642705 -1.2581,-0.617714 -0.15812,0.09772 -1.44281,1.99674 -1.39889,2.067816 0.0622,0.100643 1.58622,1.033589 2.1201,1.297846 0.80309,0.397501 2.01547,0.842843 2.95367,1.084958 0.98206,0.253431 1.28543,0.277118 1.2712,0.09926 z m -17.29918,5.926666 -0.007,-0.275166 h -6.67525 -6.67525 l 0.28332,-1.7145 c 0.15583,-0.942975 0.30292,-1.800225 0.32687,-1.905 l 0.0435,-0.1905 h 6.69378 6.69378 l -0.0464,0.232833 c -0.0255,0.128058 -0.16361,1.071033 -0.3068,2.0955 -0.27396,1.959986 -0.31998,2.204383 -0.33086,1.756833 z m -56.94223,-0.381 C 81.01504,72.263323 80.90036,71.51085 80.77906,70.649367 80.65775,69.787883 80.53798,68.978258 80.51289,68.8502 l -0.0456,-0.232833 h 6.69378 6.69378 l 0.0435,0.1905 c 0.0239,0.104775 0.17104,0.962025 0.32687,1.905 l 0.28332,1.7145 H 87.7883 c -5.30149,0 -6.72746,-0.02234 -6.75447,-0.105834 z m 13.85914,-8.001 0.0234,-2.772833 0.32034,-1.100667 c 0.54314,-1.866218 0.89094,-3.90375 1.03694,-6.074833 l 0.0555,-0.8255 h 1.2621 1.26211 v 6.773333 6.773334 h -1.99191 -1.9919 z m 25.12707,-4.0005 V 53.5467 h 1.2621 1.2621 l 0.0555,0.8255 c 0.14601,2.171083 0.4938,4.208615 1.03695,6.074833 l 0.32033,1.100667 0.0234,2.772833 0.0234,2.772834 h -1.99191 -1.9919 z m 48.006,-31.284333 c -0.20955,-0.112208 -0.3429,-0.203398 -0.29633,-0.202645 0.14548,0.0024 0.93834,0.40004 0.80433,0.403439 -0.0699,0.0018 -0.29845,-0.08859 -0.508,-0.200794 z m -0.67733,-0.296333 c -0.0699,-0.04514 -0.0889,-0.08207 -0.0423,-0.08207 0.0466,0 0.14182,0.03693 0.21167,0.08207 0.0699,0.04514 0.0889,0.08207 0.0423,0.08207 -0.0466,0 -0.14182,-0.03693 -0.21167,-0.08207 z"
       id="path3710"
       inkscape:connector-curvature="0" />
  </g>
</svg>
