M48
; DRILL file {KiCad 9.0.3} date 2026-01-22T00:39:25+0100
; FORMAT={-:-/ absolute / inch / decimal}
; #@! TF.CreationDate,2026-01-22T00:39:25+01:00
; #@! TF.GenerationSoftware,Kicad,Pcbnew,9.0.3
; #@! TF.FileFunction,Plated,1,4,PTH
FMAT,2
INCH
; #@! TA.AperFunction,Plated,PTH,ViaDrill
T1C0.0079
; #@! TA.AperFunction,Plated,PTH,ComponentDrill
T2C0.0236
; #@! TA.AperFunction,Plated,PTH,ComponentDrill
T3C0.0276
; #@! TA.AperFunction,Plated,PTH,ComponentDrill
T4C0.0315
; #@! TA.AperFunction,Plated,PTH,ComponentDrill
T5C0.0394
; #@! TA.AperFunction,Plated,PTH,ComponentDrill
T6C0.0598
%
G90
G05
T1
X5.7953Y-3.0208
X5.7993Y-5.2678
X5.7993Y-5.3678
X5.7993Y-5.4678
X5.8093Y-4.7578
X5.811Y-4.6181
X5.8143Y-3.8778
X5.8193Y-4.7178
X5.8193Y-4.7978
X5.8271Y-4.4409
X5.8343Y-3.4028
X5.8343Y-5.1528
X5.8393Y-4.744
X5.8393Y-4.7716
X5.8393Y-5.2678
X5.8393Y-5.4678
X5.8469Y-2.7835
X5.8503Y-3.0658
X5.8549Y-3.7635
X5.8593Y-4.7178
X5.8593Y-4.7978
X5.8793Y-5.2678
X5.8793Y-5.4678
X5.8983Y-3.6013
X5.8983Y-3.629
X5.9009Y-5.7275
X5.9018Y-5.0828
X5.9018Y-5.2228
X5.9043Y-3.4378
X5.9193Y-5.2678
X5.9193Y-5.4678
X5.9213Y-3.5529
X5.9213Y-3.5806
X5.9303Y-4.8958
X5.9393Y-3.4978
X5.9493Y-4.5378
X5.9493Y-4.5778
X5.9493Y-4.6178
X5.9518Y-3.5909
X5.9563Y-3.6488
X5.9593Y-5.2678
X5.9593Y-5.4678
X5.9643Y-3.5424
X5.9793Y-3.4078
X5.9793Y-5.0178
X5.9793Y-5.0478
X5.9889Y-3.7655
X5.9893Y-3.9602
X5.9893Y-4.0192
X5.9893Y-4.0783
X5.9893Y-4.1373
X5.9893Y-4.1964
X5.9893Y-4.2554
X5.9893Y-4.3145
X5.9893Y-5.1878
X5.9919Y-4.5778
X5.9949Y-2.7835
X5.9968Y-4.7053
X5.9972Y-2.9202
X5.9972Y-2.9792
X5.9972Y-3.0383
X5.9972Y-3.0973
X5.9972Y-3.1564
X5.9972Y-3.2154
X5.9972Y-3.2745
X5.9993Y-5.2678
X5.9993Y-5.4678
X6.0043Y-2.8628
X6.0068Y-5.0378
X6.0068Y-5.0778
X6.0143Y-4.6878
X6.0318Y-4.6703
X6.0393Y-3.3328
X6.0393Y-5.1878
X6.0393Y-5.2178
X6.0393Y-5.2678
X6.0393Y-5.4678
X6.0409Y-3.7035
X6.0493Y-3.4078
X6.0493Y-4.7078
X6.0553Y-4.8958
X6.0583Y-3.6808
X6.0644Y-4.6879
X6.0723Y-3.5628
X6.0763Y-4.0783
X6.0763Y-4.1373
X6.0793Y-3.3178
X6.0793Y-5.2678
X6.0793Y-5.4678
X6.0819Y-4.6704
X6.0849Y-4.1955
X6.0943Y-3.4248
X6.0993Y-3.9602
X6.0993Y-4.0178
X6.0993Y-4.3278
X6.0993Y-3.6122
X6.101Y-4.094
X6.101Y-4.1216
X6.1093Y-2.9202
X6.1093Y-2.9792
X6.1093Y-3.0383
X6.1093Y-3.0978
X6.1093Y-3.1578
X6.1093Y-3.2154
X6.1093Y-3.2778
X6.1093Y-4.2121
X6.1093Y-4.2397
X6.1193Y-5.4678
X6.1329Y-4.0675
X6.1393Y-2.9949
X6.1393Y-3.0226
X6.1393Y-3.113
X6.1393Y-3.1407
X6.1393Y-3.2311
X6.1393Y-3.2588
X6.1393Y-4.153
X6.1393Y-4.1807
X6.1483Y-3.8028
X6.1493Y-4.2711
X6.1493Y-4.2988
X6.1495Y-3.988
X6.1503Y-3.7748
X6.1593Y-3.3178
X6.1593Y-3.3678
X6.1593Y-5.4678
X6.1629Y-4.0395
X6.1691Y-4.0076
X6.1693Y-2.9778
X6.1693Y-3.0378
X6.1693Y-3.0978
X6.1693Y-3.1578
X6.1693Y-3.2178
X6.1693Y-3.2778
X6.1693Y-3.8378
X6.1749Y-4.3215
X6.1783Y-3.8008
X6.1972Y-2.7992
X6.1993Y-5.2678
X6.1993Y-5.3678
X6.1993Y-5.4678
X6.2093Y-3.0378
X6.2093Y-3.0978
X6.2093Y-3.1578
X6.2093Y-3.2178
X6.2193Y-2.8578
X6.2393Y-3.054
X6.2393Y-3.0816
X6.2393Y-3.1721
X6.2393Y-3.1997
X6.2393Y-3.8523
X6.2393Y-3.88
X6.2493Y-3.3893
X6.2643Y-4.3928
X6.2643Y-4.4978
X6.2665Y-3.4271
X6.2665Y-3.4548
X6.2709Y-2.8515
X6.2749Y-2.9615
X6.2868Y-3.5216
X6.2868Y-3.5493
X6.2874Y-3.6535
X6.2874Y-3.7008
X6.2874Y-3.748
X6.3143Y-5.2528
X6.3491Y-3.748
X6.3493Y-3.4646
X6.3493Y-3.5118
X6.3493Y-3.5591
X6.3493Y-3.6063
X6.3493Y-3.6535
X6.3493Y-3.7008
X6.3509Y-3.2995
X6.3543Y-5.2528
X6.3563Y-3.3588
X6.3609Y-5.7175
X6.3793Y-3.9128
X6.3793Y-4.0028
X6.3793Y-4.0928
X6.3793Y-4.1878
X6.3893Y-4.6478
X6.3943Y-5.2528
X6.4029Y-3.7415
X6.4043Y-3.3868
X6.4093Y-3.4173
X6.4093Y-3.4646
X6.4093Y-3.5118
X6.4093Y-3.5591
X6.4093Y-3.6063
X6.4093Y-3.6535
X6.4093Y-3.7008
X6.4093Y-4.3928
X6.4103Y-4.4708
X6.4343Y-3.3228
X6.4343Y-5.2528
X6.4523Y-3.017
X6.4523Y-3.0446
X6.4629Y-4.4175
X6.4743Y-3.6078
X6.4743Y-3.6528
X6.4743Y-5.0128
X6.4743Y-5.0528
X6.4743Y-5.1328
X6.4743Y-5.1728
X6.4743Y-5.2128
X6.4743Y-5.2528
X6.478Y-3.7165
X6.4798Y-3.8523
X6.4798Y-3.88
X6.4831Y-4.1578
X6.4831Y-4.2178
X6.4849Y-4.5075
X6.4893Y-3.5728
X6.4943Y-3.6928
X6.4969Y-4.5335
X6.4989Y-4.4815
X6.4993Y-2.9878
X6.4993Y-3.0478
X6.5093Y-4.1878
X6.5143Y-5.0128
X6.5143Y-5.0528
X6.5143Y-5.0928
X6.5143Y-5.1328
X6.5143Y-5.1728
X6.5143Y-5.2128
X6.5143Y-5.2528
X6.5193Y-3.1078
X6.5193Y-3.5216
X6.5193Y-3.5493
X6.5193Y-3.8995
X6.5193Y-3.9272
X6.5205Y-4.5078
X6.5243Y-3.8578
X6.5293Y-3.994
X6.5293Y-4.0216
X6.5342Y-5.4578
X6.5342Y-5.4928
X6.5343Y-5.3628
X6.5343Y-5.3928
X6.5343Y-5.4228
X6.5343Y-5.5228
X6.5343Y-5.5528
X6.5343Y-5.5828
X6.5369Y-2.7555
X6.537Y-4.1878
X6.5383Y-3.7228
X6.5481Y-4.5078
X6.5493Y-3.5268
X6.5493Y-3.5728
X6.5493Y-4.0878
X6.5509Y-3.9155
X6.5543Y-5.2528
X6.5593Y-3.1478
X6.5593Y-3.8051
X6.5593Y-3.8327
X6.5593Y-4.0078
X6.5631Y-4.1578
X6.5631Y-4.2178
X6.5643Y-3.9468
X6.5643Y-3.9745
X6.5643Y-4.0478
X6.5643Y-5.3128
X6.5643Y-5.3828
X6.5643Y-5.4128
X6.5643Y-5.4428
X6.5643Y-5.4728
X6.5643Y-5.5028
X6.5643Y-5.5328
X6.5643Y-5.5628
X6.5643Y-5.5928
X6.5693Y-3.4744
X6.5693Y-3.502
X6.5709Y-4.4815
X6.5709Y-4.5335
X6.5793Y-4.3178
X6.5793Y-4.3678
X6.5793Y-4.6078
X6.5793Y-4.6878
X6.5793Y-4.7678
X6.5829Y-4.5075
X6.5869Y-3.6735
X6.5893Y-3.7778
X6.5893Y-3.8178
X6.5893Y-3.8578
X6.5893Y-3.9228
X6.5893Y-4.0028
X6.5909Y-4.8415
X6.5942Y-5.4578
X6.5942Y-5.4928
X6.5943Y-5.0128
X6.5943Y-5.0528
X6.5943Y-5.0928
X6.5943Y-5.1328
X6.5943Y-5.1728
X6.5943Y-5.2128
X6.5943Y-5.2528
X6.5943Y-5.2928
X6.5943Y-5.3928
X6.5943Y-5.4228
X6.5943Y-5.5228
X6.5943Y-5.5528
X6.5943Y-5.5828
X6.5983Y-3.4768
X6.5993Y-3.1878
X6.5993Y-3.5228
X6.5993Y-3.6078
X6.6193Y-3.4271
X6.6193Y-3.4548
X6.6243Y-5.3828
X6.6243Y-5.4128
X6.6243Y-5.4428
X6.6243Y-5.4728
X6.6243Y-5.5028
X6.6243Y-5.5328
X6.6243Y-5.5628
X6.6243Y-5.5928
X6.6343Y-5.2328
X6.6343Y-5.2728
X6.6343Y-5.3128
X6.6393Y-3.2278
X6.6393Y-3.5678
X6.6493Y-3.4728
X6.6503Y-3.4308
X6.6529Y-3.3055
X6.6543Y-4.9678
X6.6543Y-5.5528
X6.6543Y-5.5828
X6.6543Y-5.6128
X6.6693Y-3.3799
X6.6693Y-3.4075
X6.6743Y-5.2928
X6.6743Y-5.3328
X6.6793Y-3.2678
X6.6793Y-3.5278
X6.6843Y-5.1228
X6.6993Y-3.3578
X6.6993Y-3.4278
X6.7143Y-5.2728
X6.7143Y-5.3128
X6.7193Y-3.3078
X6.7193Y-3.4878
X6.7313Y-5.3498
X6.7329Y-5.0035
X6.7593Y-3.3478
X6.7593Y-3.4478
X6.7643Y-5.7278
X6.8749Y-4.9635
X6.8993Y-3.4078
X6.9793Y-3.4078
X6.9803Y-5.6608
X7.0203Y-5.6108
X7.0403Y-5.3668
X7.0403Y-5.3888
X7.0593Y-3.4078
X7.1075Y-5.2728
X7.1075Y-5.3128
X7.1075Y-5.3528
X7.1134Y-5.3937
X7.1243Y-5.4328
X7.1334Y-5.3287
X7.1343Y-5.3728
X7.1393Y-3.4078
X7.1393Y-5.4128
X7.159Y-5.3428
X7.1593Y-5.4128
X7.1643Y-5.3928
X7.1643Y-5.4328
X7.1729Y-5.4995
X7.1743Y-5.3728
X7.1843Y-5.2178
X7.1893Y-4.9278
X7.1893Y-5.5778
X7.2223Y-5.3268
X7.2223Y-5.3508
X7.2579Y-5.4392
X7.2793Y-5.3278
X7.2819Y-5.4161
X7.2977Y-5.3964
X7.3093Y-5.2278
X7.3174Y-5.4161
X7.3409Y-3.5535
X7.3568Y-5.5553
X7.3743Y-5.6028
X7.3843Y-5.3328
X7.3993Y-4.0078
X7.4033Y-3.8038
X7.4203Y-3.8508
X7.4223Y-3.5068
X7.4363Y-3.4368
X7.4393Y-3.8028
X7.4403Y-3.5308
X7.4443Y-3.8948
X7.4493Y-3.8378
X7.4543Y-3.8678
X7.4643Y-3.9178
X7.4683Y-3.5028
X7.4683Y-3.5548
X7.4693Y-5.5515
X7.4788Y-5.42
X7.4843Y-3.3778
X7.4843Y-3.8628
X7.4843Y-4.1328
X7.4869Y-3.5908
X7.4893Y-3.8928
X7.4943Y-3.4878
X7.4985Y-5.4003
X7.4993Y-3.7478
X7.4993Y-3.7978
X7.5023Y-3.5208
X7.5063Y-5.4239
X7.5193Y-3.5428
X7.5209Y-3.3475
X7.5243Y-3.7678
X7.5293Y-3.7378
X7.5322Y-5.3268
X7.5329Y-3.1995
X7.5343Y-3.6828
X7.5443Y-3.5198
X7.5443Y-3.6228
X7.5449Y-5.4215
X7.5493Y-3.7078
X7.5571Y-3.0236
X7.5643Y-4.2128
X7.5722Y-5.3668
X7.5728Y-2.9882
X7.5769Y-4.8835
X7.5969Y-3.5255
X7.5973Y-3.6028
X7.5993Y-3.4528
X7.5993Y-3.6628
X7.6043Y-3.6928
X7.6129Y-5.4995
X7.6203Y-3.4328
X7.6288Y-4.0783
X7.6293Y-3.7178
X7.6443Y-4.2928
X7.6443Y-5.6428
X7.6793Y-3.4803
X7.6793Y-3.5278
X7.6813Y-3.811
X7.6813Y-3.8896
X7.6813Y-3.9685
X7.6843Y-5.5155
X7.6893Y-3.3701
X7.6893Y-3.5591
X7.6893Y-3.6078
X7.6893Y-4.0787
X7.6893Y-4.126
X7.6993Y-3.6628
X7.7067Y-4.0233
X7.7093Y-3.5178
X7.7093Y-3.6328
X7.7193Y-3.3878
X7.7193Y-4.0588
X7.7199Y-3.3259
X7.7263Y-3.9048
X7.7293Y-3.4328
X7.7349Y-5.1015
X7.7363Y-3.7928
X7.7369Y-5.1855
X7.7389Y-3.1995
X7.7393Y-3.7165
X7.7393Y-3.874
X7.7393Y-4.0787
X7.7393Y-4.126
X7.7433Y-3.9398
X7.7443Y-3.5748
X7.7451Y-3.822
X7.7463Y-3.5458
X7.7472Y-3.5118
X7.7483Y-3.4108
X7.7493Y-4.3678
X7.7743Y-4.6728
X7.7753Y-5.5258
X7.7989Y-3.1995
X7.8013Y-3.9848
X7.8083Y-3.6168
X7.8083Y-3.7448
X7.8093Y-3.5878
X7.8113Y-3.9268
X7.8143Y-5.6128
X7.8153Y-5.5708
X7.8158Y-3.405
X7.8193Y-4.126
X7.8203Y-4.0128
X7.8333Y-3.4278
X7.8363Y-3.7548
X7.8369Y-2.7775
X7.8384Y-3.7869
X7.8403Y-3.7188
X7.8593Y-5.7128
X7.8625Y-3.4846
X7.8643Y-3.4488
X7.8643Y-3.5118
X7.8663Y-3.5528
X7.8793Y-3.5276
X7.8937Y-3.4728
X7.8943Y-3.5118
X7.8943Y-3.4928
X7.9068Y-3.4503
X7.9137Y-3.5272
X7.9149Y-3.0995
X7.9287Y-3.5122
X7.9293Y-3.4728
X7.9443Y-5.7028
X7.9493Y-3.2652
X7.9593Y-3.4478
X7.9643Y-3.7268
X7.9869Y-3.0995
X8.0056Y-3.2678
X8.0056Y-3.4378
X8.0093Y-3.1878
X8.0109Y-5.6395
X8.0509Y-2.7775
X8.0693Y-3.3578
X8.0743Y-3.1417
X8.0793Y-3.2278
X8.0883Y-3.4608
X8.0889Y-3.1855
X8.0923Y-4.7648
X8.0943Y-3.6028
X8.0943Y-4.8678
T3
X6.1324Y-4.62
X6.1324Y-4.7184
X6.1324Y-4.7972
X6.1324Y-4.8956
X6.1914Y-4.6003
X6.1914Y-4.6791
X6.1914Y-4.7578
X6.1914Y-4.8365
X6.1914Y-4.9153
T4
X7.2774Y-5.0034
X7.2774Y-5.0822
X7.3562Y-5.0034
X7.3562Y-5.0822
X7.4349Y-5.0034
X7.4349Y-5.0822
X7.5137Y-5.0034
X7.5137Y-5.0822
X7.5924Y-5.0034
X7.5924Y-5.0822
X7.6711Y-5.0034
X7.6711Y-5.0822
T5
X6.2793Y-5.5478
X6.2793Y-5.6478
X7.9193Y-3.6678
X7.9193Y-3.7678
X7.9193Y-3.8678
X7.9193Y-3.9678
X7.9193Y-4.0678
X7.9193Y-4.1678
X7.9193Y-4.2678
X7.9193Y-4.3678
X7.9193Y-4.4678
X7.9193Y-4.5678
X7.9193Y-4.6678
X7.9193Y-4.7678
X7.9193Y-4.8678
X7.9193Y-4.9678
X7.9193Y-5.0678
X7.9193Y-5.1678
X7.9193Y-5.2678
X7.9193Y-5.3678
X7.9193Y-5.4678
X7.9193Y-5.5678
X8.0193Y-3.6678
X8.0193Y-3.7678
X8.0193Y-3.8678
X8.0193Y-3.9678
X8.0193Y-4.0678
X8.0193Y-4.1678
X8.0193Y-4.2678
X8.0193Y-4.3678
X8.0193Y-4.4678
X8.0193Y-4.5678
X8.0193Y-4.6678
X8.0193Y-4.7678
X8.0193Y-4.8678
X8.0193Y-4.9678
X8.0193Y-5.0678
X8.0193Y-5.1678
X8.0193Y-5.2678
X8.0193Y-5.3678
X8.0193Y-5.4678
X8.0193Y-5.5678
T6
X5.9243Y-5.3778
X5.9243Y-5.5778
T2
G00X5.843Y-4.5058
M15
G01X5.8115Y-4.5058
M16
G05
G00X5.843Y-5.0098
M15
G01X5.8115Y-5.0098
M16
G05
G00X6.1835Y-4.5058
M15
G01X6.1402Y-4.5058
M16
G05
G00X6.1835Y-5.0098
M15
G01X6.1402Y-5.0098
M16
G05
G00X7.2221Y-5.4779
M15
G01X7.2221Y-5.5212
M16
G05
G00X7.2221Y-5.6483
M15
G01X7.2221Y-5.6798
M16
G05
G00X7.5622Y-5.4779
M15
G01X7.5622Y-5.5212
M16
G05
G00X7.5622Y-5.6483
M15
G01X7.5622Y-5.6798
M16
G05
M30
