G04 #@! TF.GenerationSoftware,KiCad,Pcbnew,9.0.3*
G04 #@! TF.CreationDate,2026-01-22T21:48:59+01:00*
G04 #@! TF.ProjectId,CM5IO,434d3549-4f2e-46b6-9963-61645f706362,rev?*
G04 #@! TF.SameCoordinates,Original*
G04 #@! TF.FileFunction,AssemblyDrawing,Bot*
%FSLAX46Y46*%
G04 Gerber Fmt 4.6, Leading zero omitted, Abs format (unit mm)*
G04 Created by KiCad (PCBNEW 9.0.3) date 2026-01-22 21:48:59*
%MOMM*%
%LPD*%
G01*
G04 APERTURE LIST*
%ADD10C,0.150000*%
%ADD11C,0.040000*%
%ADD12C,0.075000*%
%ADD13C,0.015000*%
%ADD14C,0.080000*%
%ADD15C,0.060000*%
%ADD16C,0.100000*%
%ADD17C,0.127000*%
%ADD18C,0.200000*%
G04 #@! TA.AperFunction,Profile*
%ADD19C,0.050000*%
G04 #@! TD*
G04 APERTURE END LIST*
D10*
X154714819Y-83660952D02*
X154714819Y-83089524D01*
X154714819Y-83375238D02*
X153714819Y-83375238D01*
X153714819Y-83375238D02*
X153857676Y-83280000D01*
X153857676Y-83280000D02*
X153952914Y-83184762D01*
X153952914Y-83184762D02*
X154000533Y-83089524D01*
X153714819Y-84280000D02*
X153714819Y-84375238D01*
X153714819Y-84375238D02*
X153762438Y-84470476D01*
X153762438Y-84470476D02*
X153810057Y-84518095D01*
X153810057Y-84518095D02*
X153905295Y-84565714D01*
X153905295Y-84565714D02*
X154095771Y-84613333D01*
X154095771Y-84613333D02*
X154333866Y-84613333D01*
X154333866Y-84613333D02*
X154524342Y-84565714D01*
X154524342Y-84565714D02*
X154619580Y-84518095D01*
X154619580Y-84518095D02*
X154667200Y-84470476D01*
X154667200Y-84470476D02*
X154714819Y-84375238D01*
X154714819Y-84375238D02*
X154714819Y-84280000D01*
X154714819Y-84280000D02*
X154667200Y-84184762D01*
X154667200Y-84184762D02*
X154619580Y-84137143D01*
X154619580Y-84137143D02*
X154524342Y-84089524D01*
X154524342Y-84089524D02*
X154333866Y-84041905D01*
X154333866Y-84041905D02*
X154095771Y-84041905D01*
X154095771Y-84041905D02*
X153905295Y-84089524D01*
X153905295Y-84089524D02*
X153810057Y-84137143D01*
X153810057Y-84137143D02*
X153762438Y-84184762D01*
X153762438Y-84184762D02*
X153714819Y-84280000D01*
X153714819Y-85232381D02*
X153714819Y-85327619D01*
X153714819Y-85327619D02*
X153762438Y-85422857D01*
X153762438Y-85422857D02*
X153810057Y-85470476D01*
X153810057Y-85470476D02*
X153905295Y-85518095D01*
X153905295Y-85518095D02*
X154095771Y-85565714D01*
X154095771Y-85565714D02*
X154333866Y-85565714D01*
X154333866Y-85565714D02*
X154524342Y-85518095D01*
X154524342Y-85518095D02*
X154619580Y-85470476D01*
X154619580Y-85470476D02*
X154667200Y-85422857D01*
X154667200Y-85422857D02*
X154714819Y-85327619D01*
X154714819Y-85327619D02*
X154714819Y-85232381D01*
X154714819Y-85232381D02*
X154667200Y-85137143D01*
X154667200Y-85137143D02*
X154619580Y-85089524D01*
X154619580Y-85089524D02*
X154524342Y-85041905D01*
X154524342Y-85041905D02*
X154333866Y-84994286D01*
X154333866Y-84994286D02*
X154095771Y-84994286D01*
X154095771Y-84994286D02*
X153905295Y-85041905D01*
X153905295Y-85041905D02*
X153810057Y-85089524D01*
X153810057Y-85089524D02*
X153762438Y-85137143D01*
X153762438Y-85137143D02*
X153714819Y-85232381D01*
X154048152Y-85994286D02*
X154714819Y-85994286D01*
X154143390Y-85994286D02*
X154095771Y-86041905D01*
X154095771Y-86041905D02*
X154048152Y-86137143D01*
X154048152Y-86137143D02*
X154048152Y-86280000D01*
X154048152Y-86280000D02*
X154095771Y-86375238D01*
X154095771Y-86375238D02*
X154191009Y-86422857D01*
X154191009Y-86422857D02*
X154714819Y-86422857D01*
D11*
X155519765Y-84619285D02*
X155531670Y-84607381D01*
X155531670Y-84607381D02*
X155543574Y-84571666D01*
X155543574Y-84571666D02*
X155543574Y-84547857D01*
X155543574Y-84547857D02*
X155531670Y-84512143D01*
X155531670Y-84512143D02*
X155507860Y-84488333D01*
X155507860Y-84488333D02*
X155484050Y-84476428D01*
X155484050Y-84476428D02*
X155436431Y-84464524D01*
X155436431Y-84464524D02*
X155400717Y-84464524D01*
X155400717Y-84464524D02*
X155353098Y-84476428D01*
X155353098Y-84476428D02*
X155329289Y-84488333D01*
X155329289Y-84488333D02*
X155305479Y-84512143D01*
X155305479Y-84512143D02*
X155293574Y-84547857D01*
X155293574Y-84547857D02*
X155293574Y-84571666D01*
X155293574Y-84571666D02*
X155305479Y-84607381D01*
X155305479Y-84607381D02*
X155317384Y-84619285D01*
X155543574Y-84857381D02*
X155543574Y-84714524D01*
X155543574Y-84785952D02*
X155293574Y-84785952D01*
X155293574Y-84785952D02*
X155329289Y-84762143D01*
X155329289Y-84762143D02*
X155353098Y-84738333D01*
X155353098Y-84738333D02*
X155365003Y-84714524D01*
X155317384Y-84952619D02*
X155305479Y-84964523D01*
X155305479Y-84964523D02*
X155293574Y-84988333D01*
X155293574Y-84988333D02*
X155293574Y-85047857D01*
X155293574Y-85047857D02*
X155305479Y-85071666D01*
X155305479Y-85071666D02*
X155317384Y-85083571D01*
X155317384Y-85083571D02*
X155341193Y-85095476D01*
X155341193Y-85095476D02*
X155365003Y-85095476D01*
X155365003Y-85095476D02*
X155400717Y-85083571D01*
X155400717Y-85083571D02*
X155543574Y-84940714D01*
X155543574Y-84940714D02*
X155543574Y-85095476D01*
D10*
X154413117Y-88127150D02*
X154413117Y-87555722D01*
X154413117Y-87841436D02*
X153413117Y-87841436D01*
X153413117Y-87841436D02*
X153555974Y-87746198D01*
X153555974Y-87746198D02*
X153651212Y-87650960D01*
X153651212Y-87650960D02*
X153698831Y-87555722D01*
X153413117Y-88746198D02*
X153413117Y-88841436D01*
X153413117Y-88841436D02*
X153460736Y-88936674D01*
X153460736Y-88936674D02*
X153508355Y-88984293D01*
X153508355Y-88984293D02*
X153603593Y-89031912D01*
X153603593Y-89031912D02*
X153794069Y-89079531D01*
X153794069Y-89079531D02*
X154032164Y-89079531D01*
X154032164Y-89079531D02*
X154222640Y-89031912D01*
X154222640Y-89031912D02*
X154317878Y-88984293D01*
X154317878Y-88984293D02*
X154365498Y-88936674D01*
X154365498Y-88936674D02*
X154413117Y-88841436D01*
X154413117Y-88841436D02*
X154413117Y-88746198D01*
X154413117Y-88746198D02*
X154365498Y-88650960D01*
X154365498Y-88650960D02*
X154317878Y-88603341D01*
X154317878Y-88603341D02*
X154222640Y-88555722D01*
X154222640Y-88555722D02*
X154032164Y-88508103D01*
X154032164Y-88508103D02*
X153794069Y-88508103D01*
X153794069Y-88508103D02*
X153603593Y-88555722D01*
X153603593Y-88555722D02*
X153508355Y-88603341D01*
X153508355Y-88603341D02*
X153460736Y-88650960D01*
X153460736Y-88650960D02*
X153413117Y-88746198D01*
X153413117Y-89698579D02*
X153413117Y-89793817D01*
X153413117Y-89793817D02*
X153460736Y-89889055D01*
X153460736Y-89889055D02*
X153508355Y-89936674D01*
X153508355Y-89936674D02*
X153603593Y-89984293D01*
X153603593Y-89984293D02*
X153794069Y-90031912D01*
X153794069Y-90031912D02*
X154032164Y-90031912D01*
X154032164Y-90031912D02*
X154222640Y-89984293D01*
X154222640Y-89984293D02*
X154317878Y-89936674D01*
X154317878Y-89936674D02*
X154365498Y-89889055D01*
X154365498Y-89889055D02*
X154413117Y-89793817D01*
X154413117Y-89793817D02*
X154413117Y-89698579D01*
X154413117Y-89698579D02*
X154365498Y-89603341D01*
X154365498Y-89603341D02*
X154317878Y-89555722D01*
X154317878Y-89555722D02*
X154222640Y-89508103D01*
X154222640Y-89508103D02*
X154032164Y-89460484D01*
X154032164Y-89460484D02*
X153794069Y-89460484D01*
X153794069Y-89460484D02*
X153603593Y-89508103D01*
X153603593Y-89508103D02*
X153508355Y-89555722D01*
X153508355Y-89555722D02*
X153460736Y-89603341D01*
X153460736Y-89603341D02*
X153413117Y-89698579D01*
X153746450Y-90460484D02*
X154413117Y-90460484D01*
X153841688Y-90460484D02*
X153794069Y-90508103D01*
X153794069Y-90508103D02*
X153746450Y-90603341D01*
X153746450Y-90603341D02*
X153746450Y-90746198D01*
X153746450Y-90746198D02*
X153794069Y-90841436D01*
X153794069Y-90841436D02*
X153889307Y-90889055D01*
X153889307Y-90889055D02*
X154413117Y-90889055D01*
D11*
X152878063Y-89085483D02*
X152889968Y-89073579D01*
X152889968Y-89073579D02*
X152901872Y-89037864D01*
X152901872Y-89037864D02*
X152901872Y-89014055D01*
X152901872Y-89014055D02*
X152889968Y-88978341D01*
X152889968Y-88978341D02*
X152866158Y-88954531D01*
X152866158Y-88954531D02*
X152842348Y-88942626D01*
X152842348Y-88942626D02*
X152794729Y-88930722D01*
X152794729Y-88930722D02*
X152759015Y-88930722D01*
X152759015Y-88930722D02*
X152711396Y-88942626D01*
X152711396Y-88942626D02*
X152687587Y-88954531D01*
X152687587Y-88954531D02*
X152663777Y-88978341D01*
X152663777Y-88978341D02*
X152651872Y-89014055D01*
X152651872Y-89014055D02*
X152651872Y-89037864D01*
X152651872Y-89037864D02*
X152663777Y-89073579D01*
X152663777Y-89073579D02*
X152675682Y-89085483D01*
X152901872Y-89323579D02*
X152901872Y-89180722D01*
X152901872Y-89252150D02*
X152651872Y-89252150D01*
X152651872Y-89252150D02*
X152687587Y-89228341D01*
X152687587Y-89228341D02*
X152711396Y-89204531D01*
X152711396Y-89204531D02*
X152723301Y-89180722D01*
X152651872Y-89406912D02*
X152651872Y-89561674D01*
X152651872Y-89561674D02*
X152747110Y-89478340D01*
X152747110Y-89478340D02*
X152747110Y-89514055D01*
X152747110Y-89514055D02*
X152759015Y-89537864D01*
X152759015Y-89537864D02*
X152770920Y-89549769D01*
X152770920Y-89549769D02*
X152794729Y-89561674D01*
X152794729Y-89561674D02*
X152854253Y-89561674D01*
X152854253Y-89561674D02*
X152878063Y-89549769D01*
X152878063Y-89549769D02*
X152889968Y-89537864D01*
X152889968Y-89537864D02*
X152901872Y-89514055D01*
X152901872Y-89514055D02*
X152901872Y-89442626D01*
X152901872Y-89442626D02*
X152889968Y-89418817D01*
X152889968Y-89418817D02*
X152878063Y-89406912D01*
D10*
X155592762Y-89324819D02*
X155926095Y-88848628D01*
X156164190Y-89324819D02*
X156164190Y-88324819D01*
X156164190Y-88324819D02*
X155783238Y-88324819D01*
X155783238Y-88324819D02*
X155688000Y-88372438D01*
X155688000Y-88372438D02*
X155640381Y-88420057D01*
X155640381Y-88420057D02*
X155592762Y-88515295D01*
X155592762Y-88515295D02*
X155592762Y-88658152D01*
X155592762Y-88658152D02*
X155640381Y-88753390D01*
X155640381Y-88753390D02*
X155688000Y-88801009D01*
X155688000Y-88801009D02*
X155783238Y-88848628D01*
X155783238Y-88848628D02*
X156164190Y-88848628D01*
X155307047Y-88324819D02*
X154735619Y-88324819D01*
X155021333Y-89324819D02*
X155021333Y-88324819D01*
X154354666Y-89324819D02*
X154164190Y-89324819D01*
X154164190Y-89324819D02*
X154068952Y-89277200D01*
X154068952Y-89277200D02*
X154021333Y-89229580D01*
X154021333Y-89229580D02*
X153926095Y-89086723D01*
X153926095Y-89086723D02*
X153878476Y-88896247D01*
X153878476Y-88896247D02*
X153878476Y-88515295D01*
X153878476Y-88515295D02*
X153926095Y-88420057D01*
X153926095Y-88420057D02*
X153973714Y-88372438D01*
X153973714Y-88372438D02*
X154068952Y-88324819D01*
X154068952Y-88324819D02*
X154259428Y-88324819D01*
X154259428Y-88324819D02*
X154354666Y-88372438D01*
X154354666Y-88372438D02*
X154402285Y-88420057D01*
X154402285Y-88420057D02*
X154449904Y-88515295D01*
X154449904Y-88515295D02*
X154449904Y-88753390D01*
X154449904Y-88753390D02*
X154402285Y-88848628D01*
X154402285Y-88848628D02*
X154354666Y-88896247D01*
X154354666Y-88896247D02*
X154259428Y-88943866D01*
X154259428Y-88943866D02*
X154068952Y-88943866D01*
X154068952Y-88943866D02*
X153973714Y-88896247D01*
X153973714Y-88896247D02*
X153926095Y-88848628D01*
X153926095Y-88848628D02*
X153878476Y-88753390D01*
X153545142Y-88324819D02*
X152878476Y-88324819D01*
X152878476Y-88324819D02*
X153307047Y-89324819D01*
X152068952Y-88658152D02*
X152068952Y-89324819D01*
X152307047Y-88277200D02*
X152545142Y-88991485D01*
X152545142Y-88991485D02*
X151926095Y-88991485D01*
X151592761Y-88420057D02*
X151545142Y-88372438D01*
X151545142Y-88372438D02*
X151449904Y-88324819D01*
X151449904Y-88324819D02*
X151211809Y-88324819D01*
X151211809Y-88324819D02*
X151116571Y-88372438D01*
X151116571Y-88372438D02*
X151068952Y-88420057D01*
X151068952Y-88420057D02*
X151021333Y-88515295D01*
X151021333Y-88515295D02*
X151021333Y-88610533D01*
X151021333Y-88610533D02*
X151068952Y-88753390D01*
X151068952Y-88753390D02*
X151640380Y-89324819D01*
X151640380Y-89324819D02*
X151021333Y-89324819D01*
X150640380Y-89277200D02*
X150497523Y-89324819D01*
X150497523Y-89324819D02*
X150259428Y-89324819D01*
X150259428Y-89324819D02*
X150164190Y-89277200D01*
X150164190Y-89277200D02*
X150116571Y-89229580D01*
X150116571Y-89229580D02*
X150068952Y-89134342D01*
X150068952Y-89134342D02*
X150068952Y-89039104D01*
X150068952Y-89039104D02*
X150116571Y-88943866D01*
X150116571Y-88943866D02*
X150164190Y-88896247D01*
X150164190Y-88896247D02*
X150259428Y-88848628D01*
X150259428Y-88848628D02*
X150449904Y-88801009D01*
X150449904Y-88801009D02*
X150545142Y-88753390D01*
X150545142Y-88753390D02*
X150592761Y-88705771D01*
X150592761Y-88705771D02*
X150640380Y-88610533D01*
X150640380Y-88610533D02*
X150640380Y-88515295D01*
X150640380Y-88515295D02*
X150592761Y-88420057D01*
X150592761Y-88420057D02*
X150545142Y-88372438D01*
X150545142Y-88372438D02*
X150449904Y-88324819D01*
X150449904Y-88324819D02*
X150211809Y-88324819D01*
X150211809Y-88324819D02*
X150068952Y-88372438D01*
X149640380Y-89324819D02*
X149640380Y-88324819D01*
X149640380Y-88324819D02*
X149068952Y-89324819D01*
X149068952Y-89324819D02*
X149068952Y-88324819D01*
X148068952Y-88372438D02*
X148164190Y-88324819D01*
X148164190Y-88324819D02*
X148307047Y-88324819D01*
X148307047Y-88324819D02*
X148449904Y-88372438D01*
X148449904Y-88372438D02*
X148545142Y-88467676D01*
X148545142Y-88467676D02*
X148592761Y-88562914D01*
X148592761Y-88562914D02*
X148640380Y-88753390D01*
X148640380Y-88753390D02*
X148640380Y-88896247D01*
X148640380Y-88896247D02*
X148592761Y-89086723D01*
X148592761Y-89086723D02*
X148545142Y-89181961D01*
X148545142Y-89181961D02*
X148449904Y-89277200D01*
X148449904Y-89277200D02*
X148307047Y-89324819D01*
X148307047Y-89324819D02*
X148211809Y-89324819D01*
X148211809Y-89324819D02*
X148068952Y-89277200D01*
X148068952Y-89277200D02*
X148021333Y-89229580D01*
X148021333Y-89229580D02*
X148021333Y-88896247D01*
X148021333Y-88896247D02*
X148211809Y-88896247D01*
X147735618Y-88324819D02*
X147402285Y-89324819D01*
X147402285Y-89324819D02*
X147068952Y-88324819D01*
D12*
X151415409Y-85750952D02*
X151820171Y-85750952D01*
X151820171Y-85750952D02*
X151867790Y-85774762D01*
X151867790Y-85774762D02*
X151891600Y-85798571D01*
X151891600Y-85798571D02*
X151915409Y-85846190D01*
X151915409Y-85846190D02*
X151915409Y-85941428D01*
X151915409Y-85941428D02*
X151891600Y-85989047D01*
X151891600Y-85989047D02*
X151867790Y-86012857D01*
X151867790Y-86012857D02*
X151820171Y-86036666D01*
X151820171Y-86036666D02*
X151415409Y-86036666D01*
X151915409Y-86536667D02*
X151915409Y-86250953D01*
X151915409Y-86393810D02*
X151415409Y-86393810D01*
X151415409Y-86393810D02*
X151486838Y-86346191D01*
X151486838Y-86346191D02*
X151534457Y-86298572D01*
X151534457Y-86298572D02*
X151558266Y-86250953D01*
X151463028Y-86727143D02*
X151439219Y-86750952D01*
X151439219Y-86750952D02*
X151415409Y-86798571D01*
X151415409Y-86798571D02*
X151415409Y-86917619D01*
X151415409Y-86917619D02*
X151439219Y-86965238D01*
X151439219Y-86965238D02*
X151463028Y-86989047D01*
X151463028Y-86989047D02*
X151510647Y-87012857D01*
X151510647Y-87012857D02*
X151558266Y-87012857D01*
X151558266Y-87012857D02*
X151629695Y-86989047D01*
X151629695Y-86989047D02*
X151915409Y-86703333D01*
X151915409Y-86703333D02*
X151915409Y-87012857D01*
D13*
X190723201Y-73481971D02*
X189722107Y-73481971D01*
X189722107Y-73481971D02*
X190437174Y-73815669D01*
X190437174Y-73815669D02*
X189722107Y-74149367D01*
X189722107Y-74149367D02*
X190723201Y-74149367D01*
X190723201Y-74626078D02*
X190055805Y-74626078D01*
X189722107Y-74626078D02*
X189769778Y-74578407D01*
X189769778Y-74578407D02*
X189817449Y-74626078D01*
X189817449Y-74626078D02*
X189769778Y-74673749D01*
X189769778Y-74673749D02*
X189722107Y-74626078D01*
X189722107Y-74626078D02*
X189817449Y-74626078D01*
X190675530Y-75531830D02*
X190723201Y-75436487D01*
X190723201Y-75436487D02*
X190723201Y-75245803D01*
X190723201Y-75245803D02*
X190675530Y-75150460D01*
X190675530Y-75150460D02*
X190627858Y-75102789D01*
X190627858Y-75102789D02*
X190532516Y-75055118D01*
X190532516Y-75055118D02*
X190246489Y-75055118D01*
X190246489Y-75055118D02*
X190151147Y-75102789D01*
X190151147Y-75102789D02*
X190103476Y-75150460D01*
X190103476Y-75150460D02*
X190055805Y-75245803D01*
X190055805Y-75245803D02*
X190055805Y-75436487D01*
X190055805Y-75436487D02*
X190103476Y-75531830D01*
X190723201Y-75960870D02*
X190055805Y-75960870D01*
X190246489Y-75960870D02*
X190151147Y-76008541D01*
X190151147Y-76008541D02*
X190103476Y-76056213D01*
X190103476Y-76056213D02*
X190055805Y-76151555D01*
X190055805Y-76151555D02*
X190055805Y-76246897D01*
X190723201Y-76723609D02*
X190675530Y-76628266D01*
X190675530Y-76628266D02*
X190627858Y-76580595D01*
X190627858Y-76580595D02*
X190532516Y-76532924D01*
X190532516Y-76532924D02*
X190246489Y-76532924D01*
X190246489Y-76532924D02*
X190151147Y-76580595D01*
X190151147Y-76580595D02*
X190103476Y-76628266D01*
X190103476Y-76628266D02*
X190055805Y-76723609D01*
X190055805Y-76723609D02*
X190055805Y-76866622D01*
X190055805Y-76866622D02*
X190103476Y-76961964D01*
X190103476Y-76961964D02*
X190151147Y-77009636D01*
X190151147Y-77009636D02*
X190246489Y-77057307D01*
X190246489Y-77057307D02*
X190532516Y-77057307D01*
X190532516Y-77057307D02*
X190627858Y-77009636D01*
X190627858Y-77009636D02*
X190675530Y-76961964D01*
X190675530Y-76961964D02*
X190723201Y-76866622D01*
X190723201Y-76866622D02*
X190723201Y-76723609D01*
X190818543Y-77247992D02*
X190818543Y-78010730D01*
X190675530Y-78201414D02*
X190723201Y-78344428D01*
X190723201Y-78344428D02*
X190723201Y-78582783D01*
X190723201Y-78582783D02*
X190675530Y-78678126D01*
X190675530Y-78678126D02*
X190627858Y-78725797D01*
X190627858Y-78725797D02*
X190532516Y-78773468D01*
X190532516Y-78773468D02*
X190437174Y-78773468D01*
X190437174Y-78773468D02*
X190341832Y-78725797D01*
X190341832Y-78725797D02*
X190294160Y-78678126D01*
X190294160Y-78678126D02*
X190246489Y-78582783D01*
X190246489Y-78582783D02*
X190198818Y-78392099D01*
X190198818Y-78392099D02*
X190151147Y-78296756D01*
X190151147Y-78296756D02*
X190103476Y-78249085D01*
X190103476Y-78249085D02*
X190008134Y-78201414D01*
X190008134Y-78201414D02*
X189912791Y-78201414D01*
X189912791Y-78201414D02*
X189817449Y-78249085D01*
X189817449Y-78249085D02*
X189769778Y-78296756D01*
X189769778Y-78296756D02*
X189722107Y-78392099D01*
X189722107Y-78392099D02*
X189722107Y-78630454D01*
X189722107Y-78630454D02*
X189769778Y-78773468D01*
X190723201Y-79202508D02*
X189722107Y-79202508D01*
X189722107Y-79202508D02*
X189722107Y-79440864D01*
X189722107Y-79440864D02*
X189769778Y-79583877D01*
X189769778Y-79583877D02*
X189865120Y-79679220D01*
X189865120Y-79679220D02*
X189960462Y-79726891D01*
X189960462Y-79726891D02*
X190151147Y-79774562D01*
X190151147Y-79774562D02*
X190294160Y-79774562D01*
X190294160Y-79774562D02*
X190484845Y-79726891D01*
X190484845Y-79726891D02*
X190580187Y-79679220D01*
X190580187Y-79679220D02*
X190675530Y-79583877D01*
X190675530Y-79583877D02*
X190723201Y-79440864D01*
X190723201Y-79440864D02*
X190723201Y-79202508D01*
X190818543Y-79965247D02*
X190818543Y-80727985D01*
X190627858Y-81538394D02*
X190675530Y-81490723D01*
X190675530Y-81490723D02*
X190723201Y-81347709D01*
X190723201Y-81347709D02*
X190723201Y-81252367D01*
X190723201Y-81252367D02*
X190675530Y-81109354D01*
X190675530Y-81109354D02*
X190580187Y-81014011D01*
X190580187Y-81014011D02*
X190484845Y-80966340D01*
X190484845Y-80966340D02*
X190294160Y-80918669D01*
X190294160Y-80918669D02*
X190151147Y-80918669D01*
X190151147Y-80918669D02*
X189960462Y-80966340D01*
X189960462Y-80966340D02*
X189865120Y-81014011D01*
X189865120Y-81014011D02*
X189769778Y-81109354D01*
X189769778Y-81109354D02*
X189722107Y-81252367D01*
X189722107Y-81252367D02*
X189722107Y-81347709D01*
X189722107Y-81347709D02*
X189769778Y-81490723D01*
X189769778Y-81490723D02*
X189817449Y-81538394D01*
X190723201Y-82396475D02*
X190198818Y-82396475D01*
X190198818Y-82396475D02*
X190103476Y-82348803D01*
X190103476Y-82348803D02*
X190055805Y-82253461D01*
X190055805Y-82253461D02*
X190055805Y-82062777D01*
X190055805Y-82062777D02*
X190103476Y-81967434D01*
X190675530Y-82396475D02*
X190723201Y-82301132D01*
X190723201Y-82301132D02*
X190723201Y-82062777D01*
X190723201Y-82062777D02*
X190675530Y-81967434D01*
X190675530Y-81967434D02*
X190580187Y-81919763D01*
X190580187Y-81919763D02*
X190484845Y-81919763D01*
X190484845Y-81919763D02*
X190389503Y-81967434D01*
X190389503Y-81967434D02*
X190341832Y-82062777D01*
X190341832Y-82062777D02*
X190341832Y-82301132D01*
X190341832Y-82301132D02*
X190294160Y-82396475D01*
X190723201Y-82873186D02*
X190055805Y-82873186D01*
X190246489Y-82873186D02*
X190151147Y-82920857D01*
X190151147Y-82920857D02*
X190103476Y-82968529D01*
X190103476Y-82968529D02*
X190055805Y-83063871D01*
X190055805Y-83063871D02*
X190055805Y-83159213D01*
X190723201Y-83921952D02*
X189722107Y-83921952D01*
X190675530Y-83921952D02*
X190723201Y-83826609D01*
X190723201Y-83826609D02*
X190723201Y-83635925D01*
X190723201Y-83635925D02*
X190675530Y-83540582D01*
X190675530Y-83540582D02*
X190627858Y-83492911D01*
X190627858Y-83492911D02*
X190532516Y-83445240D01*
X190532516Y-83445240D02*
X190246489Y-83445240D01*
X190246489Y-83445240D02*
X190151147Y-83492911D01*
X190151147Y-83492911D02*
X190103476Y-83540582D01*
X190103476Y-83540582D02*
X190055805Y-83635925D01*
X190055805Y-83635925D02*
X190055805Y-83826609D01*
X190055805Y-83826609D02*
X190103476Y-83921952D01*
X190818543Y-84160308D02*
X190818543Y-84923046D01*
X190723201Y-85161401D02*
X189722107Y-85161401D01*
X189722107Y-85161401D02*
X189722107Y-85399757D01*
X189722107Y-85399757D02*
X189769778Y-85542770D01*
X189769778Y-85542770D02*
X189865120Y-85638113D01*
X189865120Y-85638113D02*
X189960462Y-85685784D01*
X189960462Y-85685784D02*
X190151147Y-85733455D01*
X190151147Y-85733455D02*
X190294160Y-85733455D01*
X190294160Y-85733455D02*
X190484845Y-85685784D01*
X190484845Y-85685784D02*
X190580187Y-85638113D01*
X190580187Y-85638113D02*
X190675530Y-85542770D01*
X190675530Y-85542770D02*
X190723201Y-85399757D01*
X190723201Y-85399757D02*
X190723201Y-85161401D01*
X190675530Y-86543864D02*
X190723201Y-86448522D01*
X190723201Y-86448522D02*
X190723201Y-86257838D01*
X190723201Y-86257838D02*
X190675530Y-86162495D01*
X190675530Y-86162495D02*
X190580187Y-86114824D01*
X190580187Y-86114824D02*
X190198818Y-86114824D01*
X190198818Y-86114824D02*
X190103476Y-86162495D01*
X190103476Y-86162495D02*
X190055805Y-86257838D01*
X190055805Y-86257838D02*
X190055805Y-86448522D01*
X190055805Y-86448522D02*
X190103476Y-86543864D01*
X190103476Y-86543864D02*
X190198818Y-86591536D01*
X190198818Y-86591536D02*
X190294160Y-86591536D01*
X190294160Y-86591536D02*
X190389503Y-86114824D01*
X190055805Y-86877563D02*
X190055805Y-87258932D01*
X189722107Y-87020576D02*
X190580187Y-87020576D01*
X190580187Y-87020576D02*
X190675530Y-87068247D01*
X190675530Y-87068247D02*
X190723201Y-87163590D01*
X190723201Y-87163590D02*
X190723201Y-87258932D01*
D10*
X192632666Y-142255819D02*
X192061238Y-142255819D01*
X192346952Y-143255819D02*
X192346952Y-142255819D01*
X191727904Y-143255819D02*
X191727904Y-142255819D01*
X191727904Y-142255819D02*
X191346952Y-142255819D01*
X191346952Y-142255819D02*
X191251714Y-142303438D01*
X191251714Y-142303438D02*
X191204095Y-142351057D01*
X191204095Y-142351057D02*
X191156476Y-142446295D01*
X191156476Y-142446295D02*
X191156476Y-142589152D01*
X191156476Y-142589152D02*
X191204095Y-142684390D01*
X191204095Y-142684390D02*
X191251714Y-142732009D01*
X191251714Y-142732009D02*
X191346952Y-142779628D01*
X191346952Y-142779628D02*
X191727904Y-142779628D01*
X189965999Y-142874866D02*
X189204095Y-142874866D01*
X189585047Y-143255819D02*
X189585047Y-142493914D01*
X188823142Y-142255819D02*
X188204095Y-142255819D01*
X188204095Y-142255819D02*
X188537428Y-142636771D01*
X188537428Y-142636771D02*
X188394571Y-142636771D01*
X188394571Y-142636771D02*
X188299333Y-142684390D01*
X188299333Y-142684390D02*
X188251714Y-142732009D01*
X188251714Y-142732009D02*
X188204095Y-142827247D01*
X188204095Y-142827247D02*
X188204095Y-143065342D01*
X188204095Y-143065342D02*
X188251714Y-143160580D01*
X188251714Y-143160580D02*
X188299333Y-143208200D01*
X188299333Y-143208200D02*
X188394571Y-143255819D01*
X188394571Y-143255819D02*
X188680285Y-143255819D01*
X188680285Y-143255819D02*
X188775523Y-143208200D01*
X188775523Y-143208200D02*
X188823142Y-143160580D01*
X187918380Y-142255819D02*
X187585047Y-143255819D01*
X187585047Y-143255819D02*
X187251714Y-142255819D01*
X187013618Y-142255819D02*
X186394571Y-142255819D01*
X186394571Y-142255819D02*
X186727904Y-142636771D01*
X186727904Y-142636771D02*
X186585047Y-142636771D01*
X186585047Y-142636771D02*
X186489809Y-142684390D01*
X186489809Y-142684390D02*
X186442190Y-142732009D01*
X186442190Y-142732009D02*
X186394571Y-142827247D01*
X186394571Y-142827247D02*
X186394571Y-143065342D01*
X186394571Y-143065342D02*
X186442190Y-143160580D01*
X186442190Y-143160580D02*
X186489809Y-143208200D01*
X186489809Y-143208200D02*
X186585047Y-143255819D01*
X186585047Y-143255819D02*
X186870761Y-143255819D01*
X186870761Y-143255819D02*
X186965999Y-143208200D01*
X186965999Y-143208200D02*
X187013618Y-143160580D01*
X190727904Y-146305819D02*
X190156476Y-146305819D01*
X190442190Y-147305819D02*
X190442190Y-146305819D01*
X189823142Y-147305819D02*
X189823142Y-146305819D01*
X189823142Y-146305819D02*
X189442190Y-146305819D01*
X189442190Y-146305819D02*
X189346952Y-146353438D01*
X189346952Y-146353438D02*
X189299333Y-146401057D01*
X189299333Y-146401057D02*
X189251714Y-146496295D01*
X189251714Y-146496295D02*
X189251714Y-146639152D01*
X189251714Y-146639152D02*
X189299333Y-146734390D01*
X189299333Y-146734390D02*
X189346952Y-146782009D01*
X189346952Y-146782009D02*
X189442190Y-146829628D01*
X189442190Y-146829628D02*
X189823142Y-146829628D01*
X188346952Y-146305819D02*
X188823142Y-146305819D01*
X188823142Y-146305819D02*
X188870761Y-146782009D01*
X188870761Y-146782009D02*
X188823142Y-146734390D01*
X188823142Y-146734390D02*
X188727904Y-146686771D01*
X188727904Y-146686771D02*
X188489809Y-146686771D01*
X188489809Y-146686771D02*
X188394571Y-146734390D01*
X188394571Y-146734390D02*
X188346952Y-146782009D01*
X188346952Y-146782009D02*
X188299333Y-146877247D01*
X188299333Y-146877247D02*
X188299333Y-147115342D01*
X188299333Y-147115342D02*
X188346952Y-147210580D01*
X188346952Y-147210580D02*
X188394571Y-147258200D01*
X188394571Y-147258200D02*
X188489809Y-147305819D01*
X188489809Y-147305819D02*
X188727904Y-147305819D01*
X188727904Y-147305819D02*
X188823142Y-147258200D01*
X188823142Y-147258200D02*
X188870761Y-147210580D01*
X188074333Y-146805819D02*
X190947195Y-146805819D01*
X158120190Y-109743819D02*
X157548762Y-109743819D01*
X157834476Y-110743819D02*
X157834476Y-109743819D01*
X157215428Y-110743819D02*
X157215428Y-109743819D01*
X157215428Y-109743819D02*
X156834476Y-109743819D01*
X156834476Y-109743819D02*
X156739238Y-109791438D01*
X156739238Y-109791438D02*
X156691619Y-109839057D01*
X156691619Y-109839057D02*
X156644000Y-109934295D01*
X156644000Y-109934295D02*
X156644000Y-110077152D01*
X156644000Y-110077152D02*
X156691619Y-110172390D01*
X156691619Y-110172390D02*
X156739238Y-110220009D01*
X156739238Y-110220009D02*
X156834476Y-110267628D01*
X156834476Y-110267628D02*
X157215428Y-110267628D01*
X155596380Y-109743819D02*
X155263047Y-110743819D01*
X155263047Y-110743819D02*
X154929714Y-109743819D01*
X154263047Y-110220009D02*
X154120190Y-110267628D01*
X154120190Y-110267628D02*
X154072571Y-110315247D01*
X154072571Y-110315247D02*
X154024952Y-110410485D01*
X154024952Y-110410485D02*
X154024952Y-110553342D01*
X154024952Y-110553342D02*
X154072571Y-110648580D01*
X154072571Y-110648580D02*
X154120190Y-110696200D01*
X154120190Y-110696200D02*
X154215428Y-110743819D01*
X154215428Y-110743819D02*
X154596380Y-110743819D01*
X154596380Y-110743819D02*
X154596380Y-109743819D01*
X154596380Y-109743819D02*
X154263047Y-109743819D01*
X154263047Y-109743819D02*
X154167809Y-109791438D01*
X154167809Y-109791438D02*
X154120190Y-109839057D01*
X154120190Y-109839057D02*
X154072571Y-109934295D01*
X154072571Y-109934295D02*
X154072571Y-110029533D01*
X154072571Y-110029533D02*
X154120190Y-110124771D01*
X154120190Y-110124771D02*
X154167809Y-110172390D01*
X154167809Y-110172390D02*
X154263047Y-110220009D01*
X154263047Y-110220009D02*
X154596380Y-110220009D01*
X153596380Y-109743819D02*
X153596380Y-110553342D01*
X153596380Y-110553342D02*
X153548761Y-110648580D01*
X153548761Y-110648580D02*
X153501142Y-110696200D01*
X153501142Y-110696200D02*
X153405904Y-110743819D01*
X153405904Y-110743819D02*
X153215428Y-110743819D01*
X153215428Y-110743819D02*
X153120190Y-110696200D01*
X153120190Y-110696200D02*
X153072571Y-110648580D01*
X153072571Y-110648580D02*
X153024952Y-110553342D01*
X153024952Y-110553342D02*
X153024952Y-109743819D01*
X152596380Y-110696200D02*
X152453523Y-110743819D01*
X152453523Y-110743819D02*
X152215428Y-110743819D01*
X152215428Y-110743819D02*
X152120190Y-110696200D01*
X152120190Y-110696200D02*
X152072571Y-110648580D01*
X152072571Y-110648580D02*
X152024952Y-110553342D01*
X152024952Y-110553342D02*
X152024952Y-110458104D01*
X152024952Y-110458104D02*
X152072571Y-110362866D01*
X152072571Y-110362866D02*
X152120190Y-110315247D01*
X152120190Y-110315247D02*
X152215428Y-110267628D01*
X152215428Y-110267628D02*
X152405904Y-110220009D01*
X152405904Y-110220009D02*
X152501142Y-110172390D01*
X152501142Y-110172390D02*
X152548761Y-110124771D01*
X152548761Y-110124771D02*
X152596380Y-110029533D01*
X152596380Y-110029533D02*
X152596380Y-109934295D01*
X152596380Y-109934295D02*
X152548761Y-109839057D01*
X152548761Y-109839057D02*
X152501142Y-109791438D01*
X152501142Y-109791438D02*
X152405904Y-109743819D01*
X152405904Y-109743819D02*
X152167809Y-109743819D01*
X152167809Y-109743819D02*
X152024952Y-109791438D01*
X151834476Y-110839057D02*
X151072571Y-110839057D01*
X150834475Y-109743819D02*
X150834475Y-110553342D01*
X150834475Y-110553342D02*
X150786856Y-110648580D01*
X150786856Y-110648580D02*
X150739237Y-110696200D01*
X150739237Y-110696200D02*
X150643999Y-110743819D01*
X150643999Y-110743819D02*
X150453523Y-110743819D01*
X150453523Y-110743819D02*
X150358285Y-110696200D01*
X150358285Y-110696200D02*
X150310666Y-110648580D01*
X150310666Y-110648580D02*
X150263047Y-110553342D01*
X150263047Y-110553342D02*
X150263047Y-109743819D01*
X149834475Y-110696200D02*
X149691618Y-110743819D01*
X149691618Y-110743819D02*
X149453523Y-110743819D01*
X149453523Y-110743819D02*
X149358285Y-110696200D01*
X149358285Y-110696200D02*
X149310666Y-110648580D01*
X149310666Y-110648580D02*
X149263047Y-110553342D01*
X149263047Y-110553342D02*
X149263047Y-110458104D01*
X149263047Y-110458104D02*
X149310666Y-110362866D01*
X149310666Y-110362866D02*
X149358285Y-110315247D01*
X149358285Y-110315247D02*
X149453523Y-110267628D01*
X149453523Y-110267628D02*
X149643999Y-110220009D01*
X149643999Y-110220009D02*
X149739237Y-110172390D01*
X149739237Y-110172390D02*
X149786856Y-110124771D01*
X149786856Y-110124771D02*
X149834475Y-110029533D01*
X149834475Y-110029533D02*
X149834475Y-109934295D01*
X149834475Y-109934295D02*
X149786856Y-109839057D01*
X149786856Y-109839057D02*
X149739237Y-109791438D01*
X149739237Y-109791438D02*
X149643999Y-109743819D01*
X149643999Y-109743819D02*
X149405904Y-109743819D01*
X149405904Y-109743819D02*
X149263047Y-109791438D01*
X148501142Y-110220009D02*
X148358285Y-110267628D01*
X148358285Y-110267628D02*
X148310666Y-110315247D01*
X148310666Y-110315247D02*
X148263047Y-110410485D01*
X148263047Y-110410485D02*
X148263047Y-110553342D01*
X148263047Y-110553342D02*
X148310666Y-110648580D01*
X148310666Y-110648580D02*
X148358285Y-110696200D01*
X148358285Y-110696200D02*
X148453523Y-110743819D01*
X148453523Y-110743819D02*
X148834475Y-110743819D01*
X148834475Y-110743819D02*
X148834475Y-109743819D01*
X148834475Y-109743819D02*
X148501142Y-109743819D01*
X148501142Y-109743819D02*
X148405904Y-109791438D01*
X148405904Y-109791438D02*
X148358285Y-109839057D01*
X148358285Y-109839057D02*
X148310666Y-109934295D01*
X148310666Y-109934295D02*
X148310666Y-110029533D01*
X148310666Y-110029533D02*
X148358285Y-110124771D01*
X148358285Y-110124771D02*
X148405904Y-110172390D01*
X148405904Y-110172390D02*
X148501142Y-110220009D01*
X148501142Y-110220009D02*
X148834475Y-110220009D01*
X154405904Y-113793819D02*
X153834476Y-113793819D01*
X154120190Y-114793819D02*
X154120190Y-113793819D01*
X153501142Y-114793819D02*
X153501142Y-113793819D01*
X153501142Y-113793819D02*
X153120190Y-113793819D01*
X153120190Y-113793819D02*
X153024952Y-113841438D01*
X153024952Y-113841438D02*
X152977333Y-113889057D01*
X152977333Y-113889057D02*
X152929714Y-113984295D01*
X152929714Y-113984295D02*
X152929714Y-114127152D01*
X152929714Y-114127152D02*
X152977333Y-114222390D01*
X152977333Y-114222390D02*
X153024952Y-114270009D01*
X153024952Y-114270009D02*
X153120190Y-114317628D01*
X153120190Y-114317628D02*
X153501142Y-114317628D01*
X152453523Y-114793819D02*
X152263047Y-114793819D01*
X152263047Y-114793819D02*
X152167809Y-114746200D01*
X152167809Y-114746200D02*
X152120190Y-114698580D01*
X152120190Y-114698580D02*
X152024952Y-114555723D01*
X152024952Y-114555723D02*
X151977333Y-114365247D01*
X151977333Y-114365247D02*
X151977333Y-113984295D01*
X151977333Y-113984295D02*
X152024952Y-113889057D01*
X152024952Y-113889057D02*
X152072571Y-113841438D01*
X152072571Y-113841438D02*
X152167809Y-113793819D01*
X152167809Y-113793819D02*
X152358285Y-113793819D01*
X152358285Y-113793819D02*
X152453523Y-113841438D01*
X152453523Y-113841438D02*
X152501142Y-113889057D01*
X152501142Y-113889057D02*
X152548761Y-113984295D01*
X152548761Y-113984295D02*
X152548761Y-114222390D01*
X152548761Y-114222390D02*
X152501142Y-114317628D01*
X152501142Y-114317628D02*
X152453523Y-114365247D01*
X152453523Y-114365247D02*
X152358285Y-114412866D01*
X152358285Y-114412866D02*
X152167809Y-114412866D01*
X152167809Y-114412866D02*
X152072571Y-114365247D01*
X152072571Y-114365247D02*
X152024952Y-114317628D01*
X152024952Y-114317628D02*
X151977333Y-114222390D01*
X151752333Y-114293819D02*
X154625195Y-114293819D01*
X198109571Y-137497620D02*
X197538143Y-137497620D01*
X197823857Y-138497620D02*
X197823857Y-137497620D01*
X197204809Y-138497620D02*
X197204809Y-137497620D01*
X197204809Y-137497620D02*
X196823857Y-137497620D01*
X196823857Y-137497620D02*
X196728619Y-137545239D01*
X196728619Y-137545239D02*
X196681000Y-137592858D01*
X196681000Y-137592858D02*
X196633381Y-137688096D01*
X196633381Y-137688096D02*
X196633381Y-137830953D01*
X196633381Y-137830953D02*
X196681000Y-137926191D01*
X196681000Y-137926191D02*
X196728619Y-137973810D01*
X196728619Y-137973810D02*
X196823857Y-138021429D01*
X196823857Y-138021429D02*
X197204809Y-138021429D01*
X195442904Y-137830953D02*
X195442904Y-138497620D01*
X195442904Y-137926191D02*
X195395285Y-137878572D01*
X195395285Y-137878572D02*
X195300047Y-137830953D01*
X195300047Y-137830953D02*
X195157190Y-137830953D01*
X195157190Y-137830953D02*
X195061952Y-137878572D01*
X195061952Y-137878572D02*
X195014333Y-137973810D01*
X195014333Y-137973810D02*
X195014333Y-138497620D01*
X194585761Y-138211905D02*
X194109571Y-138211905D01*
X194680999Y-138497620D02*
X194347666Y-137497620D01*
X194347666Y-137497620D02*
X194014333Y-138497620D01*
X193109571Y-138402381D02*
X193157190Y-138450001D01*
X193157190Y-138450001D02*
X193300047Y-138497620D01*
X193300047Y-138497620D02*
X193395285Y-138497620D01*
X193395285Y-138497620D02*
X193538142Y-138450001D01*
X193538142Y-138450001D02*
X193633380Y-138354762D01*
X193633380Y-138354762D02*
X193680999Y-138259524D01*
X193680999Y-138259524D02*
X193728618Y-138069048D01*
X193728618Y-138069048D02*
X193728618Y-137926191D01*
X193728618Y-137926191D02*
X193680999Y-137735715D01*
X193680999Y-137735715D02*
X193633380Y-137640477D01*
X193633380Y-137640477D02*
X193538142Y-137545239D01*
X193538142Y-137545239D02*
X193395285Y-137497620D01*
X193395285Y-137497620D02*
X193300047Y-137497620D01*
X193300047Y-137497620D02*
X193157190Y-137545239D01*
X193157190Y-137545239D02*
X193109571Y-137592858D01*
X192823856Y-137497620D02*
X192252428Y-137497620D01*
X192538142Y-138497620D02*
X192538142Y-137497620D01*
X196442904Y-141547620D02*
X195871476Y-141547620D01*
X196157190Y-142547620D02*
X196157190Y-141547620D01*
X195538142Y-142547620D02*
X195538142Y-141547620D01*
X195538142Y-141547620D02*
X195157190Y-141547620D01*
X195157190Y-141547620D02*
X195061952Y-141595239D01*
X195061952Y-141595239D02*
X195014333Y-141642858D01*
X195014333Y-141642858D02*
X194966714Y-141738096D01*
X194966714Y-141738096D02*
X194966714Y-141880953D01*
X194966714Y-141880953D02*
X195014333Y-141976191D01*
X195014333Y-141976191D02*
X195061952Y-142023810D01*
X195061952Y-142023810D02*
X195157190Y-142071429D01*
X195157190Y-142071429D02*
X195538142Y-142071429D01*
X194633380Y-141547620D02*
X193966714Y-141547620D01*
X193966714Y-141547620D02*
X194395285Y-142547620D01*
X193741720Y-142047617D02*
X196662195Y-142047617D01*
X204975475Y-142255819D02*
X204404047Y-142255819D01*
X204689761Y-143255819D02*
X204689761Y-142255819D01*
X204070713Y-143255819D02*
X204070713Y-142255819D01*
X204070713Y-142255819D02*
X203689761Y-142255819D01*
X203689761Y-142255819D02*
X203594523Y-142303438D01*
X203594523Y-142303438D02*
X203546904Y-142351057D01*
X203546904Y-142351057D02*
X203499285Y-142446295D01*
X203499285Y-142446295D02*
X203499285Y-142589152D01*
X203499285Y-142589152D02*
X203546904Y-142684390D01*
X203546904Y-142684390D02*
X203594523Y-142732009D01*
X203594523Y-142732009D02*
X203689761Y-142779628D01*
X203689761Y-142779628D02*
X204070713Y-142779628D01*
X202308808Y-142589152D02*
X202308808Y-143255819D01*
X202308808Y-142684390D02*
X202261189Y-142636771D01*
X202261189Y-142636771D02*
X202165951Y-142589152D01*
X202165951Y-142589152D02*
X202023094Y-142589152D01*
X202023094Y-142589152D02*
X201927856Y-142636771D01*
X201927856Y-142636771D02*
X201880237Y-142732009D01*
X201880237Y-142732009D02*
X201880237Y-143255819D01*
X201404046Y-143255819D02*
X201404046Y-142255819D01*
X201404046Y-142255819D02*
X201023094Y-142255819D01*
X201023094Y-142255819D02*
X200927856Y-142303438D01*
X200927856Y-142303438D02*
X200880237Y-142351057D01*
X200880237Y-142351057D02*
X200832618Y-142446295D01*
X200832618Y-142446295D02*
X200832618Y-142589152D01*
X200832618Y-142589152D02*
X200880237Y-142684390D01*
X200880237Y-142684390D02*
X200927856Y-142732009D01*
X200927856Y-142732009D02*
X201023094Y-142779628D01*
X201023094Y-142779628D02*
X201404046Y-142779628D01*
X200499284Y-142255819D02*
X200261189Y-143255819D01*
X200261189Y-143255819D02*
X200070713Y-142541533D01*
X200070713Y-142541533D02*
X199880237Y-143255819D01*
X199880237Y-143255819D02*
X199642142Y-142255819D01*
X198689761Y-143255819D02*
X199023094Y-142779628D01*
X199261189Y-143255819D02*
X199261189Y-142255819D01*
X199261189Y-142255819D02*
X198880237Y-142255819D01*
X198880237Y-142255819D02*
X198784999Y-142303438D01*
X198784999Y-142303438D02*
X198737380Y-142351057D01*
X198737380Y-142351057D02*
X198689761Y-142446295D01*
X198689761Y-142446295D02*
X198689761Y-142589152D01*
X198689761Y-142589152D02*
X198737380Y-142684390D01*
X198737380Y-142684390D02*
X198784999Y-142732009D01*
X198784999Y-142732009D02*
X198880237Y-142779628D01*
X198880237Y-142779628D02*
X199261189Y-142779628D01*
X203046904Y-146305819D02*
X202475476Y-146305819D01*
X202761190Y-147305819D02*
X202761190Y-146305819D01*
X202142142Y-147305819D02*
X202142142Y-146305819D01*
X202142142Y-146305819D02*
X201761190Y-146305819D01*
X201761190Y-146305819D02*
X201665952Y-146353438D01*
X201665952Y-146353438D02*
X201618333Y-146401057D01*
X201618333Y-146401057D02*
X201570714Y-146496295D01*
X201570714Y-146496295D02*
X201570714Y-146639152D01*
X201570714Y-146639152D02*
X201618333Y-146734390D01*
X201618333Y-146734390D02*
X201665952Y-146782009D01*
X201665952Y-146782009D02*
X201761190Y-146829628D01*
X201761190Y-146829628D02*
X202142142Y-146829628D01*
X200713571Y-146305819D02*
X200904047Y-146305819D01*
X200904047Y-146305819D02*
X200999285Y-146353438D01*
X200999285Y-146353438D02*
X201046904Y-146401057D01*
X201046904Y-146401057D02*
X201142142Y-146543914D01*
X201142142Y-146543914D02*
X201189761Y-146734390D01*
X201189761Y-146734390D02*
X201189761Y-147115342D01*
X201189761Y-147115342D02*
X201142142Y-147210580D01*
X201142142Y-147210580D02*
X201094523Y-147258200D01*
X201094523Y-147258200D02*
X200999285Y-147305819D01*
X200999285Y-147305819D02*
X200808809Y-147305819D01*
X200808809Y-147305819D02*
X200713571Y-147258200D01*
X200713571Y-147258200D02*
X200665952Y-147210580D01*
X200665952Y-147210580D02*
X200618333Y-147115342D01*
X200618333Y-147115342D02*
X200618333Y-146877247D01*
X200618333Y-146877247D02*
X200665952Y-146782009D01*
X200665952Y-146782009D02*
X200713571Y-146734390D01*
X200713571Y-146734390D02*
X200808809Y-146686771D01*
X200808809Y-146686771D02*
X200999285Y-146686771D01*
X200999285Y-146686771D02*
X201094523Y-146734390D01*
X201094523Y-146734390D02*
X201142142Y-146782009D01*
X201142142Y-146782009D02*
X201189761Y-146877247D01*
X200393333Y-146805819D02*
X203266195Y-146805819D01*
X204864237Y-71516819D02*
X204292809Y-71516819D01*
X204578523Y-72516819D02*
X204578523Y-71516819D01*
X203959475Y-72516819D02*
X203959475Y-71516819D01*
X203959475Y-71516819D02*
X203578523Y-71516819D01*
X203578523Y-71516819D02*
X203483285Y-71564438D01*
X203483285Y-71564438D02*
X203435666Y-71612057D01*
X203435666Y-71612057D02*
X203388047Y-71707295D01*
X203388047Y-71707295D02*
X203388047Y-71850152D01*
X203388047Y-71850152D02*
X203435666Y-71945390D01*
X203435666Y-71945390D02*
X203483285Y-71993009D01*
X203483285Y-71993009D02*
X203578523Y-72040628D01*
X203578523Y-72040628D02*
X203959475Y-72040628D01*
X202245189Y-72469200D02*
X202102332Y-72516819D01*
X202102332Y-72516819D02*
X201864237Y-72516819D01*
X201864237Y-72516819D02*
X201768999Y-72469200D01*
X201768999Y-72469200D02*
X201721380Y-72421580D01*
X201721380Y-72421580D02*
X201673761Y-72326342D01*
X201673761Y-72326342D02*
X201673761Y-72231104D01*
X201673761Y-72231104D02*
X201721380Y-72135866D01*
X201721380Y-72135866D02*
X201768999Y-72088247D01*
X201768999Y-72088247D02*
X201864237Y-72040628D01*
X201864237Y-72040628D02*
X202054713Y-71993009D01*
X202054713Y-71993009D02*
X202149951Y-71945390D01*
X202149951Y-71945390D02*
X202197570Y-71897771D01*
X202197570Y-71897771D02*
X202245189Y-71802533D01*
X202245189Y-71802533D02*
X202245189Y-71707295D01*
X202245189Y-71707295D02*
X202197570Y-71612057D01*
X202197570Y-71612057D02*
X202149951Y-71564438D01*
X202149951Y-71564438D02*
X202054713Y-71516819D01*
X202054713Y-71516819D02*
X201816618Y-71516819D01*
X201816618Y-71516819D02*
X201673761Y-71564438D01*
X201245189Y-72516819D02*
X201245189Y-71516819D01*
X201245189Y-71516819D02*
X201007094Y-71516819D01*
X201007094Y-71516819D02*
X200864237Y-71564438D01*
X200864237Y-71564438D02*
X200768999Y-71659676D01*
X200768999Y-71659676D02*
X200721380Y-71754914D01*
X200721380Y-71754914D02*
X200673761Y-71945390D01*
X200673761Y-71945390D02*
X200673761Y-72088247D01*
X200673761Y-72088247D02*
X200721380Y-72278723D01*
X200721380Y-72278723D02*
X200768999Y-72373961D01*
X200768999Y-72373961D02*
X200864237Y-72469200D01*
X200864237Y-72469200D02*
X201007094Y-72516819D01*
X201007094Y-72516819D02*
X201245189Y-72516819D01*
X200483285Y-72612057D02*
X199721380Y-72612057D01*
X199483284Y-72516819D02*
X199483284Y-71516819D01*
X199483284Y-71516819D02*
X199102332Y-71516819D01*
X199102332Y-71516819D02*
X199007094Y-71564438D01*
X199007094Y-71564438D02*
X198959475Y-71612057D01*
X198959475Y-71612057D02*
X198911856Y-71707295D01*
X198911856Y-71707295D02*
X198911856Y-71850152D01*
X198911856Y-71850152D02*
X198959475Y-71945390D01*
X198959475Y-71945390D02*
X199007094Y-71993009D01*
X199007094Y-71993009D02*
X199102332Y-72040628D01*
X199102332Y-72040628D02*
X199483284Y-72040628D01*
X198578522Y-71516819D02*
X198340427Y-72516819D01*
X198340427Y-72516819D02*
X198149951Y-71802533D01*
X198149951Y-71802533D02*
X197959475Y-72516819D01*
X197959475Y-72516819D02*
X197721380Y-71516819D01*
X196768999Y-72516819D02*
X197102332Y-72040628D01*
X197340427Y-72516819D02*
X197340427Y-71516819D01*
X197340427Y-71516819D02*
X196959475Y-71516819D01*
X196959475Y-71516819D02*
X196864237Y-71564438D01*
X196864237Y-71564438D02*
X196816618Y-71612057D01*
X196816618Y-71612057D02*
X196768999Y-71707295D01*
X196768999Y-71707295D02*
X196768999Y-71850152D01*
X196768999Y-71850152D02*
X196816618Y-71945390D01*
X196816618Y-71945390D02*
X196864237Y-71993009D01*
X196864237Y-71993009D02*
X196959475Y-72040628D01*
X196959475Y-72040628D02*
X197340427Y-72040628D01*
X202030904Y-75566819D02*
X201459476Y-75566819D01*
X201745190Y-76566819D02*
X201745190Y-75566819D01*
X201126142Y-76566819D02*
X201126142Y-75566819D01*
X201126142Y-75566819D02*
X200745190Y-75566819D01*
X200745190Y-75566819D02*
X200649952Y-75614438D01*
X200649952Y-75614438D02*
X200602333Y-75662057D01*
X200602333Y-75662057D02*
X200554714Y-75757295D01*
X200554714Y-75757295D02*
X200554714Y-75900152D01*
X200554714Y-75900152D02*
X200602333Y-75995390D01*
X200602333Y-75995390D02*
X200649952Y-76043009D01*
X200649952Y-76043009D02*
X200745190Y-76090628D01*
X200745190Y-76090628D02*
X201126142Y-76090628D01*
X199983285Y-75995390D02*
X200078523Y-75947771D01*
X200078523Y-75947771D02*
X200126142Y-75900152D01*
X200126142Y-75900152D02*
X200173761Y-75804914D01*
X200173761Y-75804914D02*
X200173761Y-75757295D01*
X200173761Y-75757295D02*
X200126142Y-75662057D01*
X200126142Y-75662057D02*
X200078523Y-75614438D01*
X200078523Y-75614438D02*
X199983285Y-75566819D01*
X199983285Y-75566819D02*
X199792809Y-75566819D01*
X199792809Y-75566819D02*
X199697571Y-75614438D01*
X199697571Y-75614438D02*
X199649952Y-75662057D01*
X199649952Y-75662057D02*
X199602333Y-75757295D01*
X199602333Y-75757295D02*
X199602333Y-75804914D01*
X199602333Y-75804914D02*
X199649952Y-75900152D01*
X199649952Y-75900152D02*
X199697571Y-75947771D01*
X199697571Y-75947771D02*
X199792809Y-75995390D01*
X199792809Y-75995390D02*
X199983285Y-75995390D01*
X199983285Y-75995390D02*
X200078523Y-76043009D01*
X200078523Y-76043009D02*
X200126142Y-76090628D01*
X200126142Y-76090628D02*
X200173761Y-76185866D01*
X200173761Y-76185866D02*
X200173761Y-76376342D01*
X200173761Y-76376342D02*
X200126142Y-76471580D01*
X200126142Y-76471580D02*
X200078523Y-76519200D01*
X200078523Y-76519200D02*
X199983285Y-76566819D01*
X199983285Y-76566819D02*
X199792809Y-76566819D01*
X199792809Y-76566819D02*
X199697571Y-76519200D01*
X199697571Y-76519200D02*
X199649952Y-76471580D01*
X199649952Y-76471580D02*
X199602333Y-76376342D01*
X199602333Y-76376342D02*
X199602333Y-76185866D01*
X199602333Y-76185866D02*
X199649952Y-76090628D01*
X199649952Y-76090628D02*
X199697571Y-76043009D01*
X199697571Y-76043009D02*
X199792809Y-75995390D01*
X199377333Y-76066819D02*
X202250195Y-76066819D01*
X153786857Y-117364819D02*
X154358285Y-117364819D01*
X154072571Y-117364819D02*
X154072571Y-116364819D01*
X154072571Y-116364819D02*
X154167809Y-116507676D01*
X154167809Y-116507676D02*
X154263047Y-116602914D01*
X154263047Y-116602914D02*
X154358285Y-116650533D01*
X153167809Y-116364819D02*
X153072571Y-116364819D01*
X153072571Y-116364819D02*
X152977333Y-116412438D01*
X152977333Y-116412438D02*
X152929714Y-116460057D01*
X152929714Y-116460057D02*
X152882095Y-116555295D01*
X152882095Y-116555295D02*
X152834476Y-116745771D01*
X152834476Y-116745771D02*
X152834476Y-116983866D01*
X152834476Y-116983866D02*
X152882095Y-117174342D01*
X152882095Y-117174342D02*
X152929714Y-117269580D01*
X152929714Y-117269580D02*
X152977333Y-117317200D01*
X152977333Y-117317200D02*
X153072571Y-117364819D01*
X153072571Y-117364819D02*
X153167809Y-117364819D01*
X153167809Y-117364819D02*
X153263047Y-117317200D01*
X153263047Y-117317200D02*
X153310666Y-117269580D01*
X153310666Y-117269580D02*
X153358285Y-117174342D01*
X153358285Y-117174342D02*
X153405904Y-116983866D01*
X153405904Y-116983866D02*
X153405904Y-116745771D01*
X153405904Y-116745771D02*
X153358285Y-116555295D01*
X153358285Y-116555295D02*
X153310666Y-116460057D01*
X153310666Y-116460057D02*
X153263047Y-116412438D01*
X153263047Y-116412438D02*
X153167809Y-116364819D01*
X151977333Y-116698152D02*
X151977333Y-117364819D01*
X152405904Y-116698152D02*
X152405904Y-117221961D01*
X152405904Y-117221961D02*
X152358285Y-117317200D01*
X152358285Y-117317200D02*
X152263047Y-117364819D01*
X152263047Y-117364819D02*
X152120190Y-117364819D01*
X152120190Y-117364819D02*
X152024952Y-117317200D01*
X152024952Y-117317200D02*
X151977333Y-117269580D01*
D14*
X153227333Y-115439530D02*
X153251142Y-115463340D01*
X153251142Y-115463340D02*
X153322571Y-115487149D01*
X153322571Y-115487149D02*
X153370190Y-115487149D01*
X153370190Y-115487149D02*
X153441618Y-115463340D01*
X153441618Y-115463340D02*
X153489237Y-115415720D01*
X153489237Y-115415720D02*
X153513047Y-115368101D01*
X153513047Y-115368101D02*
X153536856Y-115272863D01*
X153536856Y-115272863D02*
X153536856Y-115201435D01*
X153536856Y-115201435D02*
X153513047Y-115106197D01*
X153513047Y-115106197D02*
X153489237Y-115058578D01*
X153489237Y-115058578D02*
X153441618Y-115010959D01*
X153441618Y-115010959D02*
X153370190Y-114987149D01*
X153370190Y-114987149D02*
X153322571Y-114987149D01*
X153322571Y-114987149D02*
X153251142Y-115010959D01*
X153251142Y-115010959D02*
X153227333Y-115034768D01*
X152941618Y-115201435D02*
X152989237Y-115177625D01*
X152989237Y-115177625D02*
X153013047Y-115153816D01*
X153013047Y-115153816D02*
X153036856Y-115106197D01*
X153036856Y-115106197D02*
X153036856Y-115082387D01*
X153036856Y-115082387D02*
X153013047Y-115034768D01*
X153013047Y-115034768D02*
X152989237Y-115010959D01*
X152989237Y-115010959D02*
X152941618Y-114987149D01*
X152941618Y-114987149D02*
X152846380Y-114987149D01*
X152846380Y-114987149D02*
X152798761Y-115010959D01*
X152798761Y-115010959D02*
X152774952Y-115034768D01*
X152774952Y-115034768D02*
X152751142Y-115082387D01*
X152751142Y-115082387D02*
X152751142Y-115106197D01*
X152751142Y-115106197D02*
X152774952Y-115153816D01*
X152774952Y-115153816D02*
X152798761Y-115177625D01*
X152798761Y-115177625D02*
X152846380Y-115201435D01*
X152846380Y-115201435D02*
X152941618Y-115201435D01*
X152941618Y-115201435D02*
X152989237Y-115225244D01*
X152989237Y-115225244D02*
X153013047Y-115249054D01*
X153013047Y-115249054D02*
X153036856Y-115296673D01*
X153036856Y-115296673D02*
X153036856Y-115391911D01*
X153036856Y-115391911D02*
X153013047Y-115439530D01*
X153013047Y-115439530D02*
X152989237Y-115463340D01*
X152989237Y-115463340D02*
X152941618Y-115487149D01*
X152941618Y-115487149D02*
X152846380Y-115487149D01*
X152846380Y-115487149D02*
X152798761Y-115463340D01*
X152798761Y-115463340D02*
X152774952Y-115439530D01*
X152774952Y-115439530D02*
X152751142Y-115391911D01*
X152751142Y-115391911D02*
X152751142Y-115296673D01*
X152751142Y-115296673D02*
X152774952Y-115249054D01*
X152774952Y-115249054D02*
X152798761Y-115225244D01*
X152798761Y-115225244D02*
X152846380Y-115201435D01*
D10*
X183393475Y-142325819D02*
X182822047Y-142325819D01*
X183107761Y-143325819D02*
X183107761Y-142325819D01*
X182488713Y-143325819D02*
X182488713Y-142325819D01*
X182488713Y-142325819D02*
X182107761Y-142325819D01*
X182107761Y-142325819D02*
X182012523Y-142373438D01*
X182012523Y-142373438D02*
X181964904Y-142421057D01*
X181964904Y-142421057D02*
X181917285Y-142516295D01*
X181917285Y-142516295D02*
X181917285Y-142659152D01*
X181917285Y-142659152D02*
X181964904Y-142754390D01*
X181964904Y-142754390D02*
X182012523Y-142802009D01*
X182012523Y-142802009D02*
X182107761Y-142849628D01*
X182107761Y-142849628D02*
X182488713Y-142849628D01*
X180202999Y-142373438D02*
X180298237Y-142325819D01*
X180298237Y-142325819D02*
X180441094Y-142325819D01*
X180441094Y-142325819D02*
X180583951Y-142373438D01*
X180583951Y-142373438D02*
X180679189Y-142468676D01*
X180679189Y-142468676D02*
X180726808Y-142563914D01*
X180726808Y-142563914D02*
X180774427Y-142754390D01*
X180774427Y-142754390D02*
X180774427Y-142897247D01*
X180774427Y-142897247D02*
X180726808Y-143087723D01*
X180726808Y-143087723D02*
X180679189Y-143182961D01*
X180679189Y-143182961D02*
X180583951Y-143278200D01*
X180583951Y-143278200D02*
X180441094Y-143325819D01*
X180441094Y-143325819D02*
X180345856Y-143325819D01*
X180345856Y-143325819D02*
X180202999Y-143278200D01*
X180202999Y-143278200D02*
X180155380Y-143230580D01*
X180155380Y-143230580D02*
X180155380Y-142897247D01*
X180155380Y-142897247D02*
X180345856Y-142897247D01*
X179726808Y-143325819D02*
X179726808Y-142325819D01*
X179726808Y-142325819D02*
X179155380Y-143325819D01*
X179155380Y-143325819D02*
X179155380Y-142325819D01*
X178679189Y-143325819D02*
X178679189Y-142325819D01*
X178679189Y-142325819D02*
X178441094Y-142325819D01*
X178441094Y-142325819D02*
X178298237Y-142373438D01*
X178298237Y-142373438D02*
X178202999Y-142468676D01*
X178202999Y-142468676D02*
X178155380Y-142563914D01*
X178155380Y-142563914D02*
X178107761Y-142754390D01*
X178107761Y-142754390D02*
X178107761Y-142897247D01*
X178107761Y-142897247D02*
X178155380Y-143087723D01*
X178155380Y-143087723D02*
X178202999Y-143182961D01*
X178202999Y-143182961D02*
X178298237Y-143278200D01*
X178298237Y-143278200D02*
X178441094Y-143325819D01*
X178441094Y-143325819D02*
X178679189Y-143325819D01*
X181964904Y-146375819D02*
X181393476Y-146375819D01*
X181679190Y-147375819D02*
X181679190Y-146375819D01*
X181060142Y-147375819D02*
X181060142Y-146375819D01*
X181060142Y-146375819D02*
X180679190Y-146375819D01*
X180679190Y-146375819D02*
X180583952Y-146423438D01*
X180583952Y-146423438D02*
X180536333Y-146471057D01*
X180536333Y-146471057D02*
X180488714Y-146566295D01*
X180488714Y-146566295D02*
X180488714Y-146709152D01*
X180488714Y-146709152D02*
X180536333Y-146804390D01*
X180536333Y-146804390D02*
X180583952Y-146852009D01*
X180583952Y-146852009D02*
X180679190Y-146899628D01*
X180679190Y-146899628D02*
X181060142Y-146899628D01*
X179536333Y-147375819D02*
X180107761Y-147375819D01*
X179822047Y-147375819D02*
X179822047Y-146375819D01*
X179822047Y-146375819D02*
X179917285Y-146518676D01*
X179917285Y-146518676D02*
X180012523Y-146613914D01*
X180012523Y-146613914D02*
X180107761Y-146661533D01*
X179317042Y-146875819D02*
X182184195Y-146875819D01*
X157028819Y-129603142D02*
X157028819Y-129031714D01*
X157028819Y-129317428D02*
X156028819Y-129317428D01*
X156028819Y-129317428D02*
X156171676Y-129222190D01*
X156171676Y-129222190D02*
X156266914Y-129126952D01*
X156266914Y-129126952D02*
X156314533Y-129031714D01*
X156028819Y-130222190D02*
X156028819Y-130317428D01*
X156028819Y-130317428D02*
X156076438Y-130412666D01*
X156076438Y-130412666D02*
X156124057Y-130460285D01*
X156124057Y-130460285D02*
X156219295Y-130507904D01*
X156219295Y-130507904D02*
X156409771Y-130555523D01*
X156409771Y-130555523D02*
X156647866Y-130555523D01*
X156647866Y-130555523D02*
X156838342Y-130507904D01*
X156838342Y-130507904D02*
X156933580Y-130460285D01*
X156933580Y-130460285D02*
X156981200Y-130412666D01*
X156981200Y-130412666D02*
X157028819Y-130317428D01*
X157028819Y-130317428D02*
X157028819Y-130222190D01*
X157028819Y-130222190D02*
X156981200Y-130126952D01*
X156981200Y-130126952D02*
X156933580Y-130079333D01*
X156933580Y-130079333D02*
X156838342Y-130031714D01*
X156838342Y-130031714D02*
X156647866Y-129984095D01*
X156647866Y-129984095D02*
X156409771Y-129984095D01*
X156409771Y-129984095D02*
X156219295Y-130031714D01*
X156219295Y-130031714D02*
X156124057Y-130079333D01*
X156124057Y-130079333D02*
X156076438Y-130126952D01*
X156076438Y-130126952D02*
X156028819Y-130222190D01*
X156362152Y-131412666D02*
X157028819Y-131412666D01*
X156362152Y-130984095D02*
X156885961Y-130984095D01*
X156885961Y-130984095D02*
X156981200Y-131031714D01*
X156981200Y-131031714D02*
X157028819Y-131126952D01*
X157028819Y-131126952D02*
X157028819Y-131269809D01*
X157028819Y-131269809D02*
X156981200Y-131365047D01*
X156981200Y-131365047D02*
X156933580Y-131412666D01*
D14*
X158403530Y-130162666D02*
X158427340Y-130138857D01*
X158427340Y-130138857D02*
X158451149Y-130067428D01*
X158451149Y-130067428D02*
X158451149Y-130019809D01*
X158451149Y-130019809D02*
X158427340Y-129948381D01*
X158427340Y-129948381D02*
X158379720Y-129900762D01*
X158379720Y-129900762D02*
X158332101Y-129876952D01*
X158332101Y-129876952D02*
X158236863Y-129853143D01*
X158236863Y-129853143D02*
X158165435Y-129853143D01*
X158165435Y-129853143D02*
X158070197Y-129876952D01*
X158070197Y-129876952D02*
X158022578Y-129900762D01*
X158022578Y-129900762D02*
X157974959Y-129948381D01*
X157974959Y-129948381D02*
X157951149Y-130019809D01*
X157951149Y-130019809D02*
X157951149Y-130067428D01*
X157951149Y-130067428D02*
X157974959Y-130138857D01*
X157974959Y-130138857D02*
X157998768Y-130162666D01*
X157998768Y-130353143D02*
X157974959Y-130376952D01*
X157974959Y-130376952D02*
X157951149Y-130424571D01*
X157951149Y-130424571D02*
X157951149Y-130543619D01*
X157951149Y-130543619D02*
X157974959Y-130591238D01*
X157974959Y-130591238D02*
X157998768Y-130615047D01*
X157998768Y-130615047D02*
X158046387Y-130638857D01*
X158046387Y-130638857D02*
X158094006Y-130638857D01*
X158094006Y-130638857D02*
X158165435Y-130615047D01*
X158165435Y-130615047D02*
X158451149Y-130329333D01*
X158451149Y-130329333D02*
X158451149Y-130638857D01*
D10*
X184393475Y-139023819D02*
X183822047Y-139023819D01*
X184107761Y-140023819D02*
X184107761Y-139023819D01*
X183488713Y-140023819D02*
X183488713Y-139023819D01*
X183488713Y-139023819D02*
X183107761Y-139023819D01*
X183107761Y-139023819D02*
X183012523Y-139071438D01*
X183012523Y-139071438D02*
X182964904Y-139119057D01*
X182964904Y-139119057D02*
X182917285Y-139214295D01*
X182917285Y-139214295D02*
X182917285Y-139357152D01*
X182917285Y-139357152D02*
X182964904Y-139452390D01*
X182964904Y-139452390D02*
X183012523Y-139500009D01*
X183012523Y-139500009D02*
X183107761Y-139547628D01*
X183107761Y-139547628D02*
X183488713Y-139547628D01*
X181726808Y-139642866D02*
X180964904Y-139642866D01*
X181345856Y-140023819D02*
X181345856Y-139261914D01*
X180012523Y-139023819D02*
X180488713Y-139023819D01*
X180488713Y-139023819D02*
X180536332Y-139500009D01*
X180536332Y-139500009D02*
X180488713Y-139452390D01*
X180488713Y-139452390D02*
X180393475Y-139404771D01*
X180393475Y-139404771D02*
X180155380Y-139404771D01*
X180155380Y-139404771D02*
X180060142Y-139452390D01*
X180060142Y-139452390D02*
X180012523Y-139500009D01*
X180012523Y-139500009D02*
X179964904Y-139595247D01*
X179964904Y-139595247D02*
X179964904Y-139833342D01*
X179964904Y-139833342D02*
X180012523Y-139928580D01*
X180012523Y-139928580D02*
X180060142Y-139976200D01*
X180060142Y-139976200D02*
X180155380Y-140023819D01*
X180155380Y-140023819D02*
X180393475Y-140023819D01*
X180393475Y-140023819D02*
X180488713Y-139976200D01*
X180488713Y-139976200D02*
X180536332Y-139928580D01*
X179679189Y-139023819D02*
X179345856Y-140023819D01*
X179345856Y-140023819D02*
X179012523Y-139023819D01*
X178107761Y-139928580D02*
X178155380Y-139976200D01*
X178155380Y-139976200D02*
X178298237Y-140023819D01*
X178298237Y-140023819D02*
X178393475Y-140023819D01*
X178393475Y-140023819D02*
X178536332Y-139976200D01*
X178536332Y-139976200D02*
X178631570Y-139880961D01*
X178631570Y-139880961D02*
X178679189Y-139785723D01*
X178679189Y-139785723D02*
X178726808Y-139595247D01*
X178726808Y-139595247D02*
X178726808Y-139452390D01*
X178726808Y-139452390D02*
X178679189Y-139261914D01*
X178679189Y-139261914D02*
X178631570Y-139166676D01*
X178631570Y-139166676D02*
X178536332Y-139071438D01*
X178536332Y-139071438D02*
X178393475Y-139023819D01*
X178393475Y-139023819D02*
X178298237Y-139023819D01*
X178298237Y-139023819D02*
X178155380Y-139071438D01*
X178155380Y-139071438D02*
X178107761Y-139119057D01*
X177107761Y-139928580D02*
X177155380Y-139976200D01*
X177155380Y-139976200D02*
X177298237Y-140023819D01*
X177298237Y-140023819D02*
X177393475Y-140023819D01*
X177393475Y-140023819D02*
X177536332Y-139976200D01*
X177536332Y-139976200D02*
X177631570Y-139880961D01*
X177631570Y-139880961D02*
X177679189Y-139785723D01*
X177679189Y-139785723D02*
X177726808Y-139595247D01*
X177726808Y-139595247D02*
X177726808Y-139452390D01*
X177726808Y-139452390D02*
X177679189Y-139261914D01*
X177679189Y-139261914D02*
X177631570Y-139166676D01*
X177631570Y-139166676D02*
X177536332Y-139071438D01*
X177536332Y-139071438D02*
X177393475Y-139023819D01*
X177393475Y-139023819D02*
X177298237Y-139023819D01*
X177298237Y-139023819D02*
X177155380Y-139071438D01*
X177155380Y-139071438D02*
X177107761Y-139119057D01*
X177036333Y-142164180D02*
X177607761Y-142164180D01*
X177322047Y-141164180D02*
X177322047Y-142164180D01*
X178322047Y-141211800D02*
X178226809Y-141164180D01*
X178226809Y-141164180D02*
X178036333Y-141164180D01*
X178036333Y-141164180D02*
X177941095Y-141211800D01*
X177941095Y-141211800D02*
X177893476Y-141307038D01*
X177893476Y-141307038D02*
X177893476Y-141687990D01*
X177893476Y-141687990D02*
X177941095Y-141783228D01*
X177941095Y-141783228D02*
X178036333Y-141830847D01*
X178036333Y-141830847D02*
X178226809Y-141830847D01*
X178226809Y-141830847D02*
X178322047Y-141783228D01*
X178322047Y-141783228D02*
X178369666Y-141687990D01*
X178369666Y-141687990D02*
X178369666Y-141592752D01*
X178369666Y-141592752D02*
X177893476Y-141497514D01*
X178750619Y-141211800D02*
X178845857Y-141164180D01*
X178845857Y-141164180D02*
X179036333Y-141164180D01*
X179036333Y-141164180D02*
X179131571Y-141211800D01*
X179131571Y-141211800D02*
X179179190Y-141307038D01*
X179179190Y-141307038D02*
X179179190Y-141354657D01*
X179179190Y-141354657D02*
X179131571Y-141449895D01*
X179131571Y-141449895D02*
X179036333Y-141497514D01*
X179036333Y-141497514D02*
X178893476Y-141497514D01*
X178893476Y-141497514D02*
X178798238Y-141545133D01*
X178798238Y-141545133D02*
X178750619Y-141640371D01*
X178750619Y-141640371D02*
X178750619Y-141687990D01*
X178750619Y-141687990D02*
X178798238Y-141783228D01*
X178798238Y-141783228D02*
X178893476Y-141830847D01*
X178893476Y-141830847D02*
X179036333Y-141830847D01*
X179036333Y-141830847D02*
X179131571Y-141783228D01*
X179464905Y-141830847D02*
X179845857Y-141830847D01*
X179607762Y-142164180D02*
X179607762Y-141307038D01*
X179607762Y-141307038D02*
X179655381Y-141211800D01*
X179655381Y-141211800D02*
X179750619Y-141164180D01*
X179750619Y-141164180D02*
X179845857Y-141164180D01*
X180941096Y-141830847D02*
X180941096Y-140830847D01*
X180941096Y-141783228D02*
X181036334Y-141830847D01*
X181036334Y-141830847D02*
X181226810Y-141830847D01*
X181226810Y-141830847D02*
X181322048Y-141783228D01*
X181322048Y-141783228D02*
X181369667Y-141735609D01*
X181369667Y-141735609D02*
X181417286Y-141640371D01*
X181417286Y-141640371D02*
X181417286Y-141354657D01*
X181417286Y-141354657D02*
X181369667Y-141259419D01*
X181369667Y-141259419D02*
X181322048Y-141211800D01*
X181322048Y-141211800D02*
X181226810Y-141164180D01*
X181226810Y-141164180D02*
X181036334Y-141164180D01*
X181036334Y-141164180D02*
X180941096Y-141211800D01*
X181988715Y-141164180D02*
X181893477Y-141211800D01*
X181893477Y-141211800D02*
X181845858Y-141259419D01*
X181845858Y-141259419D02*
X181798239Y-141354657D01*
X181798239Y-141354657D02*
X181798239Y-141640371D01*
X181798239Y-141640371D02*
X181845858Y-141735609D01*
X181845858Y-141735609D02*
X181893477Y-141783228D01*
X181893477Y-141783228D02*
X181988715Y-141830847D01*
X181988715Y-141830847D02*
X182131572Y-141830847D01*
X182131572Y-141830847D02*
X182226810Y-141783228D01*
X182226810Y-141783228D02*
X182274429Y-141735609D01*
X182274429Y-141735609D02*
X182322048Y-141640371D01*
X182322048Y-141640371D02*
X182322048Y-141354657D01*
X182322048Y-141354657D02*
X182274429Y-141259419D01*
X182274429Y-141259419D02*
X182226810Y-141211800D01*
X182226810Y-141211800D02*
X182131572Y-141164180D01*
X182131572Y-141164180D02*
X181988715Y-141164180D01*
X182750620Y-141164180D02*
X182750620Y-141830847D01*
X182750620Y-142164180D02*
X182703001Y-142116561D01*
X182703001Y-142116561D02*
X182750620Y-142068942D01*
X182750620Y-142068942D02*
X182798239Y-142116561D01*
X182798239Y-142116561D02*
X182750620Y-142164180D01*
X182750620Y-142164180D02*
X182750620Y-142068942D01*
X183226810Y-141830847D02*
X183226810Y-141164180D01*
X183226810Y-141735609D02*
X183274429Y-141783228D01*
X183274429Y-141783228D02*
X183369667Y-141830847D01*
X183369667Y-141830847D02*
X183512524Y-141830847D01*
X183512524Y-141830847D02*
X183607762Y-141783228D01*
X183607762Y-141783228D02*
X183655381Y-141687990D01*
X183655381Y-141687990D02*
X183655381Y-141164180D01*
X183988715Y-141830847D02*
X184369667Y-141830847D01*
X184131572Y-142164180D02*
X184131572Y-141307038D01*
X184131572Y-141307038D02*
X184179191Y-141211800D01*
X184179191Y-141211800D02*
X184274429Y-141164180D01*
X184274429Y-141164180D02*
X184369667Y-141164180D01*
X181964904Y-143073819D02*
X181393476Y-143073819D01*
X181679190Y-144073819D02*
X181679190Y-143073819D01*
X181060142Y-144073819D02*
X181060142Y-143073819D01*
X181060142Y-143073819D02*
X180679190Y-143073819D01*
X180679190Y-143073819D02*
X180583952Y-143121438D01*
X180583952Y-143121438D02*
X180536333Y-143169057D01*
X180536333Y-143169057D02*
X180488714Y-143264295D01*
X180488714Y-143264295D02*
X180488714Y-143407152D01*
X180488714Y-143407152D02*
X180536333Y-143502390D01*
X180536333Y-143502390D02*
X180583952Y-143550009D01*
X180583952Y-143550009D02*
X180679190Y-143597628D01*
X180679190Y-143597628D02*
X181060142Y-143597628D01*
X179631571Y-143407152D02*
X179631571Y-144073819D01*
X179869666Y-143026200D02*
X180107761Y-143740485D01*
X180107761Y-143740485D02*
X179488714Y-143740485D01*
X179269423Y-143547249D02*
X182184195Y-143547249D01*
X189654619Y-88558010D02*
X189511762Y-88605629D01*
X189511762Y-88605629D02*
X189464143Y-88653248D01*
X189464143Y-88653248D02*
X189416524Y-88748486D01*
X189416524Y-88748486D02*
X189416524Y-88891343D01*
X189416524Y-88891343D02*
X189464143Y-88986581D01*
X189464143Y-88986581D02*
X189511762Y-89034201D01*
X189511762Y-89034201D02*
X189607000Y-89081820D01*
X189607000Y-89081820D02*
X189987952Y-89081820D01*
X189987952Y-89081820D02*
X189987952Y-88081820D01*
X189987952Y-88081820D02*
X189654619Y-88081820D01*
X189654619Y-88081820D02*
X189559381Y-88129439D01*
X189559381Y-88129439D02*
X189511762Y-88177058D01*
X189511762Y-88177058D02*
X189464143Y-88272296D01*
X189464143Y-88272296D02*
X189464143Y-88367534D01*
X189464143Y-88367534D02*
X189511762Y-88462772D01*
X189511762Y-88462772D02*
X189559381Y-88510391D01*
X189559381Y-88510391D02*
X189654619Y-88558010D01*
X189654619Y-88558010D02*
X189987952Y-88558010D01*
X189130809Y-88081820D02*
X188559381Y-88081820D01*
X188845095Y-89081820D02*
X188845095Y-88081820D01*
X188464143Y-89177058D02*
X187702238Y-89177058D01*
X187559380Y-88081820D02*
X187321285Y-89081820D01*
X187321285Y-89081820D02*
X187130809Y-88367534D01*
X187130809Y-88367534D02*
X186940333Y-89081820D01*
X186940333Y-89081820D02*
X186702238Y-88081820D01*
X186321285Y-89081820D02*
X186321285Y-88081820D01*
X185511762Y-88558010D02*
X185845095Y-88558010D01*
X185845095Y-89081820D02*
X185845095Y-88081820D01*
X185845095Y-88081820D02*
X185368905Y-88081820D01*
X184987952Y-89081820D02*
X184987952Y-88081820D01*
X184749858Y-89177058D02*
X183987953Y-89177058D01*
X183749857Y-89081820D02*
X183749857Y-88081820D01*
X183749857Y-88081820D02*
X183511762Y-88081820D01*
X183511762Y-88081820D02*
X183368905Y-88129439D01*
X183368905Y-88129439D02*
X183273667Y-88224677D01*
X183273667Y-88224677D02*
X183226048Y-88319915D01*
X183226048Y-88319915D02*
X183178429Y-88510391D01*
X183178429Y-88510391D02*
X183178429Y-88653248D01*
X183178429Y-88653248D02*
X183226048Y-88843724D01*
X183226048Y-88843724D02*
X183273667Y-88938962D01*
X183273667Y-88938962D02*
X183368905Y-89034201D01*
X183368905Y-89034201D02*
X183511762Y-89081820D01*
X183511762Y-89081820D02*
X183749857Y-89081820D01*
X182749857Y-89081820D02*
X182749857Y-88081820D01*
X182321286Y-89034201D02*
X182178429Y-89081820D01*
X182178429Y-89081820D02*
X181940334Y-89081820D01*
X181940334Y-89081820D02*
X181845096Y-89034201D01*
X181845096Y-89034201D02*
X181797477Y-88986581D01*
X181797477Y-88986581D02*
X181749858Y-88891343D01*
X181749858Y-88891343D02*
X181749858Y-88796105D01*
X181749858Y-88796105D02*
X181797477Y-88700867D01*
X181797477Y-88700867D02*
X181845096Y-88653248D01*
X181845096Y-88653248D02*
X181940334Y-88605629D01*
X181940334Y-88605629D02*
X182130810Y-88558010D01*
X182130810Y-88558010D02*
X182226048Y-88510391D01*
X182226048Y-88510391D02*
X182273667Y-88462772D01*
X182273667Y-88462772D02*
X182321286Y-88367534D01*
X182321286Y-88367534D02*
X182321286Y-88272296D01*
X182321286Y-88272296D02*
X182273667Y-88177058D01*
X182273667Y-88177058D02*
X182226048Y-88129439D01*
X182226048Y-88129439D02*
X182130810Y-88081820D01*
X182130810Y-88081820D02*
X181892715Y-88081820D01*
X181892715Y-88081820D02*
X181749858Y-88129439D01*
X181368905Y-88796105D02*
X180892715Y-88796105D01*
X181464143Y-89081820D02*
X181130810Y-88081820D01*
X181130810Y-88081820D02*
X180797477Y-89081820D01*
X180130810Y-88558010D02*
X179987953Y-88605629D01*
X179987953Y-88605629D02*
X179940334Y-88653248D01*
X179940334Y-88653248D02*
X179892715Y-88748486D01*
X179892715Y-88748486D02*
X179892715Y-88891343D01*
X179892715Y-88891343D02*
X179940334Y-88986581D01*
X179940334Y-88986581D02*
X179987953Y-89034201D01*
X179987953Y-89034201D02*
X180083191Y-89081820D01*
X180083191Y-89081820D02*
X180464143Y-89081820D01*
X180464143Y-89081820D02*
X180464143Y-88081820D01*
X180464143Y-88081820D02*
X180130810Y-88081820D01*
X180130810Y-88081820D02*
X180035572Y-88129439D01*
X180035572Y-88129439D02*
X179987953Y-88177058D01*
X179987953Y-88177058D02*
X179940334Y-88272296D01*
X179940334Y-88272296D02*
X179940334Y-88367534D01*
X179940334Y-88367534D02*
X179987953Y-88462772D01*
X179987953Y-88462772D02*
X180035572Y-88510391D01*
X180035572Y-88510391D02*
X180130810Y-88558010D01*
X180130810Y-88558010D02*
X180464143Y-88558010D01*
X178987953Y-89081820D02*
X179464143Y-89081820D01*
X179464143Y-89081820D02*
X179464143Y-88081820D01*
X178654619Y-88558010D02*
X178321286Y-88558010D01*
X178178429Y-89081820D02*
X178654619Y-89081820D01*
X178654619Y-89081820D02*
X178654619Y-88081820D01*
X178654619Y-88081820D02*
X178178429Y-88081820D01*
X157999104Y-126333333D02*
X157999104Y-126809523D01*
X158284819Y-126238095D02*
X157284819Y-126571428D01*
X157284819Y-126571428D02*
X158284819Y-126904761D01*
X158284819Y-127238095D02*
X157284819Y-127238095D01*
X157284819Y-127238095D02*
X157284819Y-127619047D01*
X157284819Y-127619047D02*
X157332438Y-127714285D01*
X157332438Y-127714285D02*
X157380057Y-127761904D01*
X157380057Y-127761904D02*
X157475295Y-127809523D01*
X157475295Y-127809523D02*
X157618152Y-127809523D01*
X157618152Y-127809523D02*
X157713390Y-127761904D01*
X157713390Y-127761904D02*
X157761009Y-127714285D01*
X157761009Y-127714285D02*
X157808628Y-127619047D01*
X157808628Y-127619047D02*
X157808628Y-127238095D01*
X157380057Y-128190476D02*
X157332438Y-128238095D01*
X157332438Y-128238095D02*
X157284819Y-128333333D01*
X157284819Y-128333333D02*
X157284819Y-128571428D01*
X157284819Y-128571428D02*
X157332438Y-128666666D01*
X157332438Y-128666666D02*
X157380057Y-128714285D01*
X157380057Y-128714285D02*
X157475295Y-128761904D01*
X157475295Y-128761904D02*
X157570533Y-128761904D01*
X157570533Y-128761904D02*
X157713390Y-128714285D01*
X157713390Y-128714285D02*
X158284819Y-128142857D01*
X158284819Y-128142857D02*
X158284819Y-128761904D01*
X157380057Y-129142857D02*
X157332438Y-129190476D01*
X157332438Y-129190476D02*
X157284819Y-129285714D01*
X157284819Y-129285714D02*
X157284819Y-129523809D01*
X157284819Y-129523809D02*
X157332438Y-129619047D01*
X157332438Y-129619047D02*
X157380057Y-129666666D01*
X157380057Y-129666666D02*
X157475295Y-129714285D01*
X157475295Y-129714285D02*
X157570533Y-129714285D01*
X157570533Y-129714285D02*
X157713390Y-129666666D01*
X157713390Y-129666666D02*
X158284819Y-129095238D01*
X158284819Y-129095238D02*
X158284819Y-129714285D01*
X157284819Y-130571428D02*
X157284819Y-130380952D01*
X157284819Y-130380952D02*
X157332438Y-130285714D01*
X157332438Y-130285714D02*
X157380057Y-130238095D01*
X157380057Y-130238095D02*
X157522914Y-130142857D01*
X157522914Y-130142857D02*
X157713390Y-130095238D01*
X157713390Y-130095238D02*
X158094342Y-130095238D01*
X158094342Y-130095238D02*
X158189580Y-130142857D01*
X158189580Y-130142857D02*
X158237200Y-130190476D01*
X158237200Y-130190476D02*
X158284819Y-130285714D01*
X158284819Y-130285714D02*
X158284819Y-130476190D01*
X158284819Y-130476190D02*
X158237200Y-130571428D01*
X158237200Y-130571428D02*
X158189580Y-130619047D01*
X158189580Y-130619047D02*
X158094342Y-130666666D01*
X158094342Y-130666666D02*
X157856247Y-130666666D01*
X157856247Y-130666666D02*
X157761009Y-130619047D01*
X157761009Y-130619047D02*
X157713390Y-130571428D01*
X157713390Y-130571428D02*
X157665771Y-130476190D01*
X157665771Y-130476190D02*
X157665771Y-130285714D01*
X157665771Y-130285714D02*
X157713390Y-130190476D01*
X157713390Y-130190476D02*
X157761009Y-130142857D01*
X157761009Y-130142857D02*
X157856247Y-130095238D01*
X157284819Y-131571428D02*
X157284819Y-131095238D01*
X157284819Y-131095238D02*
X157761009Y-131047619D01*
X157761009Y-131047619D02*
X157713390Y-131095238D01*
X157713390Y-131095238D02*
X157665771Y-131190476D01*
X157665771Y-131190476D02*
X157665771Y-131428571D01*
X157665771Y-131428571D02*
X157713390Y-131523809D01*
X157713390Y-131523809D02*
X157761009Y-131571428D01*
X157761009Y-131571428D02*
X157856247Y-131619047D01*
X157856247Y-131619047D02*
X158094342Y-131619047D01*
X158094342Y-131619047D02*
X158189580Y-131571428D01*
X158189580Y-131571428D02*
X158237200Y-131523809D01*
X158237200Y-131523809D02*
X158284819Y-131428571D01*
X158284819Y-131428571D02*
X158284819Y-131190476D01*
X158284819Y-131190476D02*
X158237200Y-131095238D01*
X158237200Y-131095238D02*
X158189580Y-131047619D01*
X157284819Y-131952381D02*
X157284819Y-132571428D01*
X157284819Y-132571428D02*
X157665771Y-132238095D01*
X157665771Y-132238095D02*
X157665771Y-132380952D01*
X157665771Y-132380952D02*
X157713390Y-132476190D01*
X157713390Y-132476190D02*
X157761009Y-132523809D01*
X157761009Y-132523809D02*
X157856247Y-132571428D01*
X157856247Y-132571428D02*
X158094342Y-132571428D01*
X158094342Y-132571428D02*
X158189580Y-132523809D01*
X158189580Y-132523809D02*
X158237200Y-132476190D01*
X158237200Y-132476190D02*
X158284819Y-132380952D01*
X158284819Y-132380952D02*
X158284819Y-132095238D01*
X158284819Y-132095238D02*
X158237200Y-132000000D01*
X158237200Y-132000000D02*
X158189580Y-131952381D01*
X157284819Y-132904762D02*
X158284819Y-133142857D01*
X158284819Y-133142857D02*
X157570533Y-133333333D01*
X157570533Y-133333333D02*
X158284819Y-133523809D01*
X158284819Y-133523809D02*
X157284819Y-133761905D01*
X157284819Y-134571428D02*
X157284819Y-134380952D01*
X157284819Y-134380952D02*
X157332438Y-134285714D01*
X157332438Y-134285714D02*
X157380057Y-134238095D01*
X157380057Y-134238095D02*
X157522914Y-134142857D01*
X157522914Y-134142857D02*
X157713390Y-134095238D01*
X157713390Y-134095238D02*
X158094342Y-134095238D01*
X158094342Y-134095238D02*
X158189580Y-134142857D01*
X158189580Y-134142857D02*
X158237200Y-134190476D01*
X158237200Y-134190476D02*
X158284819Y-134285714D01*
X158284819Y-134285714D02*
X158284819Y-134476190D01*
X158284819Y-134476190D02*
X158237200Y-134571428D01*
X158237200Y-134571428D02*
X158189580Y-134619047D01*
X158189580Y-134619047D02*
X158094342Y-134666666D01*
X158094342Y-134666666D02*
X157856247Y-134666666D01*
X157856247Y-134666666D02*
X157761009Y-134619047D01*
X157761009Y-134619047D02*
X157713390Y-134571428D01*
X157713390Y-134571428D02*
X157665771Y-134476190D01*
X157665771Y-134476190D02*
X157665771Y-134285714D01*
X157665771Y-134285714D02*
X157713390Y-134190476D01*
X157713390Y-134190476D02*
X157761009Y-134142857D01*
X157761009Y-134142857D02*
X157856247Y-134095238D01*
D15*
X155211927Y-130195238D02*
X155535737Y-130195238D01*
X155535737Y-130195238D02*
X155573832Y-130214285D01*
X155573832Y-130214285D02*
X155592880Y-130233333D01*
X155592880Y-130233333D02*
X155611927Y-130271428D01*
X155611927Y-130271428D02*
X155611927Y-130347619D01*
X155611927Y-130347619D02*
X155592880Y-130385714D01*
X155592880Y-130385714D02*
X155573832Y-130404761D01*
X155573832Y-130404761D02*
X155535737Y-130423809D01*
X155535737Y-130423809D02*
X155211927Y-130423809D01*
X155211927Y-130785714D02*
X155211927Y-130709524D01*
X155211927Y-130709524D02*
X155230975Y-130671428D01*
X155230975Y-130671428D02*
X155250022Y-130652381D01*
X155250022Y-130652381D02*
X155307165Y-130614286D01*
X155307165Y-130614286D02*
X155383356Y-130595238D01*
X155383356Y-130595238D02*
X155535737Y-130595238D01*
X155535737Y-130595238D02*
X155573832Y-130614286D01*
X155573832Y-130614286D02*
X155592880Y-130633333D01*
X155592880Y-130633333D02*
X155611927Y-130671428D01*
X155611927Y-130671428D02*
X155611927Y-130747619D01*
X155611927Y-130747619D02*
X155592880Y-130785714D01*
X155592880Y-130785714D02*
X155573832Y-130804762D01*
X155573832Y-130804762D02*
X155535737Y-130823809D01*
X155535737Y-130823809D02*
X155440499Y-130823809D01*
X155440499Y-130823809D02*
X155402403Y-130804762D01*
X155402403Y-130804762D02*
X155383356Y-130785714D01*
X155383356Y-130785714D02*
X155364308Y-130747619D01*
X155364308Y-130747619D02*
X155364308Y-130671428D01*
X155364308Y-130671428D02*
X155383356Y-130633333D01*
X155383356Y-130633333D02*
X155402403Y-130614286D01*
X155402403Y-130614286D02*
X155440499Y-130595238D01*
D10*
X153786857Y-119426819D02*
X154358285Y-119426819D01*
X154072571Y-119426819D02*
X154072571Y-118426819D01*
X154072571Y-118426819D02*
X154167809Y-118569676D01*
X154167809Y-118569676D02*
X154263047Y-118664914D01*
X154263047Y-118664914D02*
X154358285Y-118712533D01*
X153167809Y-118426819D02*
X153072571Y-118426819D01*
X153072571Y-118426819D02*
X152977333Y-118474438D01*
X152977333Y-118474438D02*
X152929714Y-118522057D01*
X152929714Y-118522057D02*
X152882095Y-118617295D01*
X152882095Y-118617295D02*
X152834476Y-118807771D01*
X152834476Y-118807771D02*
X152834476Y-119045866D01*
X152834476Y-119045866D02*
X152882095Y-119236342D01*
X152882095Y-119236342D02*
X152929714Y-119331580D01*
X152929714Y-119331580D02*
X152977333Y-119379200D01*
X152977333Y-119379200D02*
X153072571Y-119426819D01*
X153072571Y-119426819D02*
X153167809Y-119426819D01*
X153167809Y-119426819D02*
X153263047Y-119379200D01*
X153263047Y-119379200D02*
X153310666Y-119331580D01*
X153310666Y-119331580D02*
X153358285Y-119236342D01*
X153358285Y-119236342D02*
X153405904Y-119045866D01*
X153405904Y-119045866D02*
X153405904Y-118807771D01*
X153405904Y-118807771D02*
X153358285Y-118617295D01*
X153358285Y-118617295D02*
X153310666Y-118522057D01*
X153310666Y-118522057D02*
X153263047Y-118474438D01*
X153263047Y-118474438D02*
X153167809Y-118426819D01*
X151977333Y-118760152D02*
X151977333Y-119426819D01*
X152405904Y-118760152D02*
X152405904Y-119283961D01*
X152405904Y-119283961D02*
X152358285Y-119379200D01*
X152358285Y-119379200D02*
X152263047Y-119426819D01*
X152263047Y-119426819D02*
X152120190Y-119426819D01*
X152120190Y-119426819D02*
X152024952Y-119379200D01*
X152024952Y-119379200D02*
X151977333Y-119331580D01*
D14*
X153227333Y-117471530D02*
X153251142Y-117495340D01*
X153251142Y-117495340D02*
X153322571Y-117519149D01*
X153322571Y-117519149D02*
X153370190Y-117519149D01*
X153370190Y-117519149D02*
X153441618Y-117495340D01*
X153441618Y-117495340D02*
X153489237Y-117447720D01*
X153489237Y-117447720D02*
X153513047Y-117400101D01*
X153513047Y-117400101D02*
X153536856Y-117304863D01*
X153536856Y-117304863D02*
X153536856Y-117233435D01*
X153536856Y-117233435D02*
X153513047Y-117138197D01*
X153513047Y-117138197D02*
X153489237Y-117090578D01*
X153489237Y-117090578D02*
X153441618Y-117042959D01*
X153441618Y-117042959D02*
X153370190Y-117019149D01*
X153370190Y-117019149D02*
X153322571Y-117019149D01*
X153322571Y-117019149D02*
X153251142Y-117042959D01*
X153251142Y-117042959D02*
X153227333Y-117066768D01*
X153060666Y-117019149D02*
X152727333Y-117019149D01*
X152727333Y-117019149D02*
X152941618Y-117519149D01*
D10*
X154897523Y-80025819D02*
X154326095Y-80025819D01*
X154611809Y-81025819D02*
X154611809Y-80025819D01*
X153992761Y-81025819D02*
X153992761Y-80025819D01*
X153992761Y-80025819D02*
X153611809Y-80025819D01*
X153611809Y-80025819D02*
X153516571Y-80073438D01*
X153516571Y-80073438D02*
X153468952Y-80121057D01*
X153468952Y-80121057D02*
X153421333Y-80216295D01*
X153421333Y-80216295D02*
X153421333Y-80359152D01*
X153421333Y-80359152D02*
X153468952Y-80454390D01*
X153468952Y-80454390D02*
X153516571Y-80502009D01*
X153516571Y-80502009D02*
X153611809Y-80549628D01*
X153611809Y-80549628D02*
X153992761Y-80549628D01*
X152373713Y-80025819D02*
X152040380Y-81025819D01*
X152040380Y-81025819D02*
X151707047Y-80025819D01*
X151040380Y-80502009D02*
X150897523Y-80549628D01*
X150897523Y-80549628D02*
X150849904Y-80597247D01*
X150849904Y-80597247D02*
X150802285Y-80692485D01*
X150802285Y-80692485D02*
X150802285Y-80835342D01*
X150802285Y-80835342D02*
X150849904Y-80930580D01*
X150849904Y-80930580D02*
X150897523Y-80978200D01*
X150897523Y-80978200D02*
X150992761Y-81025819D01*
X150992761Y-81025819D02*
X151373713Y-81025819D01*
X151373713Y-81025819D02*
X151373713Y-80025819D01*
X151373713Y-80025819D02*
X151040380Y-80025819D01*
X151040380Y-80025819D02*
X150945142Y-80073438D01*
X150945142Y-80073438D02*
X150897523Y-80121057D01*
X150897523Y-80121057D02*
X150849904Y-80216295D01*
X150849904Y-80216295D02*
X150849904Y-80311533D01*
X150849904Y-80311533D02*
X150897523Y-80406771D01*
X150897523Y-80406771D02*
X150945142Y-80454390D01*
X150945142Y-80454390D02*
X151040380Y-80502009D01*
X151040380Y-80502009D02*
X151373713Y-80502009D01*
X150373713Y-80025819D02*
X150373713Y-80835342D01*
X150373713Y-80835342D02*
X150326094Y-80930580D01*
X150326094Y-80930580D02*
X150278475Y-80978200D01*
X150278475Y-80978200D02*
X150183237Y-81025819D01*
X150183237Y-81025819D02*
X149992761Y-81025819D01*
X149992761Y-81025819D02*
X149897523Y-80978200D01*
X149897523Y-80978200D02*
X149849904Y-80930580D01*
X149849904Y-80930580D02*
X149802285Y-80835342D01*
X149802285Y-80835342D02*
X149802285Y-80025819D01*
X149373713Y-80978200D02*
X149230856Y-81025819D01*
X149230856Y-81025819D02*
X148992761Y-81025819D01*
X148992761Y-81025819D02*
X148897523Y-80978200D01*
X148897523Y-80978200D02*
X148849904Y-80930580D01*
X148849904Y-80930580D02*
X148802285Y-80835342D01*
X148802285Y-80835342D02*
X148802285Y-80740104D01*
X148802285Y-80740104D02*
X148849904Y-80644866D01*
X148849904Y-80644866D02*
X148897523Y-80597247D01*
X148897523Y-80597247D02*
X148992761Y-80549628D01*
X148992761Y-80549628D02*
X149183237Y-80502009D01*
X149183237Y-80502009D02*
X149278475Y-80454390D01*
X149278475Y-80454390D02*
X149326094Y-80406771D01*
X149326094Y-80406771D02*
X149373713Y-80311533D01*
X149373713Y-80311533D02*
X149373713Y-80216295D01*
X149373713Y-80216295D02*
X149326094Y-80121057D01*
X149326094Y-80121057D02*
X149278475Y-80073438D01*
X149278475Y-80073438D02*
X149183237Y-80025819D01*
X149183237Y-80025819D02*
X148945142Y-80025819D01*
X148945142Y-80025819D02*
X148802285Y-80073438D01*
X148611809Y-81121057D02*
X147849904Y-81121057D01*
X147611808Y-81025819D02*
X147611808Y-80025819D01*
X147611808Y-80502009D02*
X147040380Y-80502009D01*
X147040380Y-81025819D02*
X147040380Y-80025819D01*
X146564189Y-81025819D02*
X146564189Y-80025819D01*
X146564189Y-80025819D02*
X146326094Y-80025819D01*
X146326094Y-80025819D02*
X146183237Y-80073438D01*
X146183237Y-80073438D02*
X146087999Y-80168676D01*
X146087999Y-80168676D02*
X146040380Y-80263914D01*
X146040380Y-80263914D02*
X145992761Y-80454390D01*
X145992761Y-80454390D02*
X145992761Y-80597247D01*
X145992761Y-80597247D02*
X146040380Y-80787723D01*
X146040380Y-80787723D02*
X146087999Y-80882961D01*
X146087999Y-80882961D02*
X146183237Y-80978200D01*
X146183237Y-80978200D02*
X146326094Y-81025819D01*
X146326094Y-81025819D02*
X146564189Y-81025819D01*
X145564189Y-81025819D02*
X145564189Y-80025819D01*
X145564189Y-80025819D02*
X145230856Y-80740104D01*
X145230856Y-80740104D02*
X144897523Y-80025819D01*
X144897523Y-80025819D02*
X144897523Y-81025819D01*
X144421332Y-81025819D02*
X144421332Y-80025819D01*
X151326094Y-84075819D02*
X150754666Y-84075819D01*
X151040380Y-85075819D02*
X151040380Y-84075819D01*
X150421332Y-85075819D02*
X150421332Y-84075819D01*
X150421332Y-84075819D02*
X150040380Y-84075819D01*
X150040380Y-84075819D02*
X149945142Y-84123438D01*
X149945142Y-84123438D02*
X149897523Y-84171057D01*
X149897523Y-84171057D02*
X149849904Y-84266295D01*
X149849904Y-84266295D02*
X149849904Y-84409152D01*
X149849904Y-84409152D02*
X149897523Y-84504390D01*
X149897523Y-84504390D02*
X149945142Y-84552009D01*
X149945142Y-84552009D02*
X150040380Y-84599628D01*
X150040380Y-84599628D02*
X150421332Y-84599628D01*
X148897523Y-85075819D02*
X149468951Y-85075819D01*
X149183237Y-85075819D02*
X149183237Y-84075819D01*
X149183237Y-84075819D02*
X149278475Y-84218676D01*
X149278475Y-84218676D02*
X149373713Y-84313914D01*
X149373713Y-84313914D02*
X149468951Y-84361533D01*
X148278475Y-84075819D02*
X148183237Y-84075819D01*
X148183237Y-84075819D02*
X148087999Y-84123438D01*
X148087999Y-84123438D02*
X148040380Y-84171057D01*
X148040380Y-84171057D02*
X147992761Y-84266295D01*
X147992761Y-84266295D02*
X147945142Y-84456771D01*
X147945142Y-84456771D02*
X147945142Y-84694866D01*
X147945142Y-84694866D02*
X147992761Y-84885342D01*
X147992761Y-84885342D02*
X148040380Y-84980580D01*
X148040380Y-84980580D02*
X148087999Y-85028200D01*
X148087999Y-85028200D02*
X148183237Y-85075819D01*
X148183237Y-85075819D02*
X148278475Y-85075819D01*
X148278475Y-85075819D02*
X148373713Y-85028200D01*
X148373713Y-85028200D02*
X148421332Y-84980580D01*
X148421332Y-84980580D02*
X148468951Y-84885342D01*
X148468951Y-84885342D02*
X148516570Y-84694866D01*
X148516570Y-84694866D02*
X148516570Y-84456771D01*
X148516570Y-84456771D02*
X148468951Y-84266295D01*
X148468951Y-84266295D02*
X148421332Y-84171057D01*
X148421332Y-84171057D02*
X148373713Y-84123438D01*
X148373713Y-84123438D02*
X148278475Y-84075819D01*
X147720142Y-84575819D02*
X151545385Y-84575819D01*
X158676142Y-138064819D02*
X158104714Y-138064819D01*
X158390428Y-139064819D02*
X158390428Y-138064819D01*
X157771380Y-139064819D02*
X157771380Y-138064819D01*
X157771380Y-138064819D02*
X157390428Y-138064819D01*
X157390428Y-138064819D02*
X157295190Y-138112438D01*
X157295190Y-138112438D02*
X157247571Y-138160057D01*
X157247571Y-138160057D02*
X157199952Y-138255295D01*
X157199952Y-138255295D02*
X157199952Y-138398152D01*
X157199952Y-138398152D02*
X157247571Y-138493390D01*
X157247571Y-138493390D02*
X157295190Y-138541009D01*
X157295190Y-138541009D02*
X157390428Y-138588628D01*
X157390428Y-138588628D02*
X157771380Y-138588628D01*
X156152332Y-138064819D02*
X155818999Y-139064819D01*
X155818999Y-139064819D02*
X155485666Y-138064819D01*
X155152332Y-139064819D02*
X155152332Y-138064819D01*
X154676142Y-139064819D02*
X154676142Y-138064819D01*
X154676142Y-138064819D02*
X154104714Y-139064819D01*
X154104714Y-139064819D02*
X154104714Y-138064819D01*
X157580904Y-142114819D02*
X157009476Y-142114819D01*
X157295190Y-143114819D02*
X157295190Y-142114819D01*
X156676142Y-143114819D02*
X156676142Y-142114819D01*
X156676142Y-142114819D02*
X156295190Y-142114819D01*
X156295190Y-142114819D02*
X156199952Y-142162438D01*
X156199952Y-142162438D02*
X156152333Y-142210057D01*
X156152333Y-142210057D02*
X156104714Y-142305295D01*
X156104714Y-142305295D02*
X156104714Y-142448152D01*
X156104714Y-142448152D02*
X156152333Y-142543390D01*
X156152333Y-142543390D02*
X156199952Y-142591009D01*
X156199952Y-142591009D02*
X156295190Y-142638628D01*
X156295190Y-142638628D02*
X156676142Y-142638628D01*
X155723761Y-142210057D02*
X155676142Y-142162438D01*
X155676142Y-142162438D02*
X155580904Y-142114819D01*
X155580904Y-142114819D02*
X155342809Y-142114819D01*
X155342809Y-142114819D02*
X155247571Y-142162438D01*
X155247571Y-142162438D02*
X155199952Y-142210057D01*
X155199952Y-142210057D02*
X155152333Y-142305295D01*
X155152333Y-142305295D02*
X155152333Y-142400533D01*
X155152333Y-142400533D02*
X155199952Y-142543390D01*
X155199952Y-142543390D02*
X155771380Y-143114819D01*
X155771380Y-143114819D02*
X155152333Y-143114819D01*
X154927333Y-142614819D02*
X157800195Y-142614819D01*
X205425211Y-106708975D02*
X204920135Y-107214051D01*
X204920135Y-107214051D02*
X204852792Y-107348738D01*
X204852792Y-107348738D02*
X204852792Y-107483425D01*
X204852792Y-107483425D02*
X204920135Y-107618112D01*
X204920135Y-107618112D02*
X204987479Y-107685456D01*
X204448730Y-107079364D02*
X204314043Y-107012021D01*
X204314043Y-107012021D02*
X204145685Y-106843662D01*
X204145685Y-106843662D02*
X204112013Y-106742647D01*
X204112013Y-106742647D02*
X204112013Y-106675303D01*
X204112013Y-106675303D02*
X204145685Y-106574288D01*
X204145685Y-106574288D02*
X204213028Y-106506944D01*
X204213028Y-106506944D02*
X204314043Y-106473273D01*
X204314043Y-106473273D02*
X204381387Y-106473273D01*
X204381387Y-106473273D02*
X204482402Y-106506944D01*
X204482402Y-106506944D02*
X204650761Y-106607960D01*
X204650761Y-106607960D02*
X204751776Y-106641631D01*
X204751776Y-106641631D02*
X204819120Y-106641631D01*
X204819120Y-106641631D02*
X204920135Y-106607960D01*
X204920135Y-106607960D02*
X204987478Y-106540616D01*
X204987478Y-106540616D02*
X205021150Y-106439601D01*
X205021150Y-106439601D02*
X205021150Y-106372257D01*
X205021150Y-106372257D02*
X204987478Y-106271242D01*
X204987478Y-106271242D02*
X204819120Y-106102883D01*
X204819120Y-106102883D02*
X204684433Y-106035540D01*
X204516074Y-105799837D02*
X204112013Y-105395776D01*
X203606937Y-106304914D02*
X204314043Y-105597807D01*
X203270219Y-106102883D02*
X202731471Y-105564135D01*
X202697799Y-105328433D02*
X202563112Y-105261089D01*
X202563112Y-105261089D02*
X202394753Y-105092730D01*
X202394753Y-105092730D02*
X202361081Y-104991715D01*
X202361081Y-104991715D02*
X202361081Y-104924372D01*
X202361081Y-104924372D02*
X202394753Y-104823356D01*
X202394753Y-104823356D02*
X202462097Y-104756013D01*
X202462097Y-104756013D02*
X202563112Y-104722341D01*
X202563112Y-104722341D02*
X202630455Y-104722341D01*
X202630455Y-104722341D02*
X202731471Y-104756013D01*
X202731471Y-104756013D02*
X202899829Y-104857028D01*
X202899829Y-104857028D02*
X203000845Y-104890700D01*
X203000845Y-104890700D02*
X203068188Y-104890700D01*
X203068188Y-104890700D02*
X203169203Y-104857028D01*
X203169203Y-104857028D02*
X203236547Y-104789685D01*
X203236547Y-104789685D02*
X203270219Y-104688669D01*
X203270219Y-104688669D02*
X203270219Y-104621326D01*
X203270219Y-104621326D02*
X203236547Y-104520311D01*
X203236547Y-104520311D02*
X203068188Y-104351952D01*
X203068188Y-104351952D02*
X202933501Y-104284608D01*
X201957020Y-104654998D02*
X202664127Y-103947891D01*
X202327410Y-104284608D02*
X201923349Y-103880547D01*
X201552959Y-104250937D02*
X202260066Y-103543830D01*
X201350929Y-103308128D02*
X201216242Y-103240784D01*
X201216242Y-103240784D02*
X201148898Y-103240784D01*
X201148898Y-103240784D02*
X201047883Y-103274456D01*
X201047883Y-103274456D02*
X200946868Y-103375471D01*
X200946868Y-103375471D02*
X200913196Y-103476486D01*
X200913196Y-103476486D02*
X200913196Y-103543830D01*
X200913196Y-103543830D02*
X200946868Y-103644845D01*
X200946868Y-103644845D02*
X201216242Y-103914219D01*
X201216242Y-103914219D02*
X201923349Y-103207112D01*
X201923349Y-103207112D02*
X201687646Y-102971410D01*
X201687646Y-102971410D02*
X201586631Y-102937738D01*
X201586631Y-102937738D02*
X201519288Y-102937738D01*
X201519288Y-102937738D02*
X201418272Y-102971410D01*
X201418272Y-102971410D02*
X201350929Y-103038754D01*
X201350929Y-103038754D02*
X201317257Y-103139769D01*
X201317257Y-103139769D02*
X201317257Y-103207112D01*
X201317257Y-103207112D02*
X201350929Y-103308128D01*
X201350929Y-103308128D02*
X201586631Y-103543830D01*
X200509135Y-103207112D02*
X201216242Y-102500006D01*
X201216242Y-102500006D02*
X200475463Y-102769380D01*
X200475463Y-102769380D02*
X200744837Y-102028601D01*
X200744837Y-102028601D02*
X200037731Y-102735708D01*
X200273433Y-101557197D02*
X200206089Y-101489853D01*
X200206089Y-101489853D02*
X200105074Y-101456181D01*
X200105074Y-101456181D02*
X200037731Y-101456181D01*
X200037731Y-101456181D02*
X199936715Y-101489853D01*
X199936715Y-101489853D02*
X199768357Y-101590868D01*
X199768357Y-101590868D02*
X199599998Y-101759227D01*
X199599998Y-101759227D02*
X199498983Y-101927586D01*
X199498983Y-101927586D02*
X199465311Y-102028601D01*
X199465311Y-102028601D02*
X199465311Y-102095945D01*
X199465311Y-102095945D02*
X199498983Y-102196960D01*
X199498983Y-102196960D02*
X199566326Y-102264303D01*
X199566326Y-102264303D02*
X199667341Y-102297975D01*
X199667341Y-102297975D02*
X199734685Y-102297975D01*
X199734685Y-102297975D02*
X199835700Y-102264303D01*
X199835700Y-102264303D02*
X200004059Y-102163288D01*
X200004059Y-102163288D02*
X200172418Y-101994929D01*
X200172418Y-101994929D02*
X200273433Y-101826571D01*
X200273433Y-101826571D02*
X200307105Y-101725555D01*
X200307105Y-101725555D02*
X200307105Y-101658212D01*
X200307105Y-101658212D02*
X200273433Y-101557197D01*
X199195937Y-100951105D02*
X198724532Y-101422510D01*
X199633670Y-100850090D02*
X199296952Y-101523525D01*
X199296952Y-101523525D02*
X198859219Y-101085792D01*
X198488830Y-100446029D02*
X198354143Y-100378685D01*
X198354143Y-100378685D02*
X198286799Y-100378685D01*
X198286799Y-100378685D02*
X198185784Y-100412357D01*
X198185784Y-100412357D02*
X198084769Y-100513372D01*
X198084769Y-100513372D02*
X198051097Y-100614387D01*
X198051097Y-100614387D02*
X198051097Y-100681731D01*
X198051097Y-100681731D02*
X198084769Y-100782746D01*
X198084769Y-100782746D02*
X198354143Y-101052120D01*
X198354143Y-101052120D02*
X199061250Y-100345013D01*
X199061250Y-100345013D02*
X198825547Y-100109311D01*
X198825547Y-100109311D02*
X198724532Y-100075639D01*
X198724532Y-100075639D02*
X198657189Y-100075639D01*
X198657189Y-100075639D02*
X198556173Y-100109311D01*
X198556173Y-100109311D02*
X198488830Y-100176655D01*
X198488830Y-100176655D02*
X198455158Y-100277670D01*
X198455158Y-100277670D02*
X198455158Y-100345013D01*
X198455158Y-100345013D02*
X198488830Y-100446029D01*
X198488830Y-100446029D02*
X198724532Y-100681731D01*
X197916410Y-100075639D02*
X197377662Y-99536891D01*
X196838914Y-99469548D02*
X196704227Y-99402205D01*
X196704227Y-99402205D02*
X196535869Y-99233846D01*
X196535869Y-99233846D02*
X196502197Y-99132831D01*
X196502197Y-99132831D02*
X196502197Y-99065487D01*
X196502197Y-99065487D02*
X196535869Y-98964472D01*
X196535869Y-98964472D02*
X196603212Y-98897128D01*
X196603212Y-98897128D02*
X196704227Y-98863457D01*
X196704227Y-98863457D02*
X196771571Y-98863457D01*
X196771571Y-98863457D02*
X196872586Y-98897128D01*
X196872586Y-98897128D02*
X197040945Y-98998144D01*
X197040945Y-98998144D02*
X197141960Y-99031815D01*
X197141960Y-99031815D02*
X197209304Y-99031815D01*
X197209304Y-99031815D02*
X197310319Y-98998144D01*
X197310319Y-98998144D02*
X197377662Y-98930800D01*
X197377662Y-98930800D02*
X197411334Y-98829785D01*
X197411334Y-98829785D02*
X197411334Y-98762441D01*
X197411334Y-98762441D02*
X197377662Y-98661426D01*
X197377662Y-98661426D02*
X197209304Y-98493067D01*
X197209304Y-98493067D02*
X197074617Y-98425724D01*
X195694075Y-98392052D02*
X196266495Y-98291037D01*
X196098136Y-98796113D02*
X196805243Y-98089006D01*
X196805243Y-98089006D02*
X196535869Y-97819632D01*
X196535869Y-97819632D02*
X196434853Y-97785960D01*
X196434853Y-97785960D02*
X196367510Y-97785960D01*
X196367510Y-97785960D02*
X196266495Y-97819632D01*
X196266495Y-97819632D02*
X196165479Y-97920647D01*
X196165479Y-97920647D02*
X196131808Y-98021663D01*
X196131808Y-98021663D02*
X196131808Y-98089006D01*
X196131808Y-98089006D02*
X196165479Y-98190021D01*
X196165479Y-98190021D02*
X196434853Y-98459396D01*
X195458372Y-98089006D02*
X195323685Y-98021663D01*
X195323685Y-98021663D02*
X195155327Y-97853304D01*
X195155327Y-97853304D02*
X195121655Y-97752289D01*
X195121655Y-97752289D02*
X195121655Y-97684945D01*
X195121655Y-97684945D02*
X195155327Y-97583930D01*
X195155327Y-97583930D02*
X195222670Y-97516586D01*
X195222670Y-97516586D02*
X195323685Y-97482915D01*
X195323685Y-97482915D02*
X195391029Y-97482915D01*
X195391029Y-97482915D02*
X195492044Y-97516586D01*
X195492044Y-97516586D02*
X195660403Y-97617602D01*
X195660403Y-97617602D02*
X195761418Y-97651273D01*
X195761418Y-97651273D02*
X195828762Y-97651273D01*
X195828762Y-97651273D02*
X195929777Y-97617602D01*
X195929777Y-97617602D02*
X195997120Y-97550258D01*
X195997120Y-97550258D02*
X196030792Y-97449243D01*
X196030792Y-97449243D02*
X196030792Y-97381899D01*
X196030792Y-97381899D02*
X195997120Y-97280884D01*
X195997120Y-97280884D02*
X195828762Y-97112525D01*
X195828762Y-97112525D02*
X195694075Y-97045182D01*
X194784937Y-97415571D02*
X194650250Y-97348228D01*
X194650250Y-97348228D02*
X194481892Y-97179869D01*
X194481892Y-97179869D02*
X194448220Y-97078854D01*
X194448220Y-97078854D02*
X194448220Y-97011510D01*
X194448220Y-97011510D02*
X194481892Y-96910495D01*
X194481892Y-96910495D02*
X194549235Y-96843151D01*
X194549235Y-96843151D02*
X194650250Y-96809480D01*
X194650250Y-96809480D02*
X194717594Y-96809480D01*
X194717594Y-96809480D02*
X194818609Y-96843151D01*
X194818609Y-96843151D02*
X194986968Y-96944167D01*
X194986968Y-96944167D02*
X195087983Y-96977838D01*
X195087983Y-96977838D02*
X195155327Y-96977838D01*
X195155327Y-96977838D02*
X195256342Y-96944167D01*
X195256342Y-96944167D02*
X195323685Y-96876823D01*
X195323685Y-96876823D02*
X195357357Y-96775808D01*
X195357357Y-96775808D02*
X195357357Y-96708464D01*
X195357357Y-96708464D02*
X195323685Y-96607449D01*
X195323685Y-96607449D02*
X195155327Y-96439090D01*
X195155327Y-96439090D02*
X195020640Y-96371747D01*
X194313533Y-96472762D02*
X193774785Y-95934014D01*
X193976816Y-95260579D02*
X193572754Y-94856518D01*
X193067678Y-95765655D02*
X193774785Y-95058549D01*
X192764632Y-94721831D02*
X192629945Y-94654488D01*
X192629945Y-94654488D02*
X192562602Y-94654488D01*
X192562602Y-94654488D02*
X192461587Y-94688159D01*
X192461587Y-94688159D02*
X192360571Y-94789175D01*
X192360571Y-94789175D02*
X192326900Y-94890190D01*
X192326900Y-94890190D02*
X192326900Y-94957533D01*
X192326900Y-94957533D02*
X192360571Y-95058549D01*
X192360571Y-95058549D02*
X192629945Y-95327923D01*
X192629945Y-95327923D02*
X193337052Y-94620816D01*
X193337052Y-94620816D02*
X193101350Y-94385114D01*
X193101350Y-94385114D02*
X193000335Y-94351442D01*
X193000335Y-94351442D02*
X192932991Y-94351442D01*
X192932991Y-94351442D02*
X192831976Y-94385114D01*
X192831976Y-94385114D02*
X192764632Y-94452457D01*
X192764632Y-94452457D02*
X192730961Y-94553472D01*
X192730961Y-94553472D02*
X192730961Y-94620816D01*
X192730961Y-94620816D02*
X192764632Y-94721831D01*
X192764632Y-94721831D02*
X193000335Y-94957533D01*
X197359143Y-103663365D02*
X196854067Y-104168441D01*
X196854067Y-104168441D02*
X196786723Y-104303128D01*
X196786723Y-104303128D02*
X196786723Y-104437815D01*
X196786723Y-104437815D02*
X196854067Y-104572502D01*
X196854067Y-104572502D02*
X196921410Y-104639846D01*
X195944929Y-103663365D02*
X196348990Y-104067426D01*
X196146960Y-103865395D02*
X196854067Y-103158288D01*
X196854067Y-103158288D02*
X196820395Y-103326647D01*
X196820395Y-103326647D02*
X196820395Y-103461334D01*
X196820395Y-103461334D02*
X196854067Y-103562349D01*
X195810242Y-102585869D02*
X195338838Y-103057273D01*
X196247975Y-102484853D02*
X195911258Y-103158288D01*
X195911258Y-103158288D02*
X195473525Y-102720556D01*
X160342809Y-141112819D02*
X159771381Y-141112819D01*
X160057095Y-142112819D02*
X160057095Y-141112819D01*
X159438047Y-142112819D02*
X159438047Y-141112819D01*
X159438047Y-141112819D02*
X159057095Y-141112819D01*
X159057095Y-141112819D02*
X158961857Y-141160438D01*
X158961857Y-141160438D02*
X158914238Y-141208057D01*
X158914238Y-141208057D02*
X158866619Y-141303295D01*
X158866619Y-141303295D02*
X158866619Y-141446152D01*
X158866619Y-141446152D02*
X158914238Y-141541390D01*
X158914238Y-141541390D02*
X158961857Y-141589009D01*
X158961857Y-141589009D02*
X159057095Y-141636628D01*
X159057095Y-141636628D02*
X159438047Y-141636628D01*
X157676142Y-142112819D02*
X157676142Y-141112819D01*
X157676142Y-141112819D02*
X157295190Y-141112819D01*
X157295190Y-141112819D02*
X157199952Y-141160438D01*
X157199952Y-141160438D02*
X157152333Y-141208057D01*
X157152333Y-141208057D02*
X157104714Y-141303295D01*
X157104714Y-141303295D02*
X157104714Y-141446152D01*
X157104714Y-141446152D02*
X157152333Y-141541390D01*
X157152333Y-141541390D02*
X157199952Y-141589009D01*
X157199952Y-141589009D02*
X157295190Y-141636628D01*
X157295190Y-141636628D02*
X157676142Y-141636628D01*
X156723761Y-142065200D02*
X156580904Y-142112819D01*
X156580904Y-142112819D02*
X156342809Y-142112819D01*
X156342809Y-142112819D02*
X156247571Y-142065200D01*
X156247571Y-142065200D02*
X156199952Y-142017580D01*
X156199952Y-142017580D02*
X156152333Y-141922342D01*
X156152333Y-141922342D02*
X156152333Y-141827104D01*
X156152333Y-141827104D02*
X156199952Y-141731866D01*
X156199952Y-141731866D02*
X156247571Y-141684247D01*
X156247571Y-141684247D02*
X156342809Y-141636628D01*
X156342809Y-141636628D02*
X156533285Y-141589009D01*
X156533285Y-141589009D02*
X156628523Y-141541390D01*
X156628523Y-141541390D02*
X156676142Y-141493771D01*
X156676142Y-141493771D02*
X156723761Y-141398533D01*
X156723761Y-141398533D02*
X156723761Y-141303295D01*
X156723761Y-141303295D02*
X156676142Y-141208057D01*
X156676142Y-141208057D02*
X156628523Y-141160438D01*
X156628523Y-141160438D02*
X156533285Y-141112819D01*
X156533285Y-141112819D02*
X156295190Y-141112819D01*
X156295190Y-141112819D02*
X156152333Y-141160438D01*
X155723761Y-141112819D02*
X155723761Y-141922342D01*
X155723761Y-141922342D02*
X155676142Y-142017580D01*
X155676142Y-142017580D02*
X155628523Y-142065200D01*
X155628523Y-142065200D02*
X155533285Y-142112819D01*
X155533285Y-142112819D02*
X155342809Y-142112819D01*
X155342809Y-142112819D02*
X155247571Y-142065200D01*
X155247571Y-142065200D02*
X155199952Y-142017580D01*
X155199952Y-142017580D02*
X155152333Y-141922342D01*
X155152333Y-141922342D02*
X155152333Y-141112819D01*
X154914238Y-142208057D02*
X154152333Y-142208057D01*
X153914237Y-141589009D02*
X153580904Y-141589009D01*
X153438047Y-142112819D02*
X153914237Y-142112819D01*
X153914237Y-142112819D02*
X153914237Y-141112819D01*
X153914237Y-141112819D02*
X153438047Y-141112819D01*
X153009475Y-142112819D02*
X153009475Y-141112819D01*
X153009475Y-141112819D02*
X152438047Y-142112819D01*
X152438047Y-142112819D02*
X152438047Y-141112819D01*
X157580904Y-145162819D02*
X157009476Y-145162819D01*
X157295190Y-146162819D02*
X157295190Y-145162819D01*
X156676142Y-146162819D02*
X156676142Y-145162819D01*
X156676142Y-145162819D02*
X156295190Y-145162819D01*
X156295190Y-145162819D02*
X156199952Y-145210438D01*
X156199952Y-145210438D02*
X156152333Y-145258057D01*
X156152333Y-145258057D02*
X156104714Y-145353295D01*
X156104714Y-145353295D02*
X156104714Y-145496152D01*
X156104714Y-145496152D02*
X156152333Y-145591390D01*
X156152333Y-145591390D02*
X156199952Y-145639009D01*
X156199952Y-145639009D02*
X156295190Y-145686628D01*
X156295190Y-145686628D02*
X156676142Y-145686628D01*
X155771380Y-145162819D02*
X155152333Y-145162819D01*
X155152333Y-145162819D02*
X155485666Y-145543771D01*
X155485666Y-145543771D02*
X155342809Y-145543771D01*
X155342809Y-145543771D02*
X155247571Y-145591390D01*
X155247571Y-145591390D02*
X155199952Y-145639009D01*
X155199952Y-145639009D02*
X155152333Y-145734247D01*
X155152333Y-145734247D02*
X155152333Y-145972342D01*
X155152333Y-145972342D02*
X155199952Y-146067580D01*
X155199952Y-146067580D02*
X155247571Y-146115200D01*
X155247571Y-146115200D02*
X155342809Y-146162819D01*
X155342809Y-146162819D02*
X155628523Y-146162819D01*
X155628523Y-146162819D02*
X155723761Y-146115200D01*
X155723761Y-146115200D02*
X155771380Y-146067580D01*
X154927333Y-145662819D02*
X157800195Y-145662819D01*
X158057047Y-132578819D02*
X158628475Y-132578819D01*
X158342761Y-132578819D02*
X158342761Y-131578819D01*
X158342761Y-131578819D02*
X158437999Y-131721676D01*
X158437999Y-131721676D02*
X158533237Y-131816914D01*
X158533237Y-131816914D02*
X158628475Y-131864533D01*
X157152285Y-131578819D02*
X157628475Y-131578819D01*
X157628475Y-131578819D02*
X157676094Y-132055009D01*
X157676094Y-132055009D02*
X157628475Y-132007390D01*
X157628475Y-132007390D02*
X157533237Y-131959771D01*
X157533237Y-131959771D02*
X157295142Y-131959771D01*
X157295142Y-131959771D02*
X157199904Y-132007390D01*
X157199904Y-132007390D02*
X157152285Y-132055009D01*
X157152285Y-132055009D02*
X157104666Y-132150247D01*
X157104666Y-132150247D02*
X157104666Y-132388342D01*
X157104666Y-132388342D02*
X157152285Y-132483580D01*
X157152285Y-132483580D02*
X157199904Y-132531200D01*
X157199904Y-132531200D02*
X157295142Y-132578819D01*
X157295142Y-132578819D02*
X157533237Y-132578819D01*
X157533237Y-132578819D02*
X157628475Y-132531200D01*
X157628475Y-132531200D02*
X157676094Y-132483580D01*
X156676094Y-132578819D02*
X156676094Y-131578819D01*
X156104666Y-132578819D02*
X156533237Y-132007390D01*
X156104666Y-131578819D02*
X156676094Y-132150247D01*
X154390380Y-132578819D02*
X154961808Y-132578819D01*
X154676094Y-132578819D02*
X154676094Y-131578819D01*
X154676094Y-131578819D02*
X154771332Y-131721676D01*
X154771332Y-131721676D02*
X154866570Y-131816914D01*
X154866570Y-131816914D02*
X154961808Y-131864533D01*
X154009427Y-132578819D02*
X153247523Y-131578819D01*
X153866570Y-131578819D02*
X153771332Y-131626438D01*
X153771332Y-131626438D02*
X153723713Y-131721676D01*
X153723713Y-131721676D02*
X153771332Y-131816914D01*
X153771332Y-131816914D02*
X153866570Y-131864533D01*
X153866570Y-131864533D02*
X153961808Y-131816914D01*
X153961808Y-131816914D02*
X154009427Y-131721676D01*
X154009427Y-131721676D02*
X153961808Y-131626438D01*
X153961808Y-131626438D02*
X153866570Y-131578819D01*
X153295142Y-132531200D02*
X153247523Y-132435961D01*
X153247523Y-132435961D02*
X153295142Y-132340723D01*
X153295142Y-132340723D02*
X153390380Y-132293104D01*
X153390380Y-132293104D02*
X153485618Y-132340723D01*
X153485618Y-132340723D02*
X153533237Y-132435961D01*
X153533237Y-132435961D02*
X153485618Y-132531200D01*
X153485618Y-132531200D02*
X153390380Y-132578819D01*
X153390380Y-132578819D02*
X153295142Y-132531200D01*
D11*
X156105142Y-133412200D02*
X156191809Y-133288391D01*
X156253714Y-133412200D02*
X156253714Y-133152200D01*
X156253714Y-133152200D02*
X156154666Y-133152200D01*
X156154666Y-133152200D02*
X156129904Y-133164581D01*
X156129904Y-133164581D02*
X156117523Y-133176962D01*
X156117523Y-133176962D02*
X156105142Y-133201724D01*
X156105142Y-133201724D02*
X156105142Y-133238867D01*
X156105142Y-133238867D02*
X156117523Y-133263629D01*
X156117523Y-133263629D02*
X156129904Y-133276010D01*
X156129904Y-133276010D02*
X156154666Y-133288391D01*
X156154666Y-133288391D02*
X156253714Y-133288391D01*
X155857523Y-133412200D02*
X156006095Y-133412200D01*
X155931809Y-133412200D02*
X155931809Y-133152200D01*
X155931809Y-133152200D02*
X155956571Y-133189343D01*
X155956571Y-133189343D02*
X155981333Y-133214105D01*
X155981333Y-133214105D02*
X156006095Y-133226486D01*
X155758476Y-133176962D02*
X155746095Y-133164581D01*
X155746095Y-133164581D02*
X155721333Y-133152200D01*
X155721333Y-133152200D02*
X155659428Y-133152200D01*
X155659428Y-133152200D02*
X155634666Y-133164581D01*
X155634666Y-133164581D02*
X155622285Y-133176962D01*
X155622285Y-133176962D02*
X155609904Y-133201724D01*
X155609904Y-133201724D02*
X155609904Y-133226486D01*
X155609904Y-133226486D02*
X155622285Y-133263629D01*
X155622285Y-133263629D02*
X155770857Y-133412200D01*
X155770857Y-133412200D02*
X155609904Y-133412200D01*
D16*
X155180000Y-84280000D02*
X155180000Y-85280000D01*
X155180000Y-85280000D02*
X155680000Y-85280000D01*
X155680000Y-84280000D02*
X155180000Y-84280000D01*
X155680000Y-85280000D02*
X155680000Y-84280000D01*
X152538298Y-88746198D02*
X152538298Y-89746198D01*
X152538298Y-89746198D02*
X153038298Y-89746198D01*
X153038298Y-88746198D02*
X152538298Y-88746198D01*
X153038298Y-89746198D02*
X153038298Y-88746198D01*
X150808000Y-84920000D02*
X150808000Y-87820000D01*
X150808000Y-84920000D02*
X152118000Y-84920000D01*
X150808000Y-87820000D02*
X152568000Y-87820000D01*
X152568000Y-85370000D02*
X152118000Y-84920000D01*
X152568000Y-85370000D02*
X152568000Y-87820000D01*
D17*
X191585000Y-77468000D02*
X191585000Y-90568000D01*
X191585000Y-90568000D02*
X205635000Y-90568000D01*
X205635000Y-77468000D02*
X191585000Y-77468000D01*
X205635000Y-90568000D02*
X205635000Y-77468000D01*
D18*
X204485000Y-86398000D02*
G75*
G02*
X204285000Y-86398000I-100000J0D01*
G01*
X204285000Y-86398000D02*
G75*
G02*
X204485000Y-86398000I100000J0D01*
G01*
D16*
X152144000Y-114635000D02*
X152144000Y-115885000D01*
X152144000Y-115885000D02*
X154144000Y-115885000D01*
X154144000Y-114635000D02*
X152144000Y-114635000D01*
X154144000Y-115885000D02*
X154144000Y-114635000D01*
X157599000Y-129246000D02*
X157599000Y-131246000D01*
X157599000Y-131246000D02*
X158849000Y-131246000D01*
X158849000Y-129246000D02*
X157599000Y-129246000D01*
X158849000Y-131246000D02*
X158849000Y-129246000D01*
X153980000Y-130100000D02*
X153980000Y-131300000D01*
X153980000Y-131300000D02*
X156880000Y-131300000D01*
X154380000Y-129700000D02*
X153980000Y-130100000D01*
X156880000Y-129700000D02*
X154380000Y-129700000D01*
X156880000Y-131300000D02*
X156880000Y-129700000D01*
X152144000Y-116667000D02*
X152144000Y-117917000D01*
X152144000Y-117917000D02*
X154144000Y-117917000D01*
X154144000Y-116667000D02*
X152144000Y-116667000D01*
X154144000Y-117917000D02*
X154144000Y-116667000D01*
X193113177Y-102521853D02*
X197355817Y-106764493D01*
X195163786Y-100471243D02*
X193113177Y-102521853D01*
X195163786Y-100471243D02*
X199406427Y-104713884D01*
X195724446Y-102031903D02*
X196578000Y-101885456D01*
X195870893Y-101178350D02*
X195724446Y-102031903D01*
X199406427Y-104713884D02*
X197355817Y-106764493D01*
X194951654Y-103016827D02*
X194527390Y-103441091D01*
X194315258Y-103228959D01*
X194739522Y-102804695D01*
X194951654Y-103016827D01*
X195658761Y-103723934D02*
X195234497Y-104148198D01*
X195022365Y-103936066D01*
X195446629Y-103511802D01*
X195658761Y-103723934D01*
X196365868Y-104431041D02*
X195941604Y-104855305D01*
X195729472Y-104643173D01*
X196153736Y-104218909D01*
X196365868Y-104431041D01*
X197072975Y-105138148D02*
X196648711Y-105562412D01*
X196436579Y-105350280D01*
X196860843Y-104926016D01*
X197072975Y-105138148D01*
X155413000Y-133024000D02*
X155413000Y-133564000D01*
X155413000Y-133564000D02*
X156463000Y-133564000D01*
X156463000Y-133024000D02*
X155413000Y-133024000D01*
X156463000Y-133564000D02*
X156463000Y-133024000D01*
X187941000Y-143326000D02*
X190991000Y-147405768D01*
X187941000Y-147405768D02*
X190991000Y-143326000D01*
X151619000Y-110814000D02*
X154669000Y-114893768D01*
X151619000Y-114893768D02*
X154669000Y-110814000D01*
X193656000Y-138567801D02*
X196706000Y-142647363D01*
X193656000Y-142647363D02*
X196706000Y-138567801D01*
X200260000Y-143326000D02*
X203310000Y-147405768D01*
X200260000Y-147405768D02*
X203310000Y-143326000D01*
X199244000Y-72587000D02*
X202294000Y-76666768D01*
X199244000Y-76666768D02*
X202294000Y-72587000D01*
X179178000Y-143396000D02*
X182228000Y-147470819D01*
X179178000Y-147470819D02*
X182228000Y-143396000D01*
X179178000Y-140094000D02*
X182228000Y-144168819D01*
X179178000Y-144168819D02*
X182228000Y-140094000D01*
X147845444Y-81096000D02*
X151421094Y-85175768D01*
X147845444Y-85175768D02*
X151421094Y-81096000D01*
X154794000Y-139135000D02*
X157844000Y-143209819D01*
X154794000Y-143209819D02*
X157844000Y-139135000D01*
X154794000Y-142183000D02*
X157844000Y-146262768D01*
X154794000Y-146262768D02*
X157844000Y-142183000D01*
D19*
X170288978Y-121225633D02*
X170289000Y-94244427D01*
X173340373Y-124277000D02*
G75*
G02*
X171926143Y-123691229I-73J1999900D01*
G01*
X164860000Y-68524000D02*
G75*
G02*
X166860000Y-70524000I0J-2000000D01*
G01*
X170289000Y-94244427D02*
G75*
G02*
X170874773Y-92830199I2000000J27D01*
G01*
X190863000Y-80046323D02*
G75*
G02*
X190277223Y-81460545I-2000100J23D01*
G01*
X174546427Y-89987000D02*
X184799000Y-89987000D01*
X197213000Y-113421427D02*
X197213000Y-116141816D01*
X205976000Y-70524000D02*
X205976000Y-144502000D01*
X174387677Y-84526000D02*
G75*
G02*
X172973455Y-83940223I23J2000100D01*
G01*
X167445787Y-78412537D02*
G75*
G02*
X166859984Y-76998323I1414213J1414237D01*
G01*
X187384787Y-102764787D02*
X196627214Y-112007214D01*
X146286000Y-70524000D02*
G75*
G02*
X148286000Y-68524000I2000000J0D01*
G01*
X187797537Y-83940213D02*
X190277214Y-81460536D01*
X192133000Y-121500001D02*
G75*
G02*
X195370953Y-118135383I3369900J-2699D01*
G01*
X146286000Y-144502000D02*
X146286000Y-70524000D01*
X148286000Y-68524000D02*
X164860000Y-68524000D01*
X148286000Y-146502000D02*
G75*
G02*
X146286000Y-144502000I0J2000000D01*
G01*
X196627214Y-112007214D02*
G75*
G02*
X197213022Y-113421427I-1414314J-1414286D01*
G01*
X197212290Y-116141816D02*
G75*
G02*
X195371779Y-118135421I-1999990J16D01*
G01*
X192133000Y-122277000D02*
G75*
G02*
X190133000Y-124277000I-2000000J0D01*
G01*
X187384787Y-102764787D02*
G75*
G02*
X186798978Y-101350573I1414313J1414287D01*
G01*
X167445787Y-78412537D02*
X172973464Y-83940214D01*
X205976000Y-144502000D02*
G75*
G02*
X203976000Y-146502000I-2000000J0D01*
G01*
X170874786Y-122639846D02*
G75*
G02*
X170288977Y-121225633I1414214J1414246D01*
G01*
X184799000Y-89987000D02*
G75*
G02*
X186799000Y-91987000I0J-2000000D01*
G01*
X166860000Y-70524000D02*
X166860000Y-76998323D01*
X190863000Y-70524000D02*
G75*
G02*
X192863000Y-68524000I2000000J0D01*
G01*
X190133000Y-124277000D02*
X173340373Y-124277000D01*
X203976000Y-68524000D02*
G75*
G02*
X205976000Y-70524000I0J-2000000D01*
G01*
X203976000Y-146502000D02*
X148286000Y-146502000D01*
X190863000Y-80046323D02*
X190863000Y-70524000D01*
X174387677Y-84526000D02*
X186383323Y-84526000D01*
X186799000Y-91987000D02*
X186799000Y-101350573D01*
X171925713Y-123691213D02*
X170874786Y-122640286D01*
X192133000Y-121500001D02*
X192133000Y-122277000D01*
X170874787Y-92830213D02*
X173132214Y-90572786D01*
X192863000Y-68524000D02*
X203976000Y-68524000D01*
X187797537Y-83940213D02*
G75*
G02*
X186383323Y-84526016I-1414237J1414213D01*
G01*
X173132214Y-90572786D02*
G75*
G02*
X174546427Y-89987019I1414186J-1414214D01*
G01*
M02*
