G04 #@! TF.GenerationSoftware,KiCad,Pcbnew,9.0.3*
G04 #@! TF.CreationDate,2026-01-22T22:33:29+01:00*
G04 #@! TF.ProjectId,CM5IO,434d3549-4f2e-46b6-9963-61645f706362,rev?*
G04 #@! TF.SameCoordinates,Original*
G04 #@! TF.FileFunction,Other,User*
%FSLAX46Y46*%
G04 Gerber Fmt 4.6, Leading zero omitted, Abs format (unit mm)*
G04 Created by KiCad (PCBNEW 9.0.3) date 2026-01-22 22:33:29*
%MOMM*%
%LPD*%
G01*
G04 APERTURE LIST*
%ADD10C,0.050000*%
G04 #@! TA.AperFunction,Profile*
%ADD11C,0.050000*%
G04 #@! TD*
G04 APERTURE END LIST*
D10*
X154970000Y-83870000D02*
X154970000Y-85690000D01*
X154970000Y-85690000D02*
X155890000Y-85690000D01*
X155890000Y-83870000D02*
X154970000Y-83870000D01*
X155890000Y-85690000D02*
X155890000Y-83870000D01*
X152328298Y-88336198D02*
X152328298Y-90156198D01*
X152328298Y-90156198D02*
X153248298Y-90156198D01*
X153248298Y-88336198D02*
X152328298Y-88336198D01*
X153248298Y-90156198D02*
X153248298Y-88336198D01*
X148728000Y-88070000D02*
X148728000Y-84670000D01*
X148728000Y-88070000D02*
X154648000Y-88070000D01*
X154648000Y-84670000D02*
X148728000Y-84670000D01*
X154648000Y-84670000D02*
X154648000Y-88070000D01*
X191110000Y-77018000D02*
X191110000Y-91018000D01*
X191110000Y-91018000D02*
X205860000Y-91018000D01*
X205860000Y-77018000D02*
X191110000Y-77018000D01*
X205860000Y-91018000D02*
X205860000Y-77018000D01*
X187966000Y-146351000D02*
X187966000Y-143351000D01*
X187966000Y-146351000D02*
X190966000Y-146351000D01*
X190966000Y-143351000D02*
X187966000Y-143351000D01*
X190966000Y-143351000D02*
X190966000Y-146351000D01*
X151644000Y-113839000D02*
X151644000Y-110839000D01*
X151644000Y-113839000D02*
X154644000Y-113839000D01*
X154644000Y-110839000D02*
X151644000Y-110839000D01*
X154644000Y-110839000D02*
X154644000Y-113839000D01*
X193681000Y-141592801D02*
X193681000Y-138592801D01*
X193681000Y-141592801D02*
X196681000Y-141592801D01*
X196681000Y-138592801D02*
X193681000Y-138592801D01*
X196681000Y-138592801D02*
X196681000Y-141592801D01*
X200285000Y-146351000D02*
X200285000Y-143351000D01*
X200285000Y-146351000D02*
X203285000Y-146351000D01*
X203285000Y-143351000D02*
X200285000Y-143351000D01*
X203285000Y-143351000D02*
X203285000Y-146351000D01*
X199269000Y-75612000D02*
X199269000Y-72612000D01*
X199269000Y-75612000D02*
X202269000Y-75612000D01*
X202269000Y-72612000D02*
X199269000Y-72612000D01*
X202269000Y-72612000D02*
X202269000Y-75612000D01*
X151444000Y-114280000D02*
X151444000Y-116240000D01*
X151444000Y-116240000D02*
X154844000Y-116240000D01*
X154844000Y-114280000D02*
X151444000Y-114280000D01*
X154844000Y-116240000D02*
X154844000Y-114280000D01*
X179203000Y-146421000D02*
X179203000Y-143421000D01*
X179203000Y-146421000D02*
X182203000Y-146421000D01*
X182203000Y-143421000D02*
X179203000Y-143421000D01*
X182203000Y-143421000D02*
X182203000Y-146421000D01*
X157244000Y-128546000D02*
X157244000Y-131946000D01*
X157244000Y-131946000D02*
X159204000Y-131946000D01*
X159204000Y-128546000D02*
X157244000Y-128546000D01*
X159204000Y-131946000D02*
X159204000Y-128546000D01*
X179203000Y-143119000D02*
X179203000Y-140119000D01*
X179203000Y-143119000D02*
X182203000Y-143119000D01*
X182203000Y-140119000D02*
X179203000Y-140119000D01*
X182203000Y-140119000D02*
X182203000Y-143119000D01*
X181832001Y-87952001D02*
X181832001Y-85432001D01*
X181832001Y-87952001D02*
X187812001Y-87952001D01*
X187812001Y-85432001D02*
X181832001Y-85432001D01*
X187812001Y-85432001D02*
X187812001Y-87952001D01*
X153730000Y-128450000D02*
X157130000Y-128450000D01*
X153730000Y-132550000D02*
X153730000Y-128450000D01*
X157130000Y-128450000D02*
X157130000Y-132550000D01*
X157130000Y-132550000D02*
X153730000Y-132550000D01*
X151444000Y-116312000D02*
X151444000Y-118272000D01*
X151444000Y-118272000D02*
X154844000Y-118272000D01*
X154844000Y-116312000D02*
X151444000Y-116312000D01*
X154844000Y-118272000D02*
X154844000Y-116312000D01*
X148088000Y-84121000D02*
X148088000Y-81121000D01*
X148088000Y-84121000D02*
X151088000Y-84121000D01*
X151088000Y-81121000D02*
X148088000Y-81121000D01*
X151088000Y-81121000D02*
X151088000Y-84121000D01*
X154819000Y-142160000D02*
X154819000Y-139160000D01*
X154819000Y-142160000D02*
X157819000Y-142160000D01*
X157819000Y-139160000D02*
X154819000Y-139160000D01*
X157819000Y-139160000D02*
X157819000Y-142160000D01*
X191981806Y-102380431D02*
X193544512Y-103943137D01*
X193544512Y-103943137D02*
X193685933Y-103801716D01*
X193685933Y-103801716D02*
X196075954Y-106191737D01*
X193961705Y-100400532D02*
X191981806Y-102380431D01*
X194244548Y-100683375D02*
X193961705Y-100400532D01*
X195163786Y-99764136D02*
X194244548Y-100683375D01*
X195934533Y-106333158D02*
X197497239Y-107895864D01*
X196012315Y-100612664D02*
X195163786Y-99764136D01*
X196075954Y-106191737D02*
X195934533Y-106333158D01*
X196790132Y-99834847D02*
X196012315Y-100612664D01*
X197497239Y-107895864D02*
X199477138Y-105915965D01*
X199194295Y-105633122D02*
X200113534Y-104713884D01*
X199265006Y-103865355D02*
X200042823Y-103087538D01*
X199477138Y-105915965D02*
X199194295Y-105633122D01*
X200042823Y-103087538D02*
X196790132Y-99834847D01*
X200113534Y-104713884D02*
X199265006Y-103865355D01*
X154819000Y-145208000D02*
X154819000Y-142208000D01*
X154819000Y-145208000D02*
X157819000Y-145208000D01*
X157819000Y-142208000D02*
X154819000Y-142208000D01*
X157819000Y-142208000D02*
X157819000Y-145208000D01*
X155008000Y-132824000D02*
X155008000Y-133764000D01*
X155008000Y-133764000D02*
X156868000Y-133764000D01*
X156868000Y-132824000D02*
X155008000Y-132824000D01*
X156868000Y-133764000D02*
X156868000Y-132824000D01*
D11*
X170288978Y-121225633D02*
X170289000Y-94244427D01*
X173340373Y-124277000D02*
G75*
G02*
X171926143Y-123691229I-73J1999900D01*
G01*
X164860000Y-68524000D02*
G75*
G02*
X166860000Y-70524000I0J-2000000D01*
G01*
X170289000Y-94244427D02*
G75*
G02*
X170874773Y-92830199I2000000J27D01*
G01*
X190863000Y-80046323D02*
G75*
G02*
X190277223Y-81460545I-2000100J23D01*
G01*
X174546427Y-89987000D02*
X184799000Y-89987000D01*
X197213000Y-113421427D02*
X197213000Y-116141816D01*
X205976000Y-70524000D02*
X205976000Y-144502000D01*
X174387677Y-84526000D02*
G75*
G02*
X172973455Y-83940223I23J2000100D01*
G01*
X167445787Y-78412537D02*
G75*
G02*
X166859984Y-76998323I1414213J1414237D01*
G01*
X187384787Y-102764787D02*
X196627214Y-112007214D01*
X146286000Y-70524000D02*
G75*
G02*
X148286000Y-68524000I2000000J0D01*
G01*
X187797537Y-83940213D02*
X190277214Y-81460536D01*
X192133000Y-121500001D02*
G75*
G02*
X195370953Y-118135383I3369900J-2699D01*
G01*
X146286000Y-144502000D02*
X146286000Y-70524000D01*
X148286000Y-68524000D02*
X164860000Y-68524000D01*
X148286000Y-146502000D02*
G75*
G02*
X146286000Y-144502000I0J2000000D01*
G01*
X196627214Y-112007214D02*
G75*
G02*
X197213022Y-113421427I-1414314J-1414286D01*
G01*
X197212290Y-116141816D02*
G75*
G02*
X195371779Y-118135421I-1999990J16D01*
G01*
X192133000Y-122277000D02*
G75*
G02*
X190133000Y-124277000I-2000000J0D01*
G01*
X187384787Y-102764787D02*
G75*
G02*
X186798978Y-101350573I1414313J1414287D01*
G01*
X167445787Y-78412537D02*
X172973464Y-83940214D01*
X205976000Y-144502000D02*
G75*
G02*
X203976000Y-146502000I-2000000J0D01*
G01*
X170874786Y-122639846D02*
G75*
G02*
X170288977Y-121225633I1414214J1414246D01*
G01*
X184799000Y-89987000D02*
G75*
G02*
X186799000Y-91987000I0J-2000000D01*
G01*
X166860000Y-70524000D02*
X166860000Y-76998323D01*
X190863000Y-70524000D02*
G75*
G02*
X192863000Y-68524000I2000000J0D01*
G01*
X190133000Y-124277000D02*
X173340373Y-124277000D01*
X203976000Y-68524000D02*
G75*
G02*
X205976000Y-70524000I0J-2000000D01*
G01*
X203976000Y-146502000D02*
X148286000Y-146502000D01*
X190863000Y-80046323D02*
X190863000Y-70524000D01*
X174387677Y-84526000D02*
X186383323Y-84526000D01*
X186799000Y-91987000D02*
X186799000Y-101350573D01*
X171925713Y-123691213D02*
X170874786Y-122640286D01*
X192133000Y-121500001D02*
X192133000Y-122277000D01*
X170874787Y-92830213D02*
X173132214Y-90572786D01*
X192863000Y-68524000D02*
X203976000Y-68524000D01*
X187797537Y-83940213D02*
G75*
G02*
X186383323Y-84526016I-1414237J1414213D01*
G01*
X173132214Y-90572786D02*
G75*
G02*
X174546427Y-89987019I1414186J-1414214D01*
G01*
M02*
