M48
; DRILL file {KiCad 9.0.3} date 2026-01-28T23:02:47+0100
; FORMAT={-:-/ absolute / inch / decimal}
; #@! TF.CreationDate,2026-01-28T23:02:47+01:00
; #@! TF.GenerationSoftware,Kicad,Pcbnew,9.0.3
; #@! TF.FileFunction,Plated,1,2,PTH
FMAT,2
INCH
; #@! TA.AperFunction,Plated,PTH,ComponentDrill
T1C0.0079
; #@! TA.AperFunction,Plated,PTH,ViaDrill
T2C0.0118
; #@! TA.AperFunction,Plated,PTH,ComponentDrill
T3C0.0197
; #@! TA.AperFunction,Plated,PTH,ComponentDrill
T4C0.0236
; #@! TA.AperFunction,Plated,PTH,ComponentDrill
T5C0.0394
%
G90
G05
T1
X7.0305Y-5.0634
X7.0305Y-5.1185
X7.058Y-5.0358
X7.058Y-5.0909
X7.058Y-5.146
X7.0856Y-5.0634
X7.0856Y-5.1185
X7.1131Y-5.0358
X7.1131Y-5.0909
X7.1131Y-5.146
X7.1407Y-5.0634
X7.1407Y-5.1185
T2
X6.188Y-5.6006
X6.251Y-5.6006
X6.2803Y-5.5808
X6.2883Y-5.6568
X6.2883Y-5.7388
X6.3383Y-5.4928
X6.4063Y-5.4548
X6.4143Y-5.5348
X6.4503Y-5.4908
X6.5283Y-5.5348
X6.5353Y-5.6008
X6.5403Y-5.5681
X6.6403Y-5.4308
X6.7003Y-5.4358
X6.7453Y-5.1208
X6.7453Y-5.1858
X6.7863Y-4.0268
X6.8003Y-5.4728
X6.8303Y-4.7028
X6.8383Y-3.9848
X6.8474Y-5.3908
X6.8523Y-4.7488
X6.8523Y-5.0388
X6.8523Y-5.2948
X6.8703Y-4.355
X6.8703Y-4.3865
X6.8803Y-5.2683
X6.9153Y-4.4158
X6.9603Y-4.8608
X6.9663Y-4.1068
X6.9743Y-4.9449
X7.0003Y-5.2708
X7.0003Y-5.3208
X7.0083Y-3.9968
X7.0253Y-4.9458
X7.0503Y-4.0408
X7.0548Y-5.4728
X7.0603Y-4.8608
X7.0794Y-5.6808
X7.1043Y-4.8828
X7.1043Y-4.9448
X7.1083Y-4.3168
X7.1423Y-4.4968
X7.1603Y-4.3788
X7.1603Y-4.8608
X7.1963Y-4.5468
X7.2203Y-4.2588
X7.2403Y-4.3788
X7.2403Y-5.6408
X7.2603Y-4.8608
X7.3136Y-5.7162
X7.3403Y-5.1708
X7.3603Y-4.8608
X7.3603Y-5.2208
X7.3853Y-5.2708
X7.4053Y-5.3208
X7.4123Y-4.2548
X7.4253Y-5.3708
X7.4363Y-4.0728
X7.4363Y-4.8928
X7.4453Y-5.4208
X7.4503Y-4.7508
X7.4603Y-4.6648
X7.4663Y-4.3808
X7.4703Y-4.2548
X7.4836Y-5.7182
X7.4891Y-5.4508
X7.4923Y-4.1208
X7.4943Y-4.0608
X7.5083Y-4.2688
X7.5263Y-4.6628
X7.5303Y-4.5228
X7.5403Y-4.3808
X7.5587Y-4.9358
X7.5603Y-4.9008
X7.5643Y-5.3948
X7.5663Y-4.8658
X7.5723Y-4.2688
X7.5803Y-4.1888
X7.6853Y-4.8858
X7.6853Y-4.9558
X7.7753Y-4.9868
X7.7923Y-4.2548
X7.8303Y-4.7658
X7.8503Y-4.2548
X7.8503Y-4.8358
X7.8553Y-5.6508
X7.8553Y-5.7008
X8.0103Y-5.6508
X8.0103Y-5.7008
T3
X6.7103Y-5.5708
X6.7595Y-5.5708
X6.8087Y-5.5708
X6.8579Y-5.5708
X6.9071Y-5.5708
X6.9564Y-5.5708
X7.0056Y-5.5708
X7.0548Y-5.5708
X7.2203Y-5.5708
X7.2695Y-5.5708
X7.3187Y-5.5708
X7.3679Y-5.5708
X7.4171Y-5.5708
X7.4664Y-5.5708
X7.5156Y-5.5708
X7.5648Y-5.5708
X7.6903Y-5.1958
X7.6903Y-5.245
X7.6903Y-5.2942
X7.7302Y-5.5739
X7.7794Y-5.5739
T5
X7.9193Y-3.6678
X7.9193Y-3.7678
X7.9193Y-3.8678
X7.9193Y-3.9678
X7.9193Y-4.0678
X7.9193Y-4.1678
X7.9193Y-4.2678
X7.9193Y-4.3678
X7.9193Y-4.4678
X7.9193Y-4.5678
X7.9193Y-4.6678
X7.9193Y-4.7678
X7.9193Y-4.8678
X7.9193Y-4.9678
X7.9193Y-5.0678
X7.9193Y-5.1678
X7.9193Y-5.2678
X7.9193Y-5.3678
X7.9193Y-5.4678
X7.9193Y-5.5678
X8.0193Y-3.6678
X8.0193Y-3.7678
X8.0193Y-3.8678
X8.0193Y-3.9678
X8.0193Y-4.0678
X8.0193Y-4.1678
X8.0193Y-4.2678
X8.0193Y-4.3678
X8.0193Y-4.4678
X8.0193Y-4.5678
X8.0193Y-4.6678
X8.0193Y-4.7678
X8.0193Y-4.8678
X8.0193Y-4.9678
X8.0193Y-5.0678
X8.0193Y-5.1678
X8.0193Y-5.2678
X8.0193Y-5.3678
X8.0193Y-5.4678
X8.0193Y-5.5678
T4
G00X6.8037Y-4.1807
M15
G01X6.7722Y-4.1807
M16
G05
G00X6.8037Y-4.5209
M15
G01X6.7722Y-4.5209
M16
G05
G00X6.9742Y-4.1807
M15
G01X6.9309Y-4.1807
M16
G05
G00X6.9742Y-4.5209
M15
G01X6.9309Y-4.5209
M16
G05
M30
